{
.appVersion = "3151";
.formatVersion = 3;
axes = (
{
name = Weight;
tag = wght;
},
{
name = Width;
tag = wdth;
},
{
name = Slant;
tag = slnt;
}
);
classes = (
{
code = "zero one two three four five six seven eight nine ";
name = Num;
},
{
code = "zero.canadian one.canadian two.canadian three.canadian four.canadian five.canadian six.canadian seven.canadian eight.canadian nine.canadian 
";
name = Num_can;
},
{

glyphs = (
{
glyphname = idotless;
lastChange = "2023-01-13 15:56:50 +0000";
layers = (
{
layerId = "ABE41ABD-D787-4F86-A3B4-502CADE9F2A5";
shapes = (
{
closed = 1;
nodes = (
(139,0,l),
(251,528,l),
(110,528,l),
(-2,0,l)
);
}
);
width = 241;
}
);
note = dotlessi;
unicode = 305;
},
{
glyphname = "acuteFinal-canadian";
lastChange = "2023-01-13 15:56:50 +0000";
layers = (
{
layerId = "ABE41ABD-D787-4F86-A3B4-502CADE9F2A5";
shapes = (
{
closed = 1;
nodes = (
(154,345,l),
(361,690,l),
(245,690,l),
(38,345,l)
);
}
);
width = 283;
}
);
metricRight = "=|";
note = uni141F;
unicode = 5151;
},
{
glyphname = "graveFinal-canadian";
kernLeft = mwestleft;
kernRight = mwestright;
lastChange = "2023-01-13 15:56:53 +0000";
layers = (
{
layerId = "ABE41ABD-D787-4F86-A3B4-502CADE9F2A5";
shapes = (
{
closed = 1;
nodes = (
(289,345,l),
(216,690,l),
(112,690,l),
(185,345,l)
);
}
);
width = 285;
}
);
metricLeft = "=|acuteFinal-canadian";
metricRight = "=|acuteFinal-canadian";
note = uni1420;
unicode = 5152;
},
{
glyphname = "ringBottomhalfFinal-canadian";
kernLeft = mwestleft;
kernRight = mwestright;
lastChange = "2023-01-13 15:56:50 +0000";
layers = (
{
layerId = "ABE41ABD-D787-4F86-A3B4-502CADE9F2A5";
shapes = (
{
closed = 1;
nodes = (
(301,339,o),
(349,386,o),
(366,469,cs),
(412,690,l),
(319,690,l),
(272,472,ls),
(266,439,o),
(250,423,o),
(222,423,cs),
(191,423,o),
(180,441,o),
(187,474,cs),
(233,690,l),
(138,690,l),
(95,487,ls),
(76,397,o),
(122,339,o),
(213,339,cs)
);
}
);
width = 361;
}
);
metricLeft = "ai-canadian";
metricRight = "==|ai-canadian";
note = uni1421;
unicode = 5153;
},
{
glyphname = "ringTophalfFinal-canadian";
lastChange = "2023-01-13 15:56:53 +0000";
layers = (
{
layerId = "ABE41ABD-D787-4F86-A3B4-502CADE9F2A5";
shapes = (
{
closed = 1;
nodes = (
(159,345,l),
(205,562,ls),
(212,596,o),
(227,611,o),
(256,611,cs),
(286,611,o),
(297,593,o),
(291,560,cs),
(245,345,l),
(339,345,l),
(383,548,ls),
(402,638,o),
(356,696,o),
(264,696,cs),
(176,696,o),
(129,648,o),
(111,565,cs),
(65,345,l)
);
}
);
width = 361;
}
);
metricLeft = "ai-canadian";
metricRight = "==|ai-canadian";
note = uni1422;
unicode = 5154;
},
{
glyphname = "ringRighthalfFinal-canadian";
kernLeft = mwestleft;
kernRight = mwestright;
lastChange = "2023-01-13 15:56:53 +0000";
layers = (
{
layerId = "ABE41ABD-D787-4F86-A3B4-502CADE9F2A5";
shapes = (
{
closed = 1;
nodes = (
(119,345,ls),
(263,345,o),
(326,444,o),
(326,554,cs),
(326,640,o),
(270,690,o),
(181,690,cs),
(138,690,l),
(119,601,l),
(166,601,ls),
(207,601,o),
(231,580,o),
(231,540,cs),
(231,488,o),
(205,434,o),
(132,434,cs),
(84,434,l),
(65,345,l)
);
}
);
width = 304;
}
);
metricLeft = "=|t-canadian";
metricWidth = "t-canadian";
note = uni1423;
unicode = 5155;
},
{
glyphname = "ringFinal-canadian";
kernLeft = mwestleft;
kernRight = mwestright;
lastChange = "2023-01-13 15:56:50 +0000";
layers = (
{
layerId = "ABE41ABD-D787-4F86-A3B4-502CADE9F2A5";
shapes = (
{
closed = 1;
nodes = (
(355,383,o),
(421,450,o),
(421,540,cs),
(421,629,o),
(355,696,o),
(263,696,cs),
(169,696,o),
(102,629,o),
(102,540,cs),
(102,450,o),
(168,383,o),
(263,383,cs)
);
},
{
closed = 1;
nodes = (
(216,463,o),
(189,496,o),
(189,540,cs),
(189,583,o),
(216,615,o),
(263,615,cs),
(306,615,o),
(334,582,o),
(334,540,cs),
(334,496,o),
(306,463,o),
(263,463,cs)
);
}
);
width = 398;
}
);
note = uni1424;
unicode = 5156;
},
{
glyphname = "doubleacuteFinal-canadian";
lastChange = "2023-01-13 15:56:50 +0000";
layers = (
{
layerId = "ABE41ABD-D787-4F86-A3B4-502CADE9F2A5";
shapes = (
{
closed = 1;
nodes = (
(150,345,l),
(361,690,l),
(249,690,l),
(38,345,l)
);
},
{
closed = 1;
nodes = (
(304,345,l),
(516,690,l),
(405,690,l),
(193,345,l)
);
}
);
width = 438;
}
);
metricLeft = "acuteFinal-canadian";
metricRight = "=|";
note = uni1425;
unicode = 5157;
},
{
glyphname = "doubleshortverticalstrokesFinal-canadian";
kernLeft = mwestleft;
kernRight = mwestright;
lastChange = "2023-01-13 15:56:53 +0000";
layers = (
{
layerId = "ABE41ABD-D787-4F86-A3B4-502CADE9F2A5";
shapes = (
{
closed = 1;
nodes = (
(159,345,l),
(233,690,l),
(138,690,l),
(65,345,l)
);
},
{
closed = 1;
nodes = (
(295,345,l),
(368,690,l),
(273,690,l),
(200,345,l)
);
}
);
width = 317;
}
);
metricLeft = "pWestCree-canadian";
metricRight = "pWestCree-canadian";
note = uni1426;
unicode = 5158;
},
{
glyphname = "middledotFinal-canadian";
lastChange = "2023-01-13 15:56:50 +0000";
layers = (
{
layerId = "ABE41ABD-D787-4F86-A3B4-502CADE9F2A5";
shapes = (
{
closed = 1;
nodes = (
(163,287,o),
(193,317,o),
(193,355,cs),
(193,392,o),
(163,422,o),
(126,422,cs),
(88,422,o),
(58,392,o),
(58,355,cs),
(58,317,o),
(88,287,o),
(126,287,cs)
);
}
);
width = 204;
}
);
note = uni1427;
unicode = 5159;
},
{
glyphname = "shorthorizontalstrokeFinal-canadian";
kernLeft = mwestleft;
kernRight = mwestright;
lastChange = "2023-01-13 15:56:53 +0000";
layers = (
{
layerId = "ABE41ABD-D787-4F86-A3B4-502CADE9F2A5";
shapes = (
{
closed = 1;
nodes = (
(374,490,l),
(394,585,l),
(116,585,l),
(96,490,l)
);
}
);
width = 366;
}
);
metricRight = "=|";
note = uni1428;
unicode = 5160;
},
{
glyphname = "plusFinal-canadian";
kernLeft = mwestleft;
kernRight = mwestright;
lastChange = "2023-01-13 15:56:50 +0000";
layers = (
{
layerId = "ABE41ABD-D787-4F86-A3B4-502CADE9F2A5";
shapes = (
{
closed = 1;
nodes = (
(260,393,l),
(282,498,l),
(376,498,l),
(395,587,l),
(300,587,l),
(323,690,l),
(233,690,l),
(212,587,l),
(117,587,l),
(98,498,l),
(192,498,l),
(170,393,l)
);
}
);
width = 366;
}
);
metricLeft = "shorthorizontalstrokeFinal-canadian";
metricRight = "shorthorizontalstrokeFinal-canadian";
note = uni1429;
unicode = 5161;
},
{
glyphname = "downtackFinal-canadian";
kernLeft = mwestleft;
kernRight = mwestright;
lastChange = "2023-01-13 15:56:53 +0000";
layers = (
{
layerId = "ABE41ABD-D787-4F86-A3B4-502CADE9F2A5";
shapes = (
{
closed = 1;
nodes = (
(252,345,l),
(306,600,l),
(398,600,l),
(417,690,l),
(139,690,l),
(120,600,l),
(212,600,l),
(157,345,l)
);
}
);
width = 366;
}
);
metricLeft = "shorthorizontalstrokeFinal-canadian";
metricRight = "shorthorizontalstrokeFinal-canadian";
note = uni142A;
unicode = 5162;
},
{
glyphname = "thFinalWoodScree-canadian";
lastChange = "2023-01-13 15:56:53 +0000";
layers = (
{
layerId = "ABE41ABD-D787-4F86-A3B4-502CADE9F2A5";
shapes = (
{
closed = 1;
nodes = (
(251,345,l),
(264,405,l),
(355,405,l),
(372,484,l),
(281,484,l),
(295,551,l),
(385,551,l),
(403,630,l),
(312,630,l),
(325,690,l),
(230,690,l),
(217,630,l),
(125,630,l),
(108,551,l),
(201,551,l),
(186,484,l),
(94,484,l),
(77,405,l),
(170,405,l),
(156,345,l)
);
}
);
width = 364;
}
);
metricLeft = "hyphen-canadian";
metricRight = "hyphen-canadian";
note = uni167E;
unicode = 5758;
},
{
glyphname = "ringSmallFinal-canadian";
kernLeft = mwestleft;
kernRight = mwestright;
lastChange = "2023-01-13 15:56:50 +0000";
layers = (
{
layerId = "ABE41ABD-D787-4F86-A3B4-502CADE9F2A5";
shapes = (
{
closed = 1;
nodes = (
(279,499,o),
(327,543,o),
(327,602,cs),
(327,661,o),
(279,703,o),
(223,703,cs),
(167,703,o),
(120,662,o),
(120,602,cs),
(120,543,o),
(167,499,o),
(223,499,cs)
);
},
{
closed = 1;
nodes = (
(197,557,o),
(181,578,o),
(181,602,cs),
(181,626,o),
(198,646,o),
(223,646,cs),
(249,646,o),
(267,626,o),
(267,602,cs),
(267,578,o),
(249,557,o),
(223,557,cs)
);
}
);
width = 295;
}
);
note = g725;
unicode = 6366;
},
{
glyphname = "raiseddotFinal-canadian";
kernLeft = mwestleft;
kernRight = mwestright;
lastChange = "2023-01-13 15:56:50 +0000";
layers = (
{
layerId = "ABE41ABD-D787-4F86-A3B4-502CADE9F2A5";
shapes = (
{
closed = 1;
nodes = (
(224,569,o),
(254,599,o),
(254,637,cs),
(254,673,o),
(224,703,o),
(186,703,cs),
(149,703,o),
(119,673,o),
(119,637,cs),
(119,599,o),
(149,569,o),
(186,569,cs)
);
}
);
width = 206;
}
);
note = g725;
unicode = 6367;
},
{
glyphname = "plusFinal-canadian.base";
lastChange = "2023-01-13 15:56:53 +0000";
layers = (
{
layerId = "ABE41ABD-D787-4F86-A3B4-502CADE9F2A5";
shapes = (
{
closed = 1;
nodes = (
(176,0,l),
(198,105,l),
(292,105,l),
(311,194,l),
(217,194,l),
(240,297,l),
(150,297,l),
(128,194,l),
(33,194,l),
(14,105,l),
(109,105,l),
(87,0,l)
);
}
);
width = 366;
}
);
metricLeft = "shorthorizontalstrokeFinal-canadian";
metricRight = "shorthorizontalstrokeFinal-canadian";
note = uni1429;
},
{
glyphname = "e-canadian";
kernLeft = ecanleft;
kernRight = ecanright;
lastChange = "2023-01-13 15:56:50 +0000";
layers = (
{
anchors = (
{
name = middle_center_can;
pos = (347,454);
},
{
name = top_center_can;
pos = (403,690);
},
{
name = top_left_can;
pos = (213,690);
},
{
name = top_right_can;
pos = (592,690);
}
);
layerId = "ABE41ABD-D787-4F86-A3B4-502CADE9F2A5";
shapes = (
{
closed = 1;
nodes = (
(275,0,l),
(684,655,l),
(691,690,l),
(113,690,l),
(106,655,l),
(235,0,l)
);
},
{
closed = 1;
nodes = (
(320,157,l),
(243,605,l),
(214,577,l),
(537,577,l),
(512,605,l),
(249,157,l)
);
}
);
width = 615;
}
);
metricRight = "=|";
note = uni1401;
unicode = 5121;
},
{
glyphname = "i-canadian";
kernLeft = icanleft;
kernRight = icanright;
lastChange = "2023-01-13 15:56:53 +0000";
layers = (
{
anchors = (
{
name = middle_center_can;
pos = (323,291);
},
{
name = top_center_can;
pos = (402,690);
},
{
name = top_left_can;
pos = (212,690);
},
{
name = top_right_can;
pos = (592,690);
}
);
layerId = "ABE41ABD-D787-4F86-A3B4-502CADE9F2A5";
shapes = (
{
closed = 1;
nodes = (
(382,690,l),
(-27,35,l),
(-34,0,l),
(544,0,l),
(551,35,l),
(422,690,l)
);
},
{
closed = 1;
nodes = (
(337,532,l),
(413,85,l),
(442,113,l),
(120,113,l),
(144,85,l),
(408,532,l)
);
}
);
width = 615;
}
);
metricLeft = "e-canadian";
metricWidth = "e-canadian";
note = uni1403;
unicode = 5123;
},
{
glyphname = "o-canadian";
kernLeft = ocanleft;
kernRight = ocanright;
lastChange = "2023-01-13 15:56:50 +0000";
layers = (
{
anchors = (
{
name = middle_center_can;
pos = (264,359);
},
{
name = top_center_can;
pos = (387,690);
},
{
name = top_double;
pos = (485,690);
},
{
name = top_left_can;
pos = (202,690);
},
{
name = top_right_can;
pos = (583,690);
}
);
layerId = "ABE41ABD-D787-4F86-A3B4-502CADE9F2A5";
shapes = (
{
closed = 1;
nodes = (
(32,0,l),
(562,323,l),
(572,367,l),
(179,690,l),
(146,690,l),
(-1,0,l)
);
},
{
closed = 1;
nodes = (
(229,532,l),
(178,551,l),
(432,340,l),
(427,368,l),
(103,167,l),
(149,158,l)
);
}
);
width = 572;
}
);
metricLeft = "nunavuth-canadian";
note = uni1405;
unicode = 5125;
},
{
glyphname = "eeCarrier-canadian";
lastChange = "2023-01-13 15:56:50 +0000";
layers = (
{
layerId = "ABE41ABD-D787-4F86-A3B4-502CADE9F2A5";
shapes = (
{
closed = 1;
nodes = (
(32,0,l),
(562,323,l),
(572,367,l),
(179,690,l),
(146,690,l),
(-1,0,l)
);
},
{
closed = 1;
nodes = (
(219,532,l),
(200,537,l),
(438,339,l),
(445,375,l),
(123,176,l),
(139,158,l)
);
},
{
closed = 1;
nodes = (
(263,291,l),
(291,421,l),
(245,421,l),
(218,291,l)
);
}
);
width = 572;
}
);
metricLeft = "nunavuth-canadian";
metricRight = "o-canadian";
note = uni1408;
unicode = 5128;
},
{
glyphname = "a-canadian";
kernLeft = acanleft;
kernRight = acanright;
lastChange = "2023-01-13 15:56:50 +0000";
layers = (
{
anchors = (
{
name = middle_center_can;
pos = (352,343);
},
{
name = top_center_can;
pos = (344,690);
},
{
name = top_left_can;
pos = (187,690);
},
{
name = top_right_can;
pos = (554,690);
}
);
layerId = "ABE41ABD-D787-4F86-A3B4-502CADE9F2A5";
shapes = (
{
closed = 1;
nodes = (
(582,690,l),
(52,367,l),
(43,323,l),
(436,0,l),
(469,0,l),
(615,690,l)
);
},
{
closed = 1;
nodes = (
(385,157,l),
(437,139,l),
(183,350,l),
(187,322,l),
(511,523,l),
(466,531,l)
);
}
);
width = 572;
}
);
metricRight = "nunavuth-canadian";
note = uni140A;
unicode = 5130;
},
{
glyphname = "ai-canadian";
lastChange = "2023-01-13 15:56:50 +0000";
layers = (
{
layerId = "ABE41ABD-D787-4F86-A3B4-502CADE9F2A5";
shapes = (
{
closed = 1;
nodes = (
(245,339,o),
(282,363,o),
(308,410,c),
(282,410,l),
(292,363,o),
(326,339,o),
(379,339,cs),
(457,339,o),
(500,382,o),
(519,470,cs),
(565,690,l),
(477,690,l),
(431,471,ls),
(423,438,o),
(408,422,o),
(382,422,cs),
(354,422,o),
(342,439,o),
(350,472,cs),
(395,690,l),
(308,690,l),
(262,472,ls),
(255,438,o),
(239,422,o),
(213,422,cs),
(186,422,o),
(173,440,o),
(180,471,cs),
(226,690,l),
(138,690,l),
(91,468,ls),
(75,394,o),
(117,339,o),
(194,339,cs)
);
}
);
width = 514;
}
);
metricRight = "=|";
note = uni141C;
unicode = 5148;
},
{
glyphname = "ycreew-canadian";
lastChange = "2023-01-13 15:56:53 +0000";
layers = (
{
layerId = "ABE41ABD-D787-4F86-A3B4-502CADE9F2A5";
shapes = (
{
closed = 1;
nodes = (
(362,510,o),
(392,546,o),
(392,604,cs),
(392,662,o),
(361,696,o),
(319,696,cs),
(276,696,o),
(246,662,o),
(246,604,cs),
(246,546,o),
(275,510,o),
(319,510,cs)
);
},
{
closed = 1;
nodes = (
(202,339,o),
(232,375,o),
(232,433,cs),
(232,491,o),
(201,525,o),
(158,525,cs),
(116,525,o),
(85,491,o),
(85,433,cs),
(85,375,o),
(115,339,o),
(158,339,cs)
);
},
{
closed = 1;
nodes = (
(142,384,o),
(132,399,o),
(132,433,cs),
(132,466,o),
(142,479,o),
(158,479,cs),
(175,479,o),
(185,466,o),
(185,433,cs),
(185,399,o),
(175,384,o),
(158,384,cs)
);
},
{
closed = 1;
nodes = (
(303,555,o),
(293,570,o),
(293,604,cs),
(293,637,o),
(303,650,o),
(319,650,cs),
(335,650,o),
(346,637,o),
(346,604,cs),
(346,570,o),
(335,555,o),
(319,555,cs)
);
}
);
width = 361;
}
);
metricRight = "=|";
note = uni141D;
unicode = 5149;
},
{
glyphname = "glottalstop-canadian";
lastChange = "2023-01-13 15:56:53 +0000";
layers = (
{
layerId = "ABE41ABD-D787-4F86-A3B4-502CADE9F2A5";
shapes = (
{
closed = 1;
nodes = (
(346,345,l),
(351,363,l),
(285,690,l),
(265,690,l),
(61,363,l),
(57,345,l)
);
},
{
closed = 1;
nodes = (
(279,595,l),
(238,596,l),
(273,387,l),
(291,413,l),
(147,413,l),
(156,387,l)
);
}
);
width = 362;
}
);
metricRight = "=|";
note = uni141E;
unicode = 5150;
},
{
glyphname = "pe-canadian";
kernLeft = ecanleft;
kernRight = ecanright;
lastChange = "2023-01-13 15:56:50 +0000";
layers = (
{
anchors = (
{
name = middle_center_can;
pos = (345,454);
},
{
name = top_center_can;
pos = (402,690);
},
{
name = top_left_can;
pos = (213,690);
},
{
name = top_right_can;
pos = (592,690);
}
);
layerId = "ABE41ABD-D787-4F86-A3B4-502CADE9F2A5";
shapes = (
{
closed = 1;
nodes = (
(275,0,l),
(684,655,l),
(691,690,l),
(553,690,l),
(235,167,l),
(331,167,l),
(236,690,l),
(113,690,l),
(106,655,l),
(235,0,l)
);
}
);
width = 615;
}
);
metricLeft = "e-canadian";
metricRight = "e-canadian";
note = uni142F;
unicode = 5167;
},
{
glyphname = "pi-canadian";
kernLeft = icanleft;
kernRight = icanright;
lastChange = "2023-01-13 15:56:53 +0000";
layers = (
{
anchors = (
{
name = middle_center_can;
pos = (325,291);
},
{
name = top_center_can;
pos = (402,690);
},
{
name = top_left_can;
pos = (212,690);
},
{
name = top_right_can;
pos = (591,690);
}
);
layerId = "ABE41ABD-D787-4F86-A3B4-502CADE9F2A5";
shapes = (
{
closed = 1;
nodes = (
(382,690,l),
(-27,35,l),
(-34,0,l),
(104,0,l),
(422,523,l),
(326,523,l),
(420,0,l),
(543,0,l),
(551,35,l),
(422,690,l)
);
}
);
width = 614;
}
);
metricLeft = "e-canadian";
metricRight = "e-canadian";
note = uni1431;
unicode = 5169;
},
{
glyphname = "po-canadian";
kernLeft = ocanleft;
kernRight = ocanright;
lastChange = "2023-01-13 15:56:50 +0000";
layers = (
{
anchors = (
{
name = middle_center_can;
pos = (170,360);
},
{
name = top_center_can;
pos = (371,690);
},
{
name = top_double;
pos = (480,690);
},
{
name = top_left_can;
pos = (190,690);
},
{
name = top_right_can;
pos = (566,690);
}
);
layerId = "ABE41ABD-D787-4F86-A3B4-502CADE9F2A5";
name = "Thin Slanted";
shapes = (
{
closed = 1;
nodes = (
(16,0,l),
(544,323,l),
(554,367,l),
(163,690,l),
(129,690,l),
(103,568,l),
(396,327,l),
(409,389,l),
(14,149,l),
(-17,0,l)
);
}
);
width = 554;
}
);
metricRight = "o-canadian";
note = uni1433;
unicode = 5171;
},
{
glyphname = "pa-canadian";
kernLeft = acanleft;
kernRight = acanright;
lastChange = "2023-01-13 15:56:53 +0000";
layers = (
{
anchors = (
{
name = middle_center_can;
pos = (378,345);
},
{
name = top_center_can;
pos = (376,690);
},
{
name = top_left_can;
pos = (189,690);
},
{
name = top_right_can;
pos = (554,690);
}
);
layerId = "ABE41ABD-D787-4F86-A3B4-502CADE9F2A5";
shapes = (
{
closed = 1;
nodes = (
(580,690,l),
(52,367,l),
(43,323,l),
(433,0,l),
(467,0,l),
(493,122,l),
(200,363,l),
(188,300,l),
(582,541,l),
(612,690,l)
);
}
);
width = 553;
}
);
metricRight = "=|po-canadian";
note = uni1438;
unicode = 5176;
},
{
glyphname = "p-canadian";
kernLeft = mwestleft;
kernRight = mwestright;
lastChange = "2023-01-13 15:56:50 +0000";
layers = (
{
layerId = "ABE41ABD-D787-4F86-A3B4-502CADE9F2A5";
shapes = (
{
closed = 1;
nodes = (
(306,345,l),
(324,426,l),
(182,545,l),
(166,474,l),
(358,592,l),
(380,690,l),
(363,690,l),
(103,529,l),
(99,506,l),
(290,345,l)
);
}
);
width = 328;
}
);
note = uni1449;
unicode = 5193;
},
{
glyphname = "pWestCree-canadian";
kernLeft = mwestleft;
kernRight = mwestright;
lastChange = "2023-01-13 15:56:53 +0000";
layers = (
{
layerId = "ABE41ABD-D787-4F86-A3B4-502CADE9F2A5";
shapes = (
{
closed = 1;
nodes = (
(159,345,l),
(233,690,l),
(138,690,l),
(65,345,l)
);
}
);
width = 181;
}
);
metricRight = "=|";
note = uni144A;
unicode = 5194;
},
{
color = 6;
glyphname = "hCarrier-canadian";
lastChange = "2023-01-13 15:56:50 +0000";
layers = (
{
layerId = "ABE41ABD-D787-4F86-A3B4-502CADE9F2A5";
shapes = (
{
closed = 1;
nodes = (
(124,183,l),
(150,306,ls),
(156,338,o),
(171,353,o),
(191,353,cs),
(216,353,o),
(226,335,o),
(219,306,cs),
(193,183,l),
(287,183,l),
(317,322,ls),
(330,387,o),
(296,437,o),
(230,437,cs),
(191,437,o),
(156,414,o),
(146,382,c),
(163,366,l),
(197,527,l),
(103,527,l),
(30,183,l)
);
}
);
width = 329;
}
);
metricLeft = "pWestCree-canadian";
note = uni144B;
unicode = 5195;
},
{
glyphname = "te-canadian";
lastChange = "2023-01-13 15:56:50 +0000";
layers = (
{
anchors = (
{
name = middle_center_can;
pos = (330,345);
},
{
name = top_center_can;
pos = (404,690);
},
{
name = top_left_can;
pos = (214,690);
},
{
name = top_right_can;
pos = (594,690);
}
);
layerId = "ABE41ABD-D787-4F86-A3B4-502CADE9F2A5";
shapes = (
{
closed = 1;
nodes = (
(442,-14,o),
(533,71,o),
(570,242,cs),
(665,690,l),
(523,690,l),
(430,253,ls),
(410,157,o),
(367,117,o),
(296,117,cs),
(209,117,o),
(175,169,o),
(196,269,cs),
(286,690,l),
(143,690,l),
(57,282,ls),
(17,98,o),
(107,-14,o),
(285,-14,cs)
);
}
);
width = 619;
}
);
metricRight = "=|";
note = uni144C;
unicode = 5196;
},
{
glyphname = "ti-canadian";
lastChange = "2023-01-13 15:56:50 +0000";
layers = (
{
anchors = (
{
name = middle_center_can;
pos = (330,345);
},
{
name = middle_right_can;
pos = (713,345);
},
{
name = top_center_can;
pos = (404,690);
},
{
name = top_left_can;
pos = (214,690);
},
{
name = top_right_can;
pos = (594,690);
}
);
layerId = "ABE41ABD-D787-4F86-A3B4-502CADE9F2A5";
shapes = (
{
closed = 1;
nodes = (
(139,0,l),
(232,437,ls),
(252,532,o),
(295,573,o),
(366,573,cs),
(453,573,o),
(486,521,o),
(465,421,cs),
(376,0,l),
(518,0,l),
(605,408,ls),
(644,592,o),
(554,703,o),
(377,703,cs),
(219,703,o),
(128,619,o),
(92,448,cs),
(-4,0,l)
);
}
);
width = 618;
}
);
metricLeft = "te-canadian";
metricRight = "te-canadian";
note = uni144E;
unicode = 5198;
},
{
glyphname = "to-canadian";
kernLeft = toleft;
lastChange = "2023-01-13 15:56:50 +0000";
layers = (
{
anchors = (
{
name = middle_center_can;
pos = (210,345);
},
{
name = middle_right_can;
pos = (621,345);
},
{
name = top_center_can;
pos = (331,690);
},
{
name = top_double;
pos = (404,690);
},
{
name = top_left_can;
pos = (193,690);
},
{
name = top_right_can;
pos = (513,690);
}
);
layerId = "ABE41ABD-D787-4F86-A3B4-502CADE9F2A5";
shapes = (
{
closed = 1;
nodes = (
(117,0,ls),
(436,0,o),
(505,265,o),
(505,420,cs),
(505,588,o),
(404,690,o),
(223,690,cs),
(131,690,l),
(104,560,l),
(199,560,ls),
(307,560,o),
(362,508,o),
(362,409,cs),
(362,309,o),
(321,129,o),
(125,129,cs),
(13,129,l),
(-14,0,l)
);
}
);
width = 522;
}
);
note = uni1450;
unicode = 5200;
},
{
glyphname = "ta-canadian";
kernRight = taright;
lastChange = "2023-01-13 15:56:53 +0000";
layers = (
{
anchors = (
{
name = middle_center_can;
pos = (356,345);
},
{
name = top_center_can;
pos = (382,690);
},
{
name = top_left_can;
pos = (199,690);
},
{
name = top_right_can;
pos = (519,690);
}
);
layerId = "ABE41ABD-D787-4F86-A3B4-502CADE9F2A5";
shapes = (
{
closed = 1;
nodes = (
(433,0,l),
(460,129,l),
(365,129,ls),
(257,129,o),
(203,182,o),
(203,281,cs),
(203,393,o),
(256,560,o),
(440,560,cs),
(553,560,l),
(580,690,l),
(446,690,ls),
(139,690,o),
(60,436,o),
(60,270,cs),
(60,101,o),
(160,0,o),
(340,0,cs)
);
}
);
width = 522;
}
);
metricLeft = "=|to-canadian";
metricRight = "=|to-canadian";
note = uni1455;
unicode = 5205;
},
{
glyphname = "t-canadian";
kernLeft = mwestleft;
kernRight = mwestright;
lastChange = "2023-01-13 15:56:50 +0000";
layers = (
{
layerId = "ABE41ABD-D787-4F86-A3B4-502CADE9F2A5";
shapes = (
{
closed = 1;
nodes = (
(282,345,l),
(301,434,l),
(254,434,ls),
(213,434,o),
(189,456,o),
(189,494,cs),
(189,542,o),
(213,601,o),
(291,601,cs),
(337,601,l),
(355,690,l),
(302,690,ls),
(159,690,o),
(95,589,o),
(95,481,cs),
(95,394,o),
(151,345,o),
(240,345,cs)
);
}
);
width = 304;
}
);
note = uni1466;
unicode = 5222;
},
{
glyphname = "ke-canadian";
lastChange = "2023-01-13 15:56:50 +0000";
layers = (
{
anchors = (
{
name = middle_center_can;
pos = (298,441);
},
{
name = top_center_can;
pos = (345,690);
},
{
name = top_left_can;
pos = (203,690);
},
{
name = top_right_can;
pos = (484,692);
}
);
layerId = "ABE41ABD-D787-4F86-A3B4-502CADE9F2A5";
shapes = (
{
closed = 1;
nodes = (
(411,0,l),
(499,421,ls),
(529,559,o),
(493,703,o),
(328,703,cs),
(145,703,o),
(75,515,o),
(75,375,cs),
(75,258,o),
(133,186,o),
(230,186,cs),
(277,186,o),
(317,210,o),
(343,258,c),
(325,266,l),
(269,0,l)
);
},
{
closed = 1;
nodes = (
(234,307,o),
(213,332,o),
(213,382,cs),
(213,434,o),
(239,583,o),
(315,583,cs),
(353,583,o),
(373,558,o),
(373,508,cs),
(373,457,o),
(348,307,o),
(271,307,cs)
);
}
);
width = 511;
}
);
metricRight = "te-canadian";
note = uni146B;
unicode = 5227;
},
{
glyphname = "ki-canadian";
lastChange = "2023-01-13 15:56:50 +0000";
layers = (
{
anchors = (
{
name = middle_center_can;
pos = (307,441);
},
{
name = top_center_can;
pos = (355,690);
},
{
name = top_left_can;
pos = (214,690);
},
{
name = top_right_can;
pos = (498,690);
}
);
layerId = "ABE41ABD-D787-4F86-A3B4-502CADE9F2A5";
shapes = (
{
closed = 1;
nodes = (
(139,0,l),
(199,284,l),
(181,261,l),
(181,219,o),
(225,186,o),
(287,186,cs),
(452,186,o),
(521,382,o),
(521,507,cs),
(521,631,o),
(452,703,o),
(337,703,cs),
(213,703,o),
(128,620,o),
(96,466,cs),
(-4,0,l)
);
},
{
closed = 1;
nodes = (
(244,307,o),
(224,332,o),
(224,382,cs),
(224,433,o),
(253,583,o),
(327,583,cs),
(363,583,o),
(384,558,o),
(384,509,cs),
(384,457,o),
(358,307,o),
(282,307,cs)
);
}
);
width = 511;
}
);
metricLeft = "te-canadian";
metricRight = "=|ke-canadian";
note = uni146D;
unicode = 5229;
},
{
glyphname = "ko-canadian";
lastChange = "2023-01-13 15:56:53 +0000";
layers = (
{
anchors = (
{
name = middle_center_can;
pos = (267,298);
},
{
name = top_center_can;
pos = (346,690);
},
{
name = top_double;
pos = (487,690);
},
{
name = top_left_can;
pos = (203,690);
},
{
name = top_right_can;
pos = (487,690);
}
);
layerId = "ABE41ABD-D787-4F86-A3B4-502CADE9F2A5";
shapes = (
{
closed = 1;
nodes = (
(342,-14,o),
(425,70,o),
(458,224,cs),
(557,690,l),
(414,690,l),
(354,406,l),
(373,429,l),
(373,470,o),
(328,503,o),
(267,503,cs),
(101,503,o),
(33,307,o),
(33,183,cs),
(33,59,o),
(101,-14,o),
(217,-14,cs)
);
},
{
closed = 1;
nodes = (
(190,106,o),
(170,130,o),
(170,181,cs),
(170,232,o),
(199,382,o),
(271,382,cs),
(308,382,o),
(329,357,o),
(329,308,cs),
(329,255,o),
(304,106,o),
(228,106,cs)
);
}
);
width = 510;
}
);
metricLeft = "ke-canadian";
metricRight = "te-canadian";
note = uni146F;
unicode = 5231;
},
{
glyphname = "ka-canadian";
lastChange = "2023-01-13 15:56:53 +0000";
layers = (
{
anchors = (
{
name = middle_center_can;
pos = (277,302);
},
{
name = top_center_can;
pos = (355,690);
},
{
name = top_left_can;
pos = (214,690);
},
{
name = top_right_can;
pos = (497,690);
}
);
layerId = "ABE41ABD-D787-4F86-A3B4-502CADE9F2A5";
shapes = (
{
closed = 1;
nodes = (
(409,-14,o),
(478,175,o),
(478,315,cs),
(478,432,o),
(420,503,o),
(324,503,cs),
(277,503,o),
(238,480,o),
(212,432,c),
(229,424,l),
(286,690,l),
(143,690,l),
(54,270,ls),
(16,95,o),
(87,-14,o),
(227,-14,cs)
);
},
{
closed = 1;
nodes = (
(202,106,o),
(182,131,o),
(182,182,cs),
(182,233,o),
(206,383,o),
(283,383,cs),
(320,383,o),
(340,357,o),
(340,308,cs),
(340,257,o),
(316,106,o),
(239,106,cs)
);
}
);
width = 510;
}
);
metricLeft = "te-canadian";
metricRight = "==|ke-canadian";
note = uni1472;
unicode = 5234;
},
{
glyphname = "k-canadian";
kernLeft = mwestleft;
kernRight = mwestright;
lastChange = "2023-01-13 15:56:50 +0000";
layers = (
{
layerId = "ABE41ABD-D787-4F86-A3B4-502CADE9F2A5";
shapes = (
{
closed = 1;
nodes = (
(297,339,o),
(334,441,o),
(334,506,cs),
(334,564,o),
(303,601,o),
(253,601,cs),
(217,601,o),
(191,581,o),
(178,549,c),
(203,550,l),
(233,690,l),
(138,690,l),
(94,484,ls),
(79,415,o),
(99,339,o),
(195,339,cs)
);
},
{
closed = 1;
nodes = (
(185,409,o),
(176,420,o),
(176,442,cs),
(176,469,o),
(191,532,o),
(223,532,cs),
(240,532,o),
(248,520,o),
(248,498,cs),
(248,470,o),
(233,409,o),
(201,409,cs)
);
}
);
width = 317;
}
);
note = uni1483;
unicode = 5251;
},
{
glyphname = "kw-canadian";
kernLeft = mwestleft;
kernRight = mwestright;
lastChange = "2023-01-13 15:56:53 +0000";
layers = (
{
layerId = "ABE41ABD-D787-4F86-A3B4-502CADE9F2A5";
shapes = (
{
closed = 1;
nodes = (
(255,338,o),
(301,381,o),
(321,470,cs),
(366,690,l),
(272,690,l),
(241,543,l),
(260,544,l),
(263,576,o),
(237,601,o),
(199,601,cs),
(117,601,o),
(80,505,o),
(80,444,cs),
(80,380,o),
(119,338,o),
(185,338,cs)
);
},
{
closed = 1;
nodes = (
(172,408,o),
(162,420,o),
(162,441,cs),
(162,469,o),
(178,531,o),
(210,531,cs),
(226,531,o),
(236,520,o),
(236,497,cs),
(236,471,o),
(220,408,o),
(188,408,cs)
);
}
);
width = 316;
}
);
metricLeft = "=|k-canadian";
metricRight = "=|k-canadian";
note = uni1484;
unicode = 5252;
},
{
glyphname = "ce-canadian";
kernLeft = celeft;
lastChange = "2023-01-13 15:56:50 +0000";
layers = (
{
anchors = (
{
name = middle_center_can;
pos = (276,371);
},
{
name = top_center_can;
pos = (342,690);
},
{
name = top_left_can;
pos = (202,690);
},
{
name = top_right_can;
pos = (478,690);
}
);
layerId = "ABE41ABD-D787-4F86-A3B4-502CADE9F2A5";
shapes = (
{
closed = 1;
nodes = (
(402,0,l),
(498,453,ls),
(531,609,o),
(461,703,o),
(324,703,cs),
(193,703,o),
(118,629,o),
(84,472,cs),
(65,382,l),
(206,382,l),
(228,487,ls),
(242,552,o),
(268,580,o),
(307,580,cs),
(355,580,o),
(376,546,o),
(362,481,cs),
(260,0,l)
);
}
);
width = 502;
}
);
metricRight = "te-canadian";
note = uni1489;
unicode = 5257;
},
{
glyphname = "ci-canadian";
kernRight = ciright;
lastChange = "2023-01-13 15:56:53 +0000";
layers = (
{
anchors = (
{
name = middle_center_can;
pos = (288,371);
},
{
name = top_center_can;
pos = (355,690);
},
{
name = top_left_can;
pos = (214,690);
},
{
name = top_right_can;
pos = (494,690);
}
);
layerId = "ABE41ABD-D787-4F86-A3B4-502CADE9F2A5";
shapes = (
{
closed = 1;
nodes = (
(139,0,l),
(242,487,ls),
(256,552,o),
(280,580,o),
(322,580,cs),
(370,580,o),
(389,546,o),
(376,481,cs),
(355,382,l),
(496,382,l),
(511,453,ls),
(544,609,o),
(473,703,o),
(336,703,cs),
(206,703,o),
(130,629,o),
(97,472,cs),
(-4,0,l)
);
}
);
width = 503;
}
);
metricLeft = "te-canadian";
metricRight = "=|ce-canadian";
note = uni148B;
unicode = 5259;
},
{
glyphname = "co-canadian";
kernLeft = coleft;
lastChange = "2023-01-13 15:56:50 +0000";
layers = (
{
anchors = (
{
name = middle_center_can;
pos = (277,371);
},
{
name = top_center_can;
pos = (341,690);
},
{
name = top_double;
pos = (478,690);
},
{
name = top_left_can;
pos = (202,690);
},
{
name = top_right_can;
pos = (478,690);
}
);
layerId = "ABE41ABD-D787-4F86-A3B4-502CADE9F2A5";
shapes = (
{
closed = 1;
nodes = (
(340,-14,o),
(415,61,o),
(448,217,cs),
(549,690,l),
(407,690,l),
(303,203,ls),
(290,138,o),
(265,110,o),
(224,110,cs),
(176,110,o),
(156,144,o),
(169,209,cs),
(190,308,l),
(49,308,l),
(35,237,ls),
(1,81,o),
(72,-14,o),
(209,-14,cs)
);
}
);
width = 502;
}
);
metricLeft = "ce-canadian";
metricRight = "te-canadian";
note = uni148D;
unicode = 5261;
},
{
glyphname = "ca-canadian";
kernRight = caright;
lastChange = "2023-01-13 15:56:53 +0000";
layers = (
{
anchors = (
{
name = middle_center_can;
pos = (289,371);
},
{
name = top_center_can;
pos = (355,690);
},
{
name = top_left_can;
pos = (215,690);
},
{
name = top_right_can;
pos = (492,690);
}
);
layerId = "ABE41ABD-D787-4F86-A3B4-502CADE9F2A5";
shapes = (
{
closed = 1;
nodes = (
(353,-14,o),
(427,61,o),
(461,217,cs),
(480,308,l),
(339,308,l),
(317,203,ls),
(303,138,o),
(278,110,o),
(238,110,cs),
(190,110,o),
(170,144,o),
(184,209,cs),
(286,690,l),
(143,690,l),
(47,237,ls),
(14,81,o),
(85,-14,o),
(221,-14,cs)
);
}
);
width = 503;
}
);
metricLeft = "te-canadian";
metricRight = "=|ce-canadian";
note = uni1490;
unicode = 5264;
},
{
glyphname = "c-canadian";
kernLeft = mwestleft;
kernRight = mwestright;
lastChange = "2023-01-13 15:56:50 +0000";
layers = (
{
layerId = "ABE41ABD-D787-4F86-A3B4-502CADE9F2A5";
shapes = (
{
closed = 1;
nodes = (
(268,339,o),
(314,381,o),
(329,458,cs),
(336,490,l),
(249,490,l),
(241,449,ls),
(236,426,o),
(223,412,o),
(205,412,cs),
(185,412,o),
(177,429,o),
(182,453,cs),
(233,690,l),
(138,690,l),
(94,479,ls),
(75,394,o),
(114,339,o),
(199,339,cs)
);
}
);
width = 308;
}
);
note = uni14A1;
unicode = 5281;
},
{
glyphname = "thSayisi-canadian";
lastChange = "2023-01-13 15:56:50 +0000";
layers = (
{
layerId = "ABE41ABD-D787-4F86-A3B4-502CADE9F2A5";
shapes = (
{
closed = 1;
nodes = (
(249,339,o),
(294,381,o),
(311,458,cs),
(360,690,l),
(266,690,l),
(215,451,ls),
(210,424,o),
(196,412,o),
(179,412,cs),
(157,412,o),
(151,429,o),
(156,453,cs),
(164,490,l),
(77,490,l),
(72,470,ls),
(57,394,o),
(95,339,o),
(178,339,cs)
);
}
);
width = 309;
}
);
metricLeft = "=|c-canadian";
metricRight = "=|c-canadian";
note = uni14A2;
unicode = 5282;
},
{
glyphname = "me-canadian";
kernLeft = meleft;
lastChange = "2023-01-13 15:56:50 +0000";
layers = (
{
anchors = (
{
name = middle_center_can;
pos = (176,345);
},
{
name = top_center_can;
pos = (323,690);
},
{
name = top_left_can;
pos = (196,690);
},
{
name = top_right_can;
pos = (441,690);
}
);
layerId = "ABE41ABD-D787-4F86-A3B4-502CADE9F2A5";
shapes = (
{
closed = 1;
nodes = (
(366,0,l),
(513,690,l),
(126,690,l),
(98,560,l),
(342,560,l),
(223,0,l)
);
}
);
width = 469;
}
);
metricRight = "nunavuth-canadian";
note = uni14A3;
unicode = 5283;
},
{
glyphname = "mi-canadian";
kernRight = miright;
lastChange = "2023-01-13 15:56:50 +0000";
layers = (
{
anchors = (
{
name = middle_center_can;
pos = (338,345);
},
{
name = top_center_can;
pos = (340,690);
},
{
name = top_left_can;
pos = (217,690);
},
{
name = top_right_can;
pos = (463,690);
}
);
layerId = "ABE41ABD-D787-4F86-A3B4-502CADE9F2A5";
shapes = (
{
closed = 1;
nodes = (
(141,0,l),
(261,560,l),
(505,560,l),
(533,690,l),
(146,690,l),
(-1,0,l)
);
}
);
width = 469;
}
);
metricLeft = "nunavuth-canadian";
metricRight = "=|me-canadian";
note = uni14A5;
unicode = 5285;
},
{
glyphname = "mo-canadian";
kernLeft = moleft;
lastChange = "2023-01-13 15:56:50 +0000";
layers = (
{
anchors = (
{
name = middle_center_can;
pos = (175,345);
},
{
name = top_center_can;
pos = (323,690);
},
{
name = top_double;
pos = (441,690);
},
{
name = top_left_can;
pos = (196,690);
},
{
name = top_right_can;
pos = (441,690);
}
);
layerId = "ABE41ABD-D787-4F86-A3B4-502CADE9F2A5";
shapes = (
{
closed = 1;
nodes = (
(366,0,l),
(513,690,l),
(370,690,l),
(251,129,l),
(6,129,l),
(-21,0,l)
);
}
);
width = 469;
}
);
metricLeft = "me-canadian";
metricRight = "nunavuth-canadian";
note = uni14A7;
unicode = 5287;
},
{
glyphname = "ma-canadian";
kernRight = maright;
lastChange = "2023-01-13 15:56:50 +0000";
layers = (
{
anchors = (
{
name = middle_center_can;
pos = (338,345);
},
{
name = top_center_can;
pos = (340,690);
},
{
name = top_left_can;
pos = (217,690);
},
{
name = top_right_can;
pos = (462,690);
}
);
layerId = "ABE41ABD-D787-4F86-A3B4-502CADE9F2A5";
shapes = (
{
closed = 1;
nodes = (
(386,0,l),
(413,129,l),
(169,129,l),
(288,690,l),
(146,690,l),
(-1,0,l)
);
}
);
width = 469;
}
);
metricLeft = "nunavuth-canadian";
metricRight = "=|me-canadian";
note = uni14AA;
unicode = 5290;
},
{
glyphname = "m-canadian";
kernLeft = mwestleft;
kernRight = mwestright;
lastChange = "2023-01-13 15:56:50 +0000";
layers = (
{
layerId = "ABE41ABD-D787-4F86-A3B4-502CADE9F2A5";
shapes = (
{
closed = 1;
nodes = (
(277,345,l),
(297,434,l),
(178,434,l),
(233,690,l),
(138,690,l),
(65,345,l)
);
}
);
width = 284;
}
);
metricLeft = "pWestCree-canadian";
note = uni14BB;
unicode = 5307;
},
{
glyphname = "mh-canadian";
kernLeft = mwestleft;
kernRight = mwestright;
lastChange = "2023-01-13 15:56:53 +0000";
layers = (
{
layerId = "ABE41ABD-D787-4F86-A3B4-502CADE9F2A5";
shapes = (
{
closed = 1;
nodes = (
(262,345,l),
(335,690,l),
(241,690,l),
(186,434,l),
(68,434,l),
(48,345,l)
);
}
);
width = 284;
}
);
metricLeft = "=|m-canadian";
metricRight = "=|m-canadian";
note = uni14BD;
unicode = 5309;
},
{
glyphname = "mAthapascan-canadian";
lastChange = "2023-01-13 15:56:50 +0000";
layers = (
{
layerId = "ABE41ABD-D787-4F86-A3B4-502CADE9F2A5";
shapes = (
{
closed = 1;
nodes = (
(285,345,l),
(301,424,l),
(174,424,l),
(170,384,l),
(269,483,ls),
(304,518,o),
(332,558,o),
(332,606,cs),
(332,659,o),
(296,696,o),
(234,696,cs),
(164,696,o),
(120,656,o),
(103,570,c),
(186,570,l),
(194,611,o),
(208,629,o),
(226,629,cs),
(242,629,o),
(250,619,o),
(250,603,cs),
(250,572,o),
(223,538,o),
(193,509,cs),
(78,395,l),
(68,345,l)
);
}
);
width = 298;
}
);
note = uni14BE;
unicode = 5310;
},
{
glyphname = "ne-canadian";
kernLeft = neleft;
lastChange = "2023-01-13 15:56:53 +0000";
layers = (
{
anchors = (
{
name = middle_center_can;
pos = (430,245);
},
{
name = top_center_can;
pos = (470,508);
},
{
name = top_left_can;
pos = (164,508);
},
{
name = top_right_can;
pos = (632,508);
}
);
layerId = "ABE41ABD-D787-4F86-A3B4-502CADE9F2A5";
shapes = (
{
closed = 1;
nodes = (
(576,-14,o),
(648,169,o),
(648,290,cs),
(648,411,o),
(575,489,o),
(451,489,cs),
(89,489,l),
(62,361,l),
(303,361,l),
(302,410,l),
(235,360,o),
(211,254,o),
(211,183,cs),
(211,61,o),
(284,-14,o),
(402,-14,cs)
);
},
{
closed = 1;
nodes = (
(369,106,o),
(348,134,o),
(348,185,cs),
(348,237,o),
(373,369,o),
(449,369,cs),
(489,369,o),
(510,341,o),
(510,291,cs),
(510,239,o),
(485,106,o),
(409,106,cs)
);
}
);
width = 683;
}
);
metricRight = "=|ke-canadian";
note = uni14C0;
unicode = 5312;
},
{
glyphname = "ni-canadian";
kernRight = niright;
lastChange = "2023-01-13 15:56:53 +0000";
layers = (
{
anchors = (
{
name = middle_center_can;
pos = (252,245);
},
{
name = top_center_can;
pos = (327,508);
},
{
name = top_left_can;
pos = (162,508);
},
{
name = top_right_can;
pos = (631,508);
}
);
layerId = "ABE41ABD-D787-4F86-A3B4-502CADE9F2A5";
shapes = (
{
closed = 1;
nodes = (
(398,-14,o),
(469,169,o),
(469,292,cs),
(469,330,o),
(461,359,o),
(443,382,c),
(429,361,l),
(670,361,l),
(698,489,l),
(288,489,ls),
(103,489,o),
(32,307,o),
(32,185,cs),
(32,61,o),
(106,-14,o),
(223,-14,cs)
);
},
{
closed = 1;
nodes = (
(191,106,o),
(169,134,o),
(169,185,cs),
(169,237,o),
(195,369,o),
(271,369,cs),
(311,369,o),
(332,341,o),
(332,291,cs),
(332,239,o),
(307,106,o),
(231,106,cs)
);
}
);
width = 683;
}
);
metricLeft = "ke-canadian";
metricRight = "=|ne-canadian";
note = uni14C2;
unicode = 5314;
},
{
glyphname = "no-canadian";
kernLeft = noleft;
lastChange = "2023-01-13 15:56:53 +0000";
layers = (
{
anchors = (
{
name = middle_center_can;
pos = (429,245);
},
{
name = top_center_can;
pos = (485,508);
},
{
name = top_double;
pos = (487,508);
},
{
name = top_left_can;
pos = (164,508);
},
{
name = top_right_can;
pos = (633,508);
}
);
layerId = "ABE41ABD-D787-4F86-A3B4-502CADE9F2A5";
shapes = (
{
closed = 1;
nodes = (
(395,0,ls),
(580,0,o),
(651,183,o),
(651,303,cs),
(651,429,o),
(577,503,o),
(459,503,cs),
(285,503,o),
(213,321,o),
(213,197,cs),
(213,159,o),
(222,129,o),
(240,107,c),
(254,128,l),
(12,128,l),
(-15,0,l)
);
},
{
closed = 1;
nodes = (
(372,121,o),
(351,149,o),
(351,198,cs),
(351,250,o),
(376,383,o),
(452,383,cs),
(492,383,o),
(513,355,o),
(513,305,cs),
(513,253,o),
(487,121,o),
(412,121,cs)
);
}
);
width = 683;
}
);
metricLeft = "ne-canadian";
metricRight = "=|ke-canadian";
note = uni14C4;
unicode = 5316;
},
{
glyphname = "na-canadian";
kernRight = naright;
lastChange = "2023-01-13 15:56:53 +0000";
layers = (
{
anchors = (
{
name = middle_center_can;
pos = (254,245);
},
{
name = top_center_can;
pos = (309,508);
},
{
name = top_double;
pos = (465,508);
},
{
name = top_left_can;
pos = (162,508);
},
{
name = top_right_can;
pos = (631,508);
}
);
layerId = "ABE41ABD-D787-4F86-A3B4-502CADE9F2A5";
shapes = (
{
closed = 1;
nodes = (
(593,0,l),
(620,128,l),
(380,128,l),
(381,79,l),
(448,128,o),
(472,235,o),
(472,306,cs),
(472,428,o),
(399,503,o),
(281,503,cs),
(107,503,o),
(35,321,o),
(35,199,cs),
(35,78,o),
(108,0,o),
(232,0,cs)
);
},
{
closed = 1;
nodes = (
(194,121,o),
(172,149,o),
(172,198,cs),
(172,250,o),
(198,383,o),
(274,383,cs),
(314,383,o),
(335,355,o),
(335,305,cs),
(335,253,o),
(310,121,o),
(234,121,cs)
);
}
);
width = 682;
}
);
metricLeft = "ke-canadian";
metricRight = "=|ne-canadian";
note = uni14C7;
unicode = 5319;
},
{
glyphname = "n-canadian";
kernLeft = mwestleft;
kernRight = mwestright;
lastChange = "2023-01-13 15:56:53 +0000";
layers = (
{
layerId = "ABE41ABD-D787-4F86-A3B4-502CADE9F2A5";
shapes = (
{
closed = 1;
nodes = (
(405,434,l),
(424,524,l),
(292,524,l),
(288,472,l),
(322,496,o),
(340,552,o),
(340,591,cs),
(340,655,o),
(300,696,o),
(236,696,cs),
(148,696,o),
(101,614,o),
(101,541,cs),
(101,476,o),
(142,434,o),
(209,434,cs)
);
},
{
closed = 1;
nodes = (
(193,502,o),
(184,516,o),
(184,539,cs),
(184,568,o),
(197,627,o),
(231,627,cs),
(248,627,o),
(258,614,o),
(258,590,cs),
(258,561,o),
(244,502,o),
(210,502,cs)
);
}
);
width = 392;
}
);
metricLeft = "=|k-canadian";
note = uni14D0;
unicode = 5328;
},
{
glyphname = "nh-canadian";
kernLeft = mwestleft;
kernRight = mwestright;
lastChange = "2023-01-13 15:56:53 +0000";
layers = (
{
layerId = "ABE41ABD-D787-4F86-A3B4-502CADE9F2A5";
shapes = (
{
closed = 1;
nodes = (
(287,434,ls),
(381,434,o),
(427,513,o),
(427,591,cs),
(427,654,o),
(385,696,o),
(323,696,cs),
(234,696,o),
(187,614,o),
(187,541,cs),
(187,521,o),
(192,501,o),
(204,487,c),
(217,524,l),
(86,524,l),
(67,434,l)
);
},
{
closed = 1;
nodes = (
(279,502,o),
(269,516,o),
(269,539,cs),
(269,568,o),
(284,627,o),
(317,627,cs),
(335,627,o),
(345,614,o),
(345,590,cs),
(345,561,o),
(330,502,o),
(297,502,cs)
);
}
);
width = 392;
}
);
metricLeft = "=|n-canadian";
metricRight = "=|n-canadian";
note = uni14D2;
unicode = 5330;
},
{
glyphname = "le-canadian";
kernLeft = neleft;
lastChange = "2023-01-13 15:56:53 +0000";
layers = (
{
anchors = (
{
name = middle_center_can;
pos = (429,245);
},
{
name = top_center_can;
pos = (472,508);
},
{
name = top_left_can;
pos = (164,508);
},
{
name = top_right_can;
pos = (632,508);
}
);
layerId = "ABE41ABD-D787-4F86-A3B4-502CADE9F2A5";
shapes = (
{
closed = 1;
nodes = (
(341,0,ls),
(536,0,o),
(646,116,o),
(646,283,cs),
(646,409,o),
(564,489,o),
(429,489,cs),
(89,489,l),
(62,360,l),
(402,360,ls),
(469,360,o),
(505,327,o),
(505,270,cs),
(505,202,o),
(467,125,o),
(361,125,cs),
(339,125,l),
(312,0,l)
);
}
);
width = 683;
}
);
metricLeft = "ne-canadian";
metricRight = "=|ke-canadian";
note = uni14D3;
unicode = 5331;
},
{
glyphname = "li-canadian";
kernRight = niright;
lastChange = "2023-01-13 15:56:53 +0000";
layers = (
{
anchors = (
{
name = middle_center_can;
pos = (256,245);
},
{
name = top_center_can;
pos = (329,508);
},
{
name = top_left_can;
pos = (165,508);
},
{
name = top_right_can;
pos = (632,508);
}
);
layerId = "ABE41ABD-D787-4F86-A3B4-502CADE9F2A5";
shapes = (
{
closed = 1;
nodes = (
(269,0,l),
(295,125,l),
(271,125,ls),
(214,125,o),
(180,159,o),
(180,216,cs),
(180,282,o),
(217,360,o),
(323,360,cs),
(671,360,l),
(698,489,l),
(334,489,ls),
(147,489,o),
(38,374,o),
(38,213,cs),
(38,89,o),
(119,0,o),
(242,0,cs)
);
}
);
width = 683;
}
);
metricLeft = "ke-canadian";
metricRight = "=|ne-canadian";
note = uni14D5;
unicode = 5333;
},
{
glyphname = "lo-canadian";
kernLeft = noleft;
lastChange = "2023-01-13 15:56:53 +0000";
layers = (
{
anchors = (
{
name = middle_center_can;
pos = (428,245);
},
{
name = top_center_can;
pos = (484,508);
},
{
name = top_double;
pos = (456,508);
},
{
name = top_left_can;
pos = (164,508);
},
{
name = top_right_can;
pos = (632,508);
}
);
layerId = "ABE41ABD-D787-4F86-A3B4-502CADE9F2A5";
shapes = (
{
closed = 1;
nodes = (
(350,0,ls),
(536,0,o),
(645,115,o),
(645,277,cs),
(645,400,o),
(565,489,o),
(441,489,cs),
(415,489,l),
(389,364,l),
(412,364,ls),
(469,364,o),
(504,329,o),
(504,272,cs),
(504,207,o),
(467,128,o),
(361,128,cs),
(13,128,l),
(-15,0,l)
);
}
);
width = 683;
}
);
metricLeft = "ne-canadian";
metricRight = "=|ke-canadian";
note = uni14D7;
unicode = 5335;
},
{
glyphname = "la-canadian";
kernRight = naright;
lastChange = "2023-01-13 15:56:53 +0000";
layers = (
{
anchors = (
{
name = middle_center_can;
pos = (255,245);
},
{
name = top_center_can;
pos = (310,508);
},
{
name = top_left_can;
pos = (163,508);
},
{
name = top_right_can;
pos = (631,508);
}
);
layerId = "ABE41ABD-D787-4F86-A3B4-502CADE9F2A5";
shapes = (
{
closed = 1;
nodes = (
(593,0,l),
(620,128,l),
(281,128,ls),
(213,128,o),
(178,161,o),
(178,218,cs),
(178,288,o),
(216,364,o),
(322,364,cs),
(344,364,l),
(370,489,l),
(341,489,ls),
(147,489,o),
(37,374,o),
(37,206,cs),
(37,81,o),
(118,0,o),
(254,0,cs)
);
}
);
width = 682;
}
);
metricLeft = "ke-canadian";
metricRight = "=|ne-canadian";
note = uni14DA;
unicode = 5338;
},
{
glyphname = "l-canadian";
kernLeft = mwestleft;
kernRight = mwestright;
lastChange = "2023-01-13 15:56:53 +0000";
layers = (
{
layerId = "ABE41ABD-D787-4F86-A3B4-502CADE9F2A5";
shapes = (
{
closed = 1;
nodes = (
(372,345,l),
(391,434,l),
(254,434,ls),
(213,434,o),
(189,456,o),
(189,495,cs),
(189,542,o),
(213,602,o),
(287,602,cs),
(296,602,l),
(315,690,l),
(300,690,ls),
(157,690,o),
(95,588,o),
(95,482,cs),
(95,394,o),
(152,345,o),
(247,345,cs)
);
}
);
width = 378;
}
);
metricLeft = "t-canadian";
metricRight = "m-canadian";
note = uni14EA;
unicode = 5354;
},
{
glyphname = "lWestCree-canadian";
kernLeft = mwestleft;
kernRight = mwestright;
lastChange = "2023-01-13 15:56:53 +0000";
layers = (
{
layerId = "ABE41ABD-D787-4F86-A3B4-502CADE9F2A5";
shapes = (
{
closed = 1;
nodes = (
(267,345,l),
(279,403,l),
(160,469,l),
(149,419,l),
(298,491,l),
(307,533,l),
(186,597,l),
(177,553,l),
(326,619,l),
(340,690,l),
(326,690,l),
(119,598,l),
(112,567,l),
(236,499,l),
(243,534,l),
(91,467,l),
(84,436,l),
(252,345,l)
);
}
);
width = 289;
}
);
metricRight = "=|";
note = uni14EB;
unicode = 5355;
},
{
glyphname = "mediall-canadian";
lastChange = "2023-01-13 15:56:53 +0000";
layers = (
{
layerId = "ABE41ABD-D787-4F86-A3B4-502CADE9F2A5";
shapes = (
{
closed = 1;
nodes = (
(414,-14,l),
(435,83,l),
(173,227,l),
(157,156,l),
(483,306,l),
(495,364,l),
(231,500,l),
(216,441,l),
(542,586,l),
(566,703,l),
(533,703,l),
(104,513,l),
(93,462,l),
(357,318,l),
(368,369,l),
(44,228,l),
(33,177,l),
(381,-14,l)
);
}
);
width = 517;
}
);
metricRight = "=|";
note = uni14EC;
unicode = 5356;
},
{
glyphname = "se-canadian";
kernRight = seright;
lastChange = "2023-01-13 15:56:50 +0000";
layers = (
{
anchors = (
{
name = top_left_can;
pos = (217,690);
},
{
name = top_right_can;
pos = (443,690);
}
);
layerId = "ABE41ABD-D787-4F86-A3B4-502CADE9F2A5";
shapes = (
{
closed = 1;
nodes = (
(368,0,l),
(444,359,l),
(414,359,ls),
(284,359,o),
(229,412,o),
(261,560,cs),
(288,690,l),
(146,690,l),
(119,563,ls),
(73,354,o),
(173,232,o),
(380,232,cs),
(395,232,l),
(284,275,l),
(225,0,l)
);
}
);
width = 472;
}
);
note = uni14ED;
unicode = 5357;
},
{
glyphname = "si-canadian";
kernLeft = sileft;
lastChange = "2023-01-13 15:56:50 +0000";
layers = (
{
anchors = (
{
name = top_left_can;
pos = (218,690);
},
{
name = top_right_can;
pos = (445,690);
}
);
layerId = "ABE41ABD-D787-4F86-A3B4-502CADE9F2A5";
shapes = (
{
closed = 1;
nodes = (
(143,0,l),
(202,277,l),
(83,232,l),
(118,232,ls),
(325,232,o),
(438,324,o),
(486,549,cs),
(516,690,l),
(373,690,l),
(345,558,ls),
(317,428,o),
(247,359,o),
(124,359,cs),
(76,359,l),
(0,0,l)
);
}
);
width = 472;
}
);
metricLeft = "=|se-canadian";
metricRight = "=|se-canadian";
note = uni14EF;
unicode = 5359;
},
{
glyphname = "so-canadian";
kernRight = soright;
lastChange = "2023-01-13 15:56:53 +0000";
layers = (
{
anchors = (
{
name = top_double;
pos = (444,690);
},
{
name = top_left_can;
pos = (217,690);
},
{
name = top_right_can;
pos = (443,690);
}
);
layerId = "ABE41ABD-D787-4F86-A3B4-502CADE9F2A5";
shapes = (
{
closed = 1;
nodes = (
(142,0,l),
(170,131,ls),
(198,262,o),
(269,330,o),
(391,330,cs),
(439,330,l),
(515,690,l),
(372,690,l),
(314,412,l),
(432,458,l),
(397,458,ls),
(190,458,o),
(77,366,o),
(29,141,cs),
(-1,0,l)
);
}
);
width = 473;
}
);
metricLeft = "se-canadian";
metricRight = "se-canadian";
note = uni14F1;
unicode = 5361;
},
{
glyphname = "sa-canadian";
kernLeft = saleft;
kernRight = saright;
lastChange = "2023-01-13 15:56:50 +0000";
layers = (
{
anchors = (
{
name = top_left_can;
pos = (218,690);
},
{
name = top_right_can;
pos = (444,690);
}
);
layerId = "ABE41ABD-D787-4F86-A3B4-502CADE9F2A5";
shapes = (
{
closed = 1;
nodes = (
(369,0,l),
(396,127,ls),
(440,336,o),
(342,458,o),
(134,458,cs),
(120,458,l),
(230,414,l),
(289,690,l),
(147,690,l),
(71,330,l),
(99,330,ls),
(230,330,o),
(285,277,o),
(253,129,cs),
(226,0,l)
);
}
);
width = 472;
}
);
metricLeft = "=|se-canadian";
metricRight = "=|se-canadian";
note = uni14F4;
unicode = 5364;
},
{
glyphname = "s-canadian";
kernLeft = mwestleft;
kernRight = mwestright;
lastChange = "2023-01-13 15:56:50 +0000";
layers = (
{
layerId = "ABE41ABD-D787-4F86-A3B4-502CADE9F2A5";
shapes = (
{
closed = 1;
nodes = (
(280,345,l),
(295,414,ls),
(316,518,o),
(270,584,o),
(171,584,cs),
(147,584,l),
(202,549,l),
(233,690,l),
(138,690,l),
(99,511,l),
(135,511,ls),
(195,511,o),
(214,480,o),
(200,413,cs),
(185,345,l)
);
}
);
width = 301;
}
);
metricRight = "=|";
note = uni1505;
unicode = 5381;
},
{
color = 6;
glyphname = "sAthapascan-canadian";
lastChange = "2023-01-13 15:56:53 +0000";
layers = (
{
layerId = "ABE41ABD-D787-4F86-A3B4-502CADE9F2A5";
shapes = (
{
closed = 1;
nodes = (
(248,177,o),
(297,223,o),
(297,288,cs),
(297,332,o),
(274,362,o),
(235,378,cs),
(197,392,ls),
(180,399,o),
(170,411,o),
(170,426,cs),
(170,450,o),
(185,465,o),
(210,465,cs),
(234,465,o),
(245,450,o),
(240,418,c),
(325,418,l),
(337,494,o),
(286,533,o),
(215,533,cs),
(131,533,o),
(85,487,o),
(85,417,cs),
(85,379,o),
(107,346,o),
(145,331,cs),
(183,317,ls),
(202,309,o),
(211,298,o),
(211,282,cs),
(211,260,o),
(196,245,o),
(172,245,cs),
(145,245,o),
(130,258,o),
(138,293,c),
(53,293,l),
(41,218,o),
(88,177,o),
(168,177,cs)
);
}
);
width = 333;
}
);
metricRight = "=|";
note = uni1506;
unicode = 5382;
},
{
glyphname = "sw-canadian";
kernLeft = mwestleft;
kernRight = mwestright;
lastChange = "2023-01-13 15:56:50 +0000";
layers = (
{
layerId = "ABE41ABD-D787-4F86-A3B4-502CADE9F2A5";
shapes = (
{
closed = 1;
nodes = (
(157,345,l),
(172,412,ls),
(186,482,o),
(219,511,o),
(285,511,cs),
(313,511,l),
(352,690,l),
(257,690,l),
(227,550,l),
(298,584,l),
(262,584,ls),
(163,584,o),
(101,528,o),
(79,419,cs),
(64,345,l)
);
}
);
width = 299;
}
);
metricLeft = "=|s-canadian";
metricRight = "=|s-canadian";
note = uni1507;
unicode = 5383;
},
{
glyphname = "sBlackfoot-canadian";
lastChange = "2023-01-13 15:56:53 +0000";
layers = (
{
layerId = "ABE41ABD-D787-4F86-A3B4-502CADE9F2A5";
shapes = (
{
closed = 1;
nodes = (
(286,345,l),
(305,434,l),
(233,434,ls),
(197,434,o),
(182,453,o),
(190,491,cs),
(233,690,l),
(138,690,l),
(99,500,ls),
(78,406,o),
(125,345,o),
(220,345,cs)
);
}
);
width = 292;
}
);
metricLeft = "ai-canadian";
metricRight = "m-canadian";
note = uni1508;
unicode = 5384;
},
{
glyphname = "moosecreesk-canadian";
kernLeft = mwestleft;
kernRight = mwestright;
lastChange = "2023-01-13 15:56:53 +0000";
layers = (
{
layerId = "ABE41ABD-D787-4F86-A3B4-502CADE9F2A5";
shapes = (
{
closed = 1;
nodes = (
(283,217,o),
(315,348,o),
(315,434,cs),
(315,529,o),
(267,585,o),
(176,585,cs),
(163,585,l),
(203,551,l),
(233,690,l),
(138,690,l),
(100,512,l),
(138,512,ls),
(212,512,o),
(230,491,o),
(229,429,c),
(247,425,l),
(243,448,o),
(224,476,o),
(183,476,cs),
(97,476,o),
(65,380,o),
(65,325,cs),
(65,260,o),
(104,217,o),
(171,217,cs)
);
},
{
closed = 1;
nodes = (
(156,285,o),
(148,298,o),
(148,320,cs),
(148,348,o),
(163,412,o),
(196,412,cs),
(213,412,o),
(223,399,o),
(223,377,cs),
(223,350,o),
(207,285,o),
(175,285,cs)
);
}
);
width = 326;
}
);
metricRight = "=|";
note = uni1509;
unicode = 5385;
},
{
glyphname = "skwNaskapi-canadian";
kernLeft = mwestleft;
kernRight = mwestright;
lastChange = "2023-01-13 15:56:53 +0000";
layers = (
{
layerId = "ABE41ABD-D787-4F86-A3B4-502CADE9F2A5";
shapes = (
{
closed = 1;
nodes = (
(264,217,o),
(307,306,o),
(307,380,cs),
(307,438,o),
(276,476,o),
(227,476,cs),
(193,476,o),
(166,458,o),
(157,429,c),
(177,431,l),
(199,491,o),
(228,512,o),
(302,512,cs),
(339,512,l),
(376,690,l),
(282,690,l),
(252,549,l),
(312,585,l),
(294,585,ls),
(123,585,o),
(68,429,o),
(68,329,cs),
(68,263,o),
(104,217,o),
(173,217,cs)
);
},
{
closed = 1;
nodes = (
(157,285,o),
(149,298,o),
(149,320,cs),
(149,348,o),
(164,412,o),
(197,412,cs),
(214,412,o),
(224,399,o),
(224,377,cs),
(224,350,o),
(208,285,o),
(176,285,cs)
);
}
);
width = 326;
}
);
metricLeft = "=|moosecreesk-canadian";
metricRight = "=|moosecreesk-canadian";
note = uni150A;
unicode = 5386;
},
{
glyphname = "swNaskapi-canadian";
lastChange = "2023-01-13 15:56:53 +0000";
layers = (
{
layerId = "ABE41ABD-D787-4F86-A3B4-502CADE9F2A5";
shapes = (
{
closed = 1;
nodes = (
(264,188,l),
(274,239,ls),
(297,344,o),
(244,411,o),
(151,411,cs),
(128,411,l),
(174,376,l),
(201,501,l),
(106,501,l),
(72,337,l),
(109,337,ls),
(167,337,o),
(195,311,o),
(181,242,cs),
(169,188,l)
);
},
{
closed = 1;
nodes = (
(231,14,o),
(261,43,o),
(261,82,cs),
(261,120,o),
(231,150,o),
(193,150,cs),
(157,150,o),
(127,120,o),
(127,82,cs),
(127,43,o),
(157,14,o),
(193,14,cs)
);
},
{
closed = 1;
nodes = (
(214,540,o),
(244,571,o),
(244,608,cs),
(244,646,o),
(214,676,o),
(177,676,cs),
(140,676,o),
(110,646,o),
(110,608,cs),
(110,571,o),
(140,540,o),
(177,540,cs)
);
}
);
width = 328;
}
);
metricRight = "=|";
note = uni150B;
unicode = 5387;
},
{
glyphname = "spwaNaskapi-canadian";
lastChange = "2023-01-13 15:56:53 +0000";
layers = (
{
layerId = "ABE41ABD-D787-4F86-A3B4-502CADE9F2A5";
shapes = (
{
closed = 1;
nodes = (
(467,0,l),
(493,122,l),
(200,363,l),
(188,300,l),
(582,541,l),
(612,690,l),
(580,690,l),
(52,367,l),
(43,323,l),
(433,0,l)
);
},
{
closed = 1;
nodes = (
(214,505,o),
(244,536,o),
(244,573,cs),
(244,611,o),
(213,641,o),
(177,641,cs),
(141,641,o),
(110,611,o),
(110,573,cs),
(110,535,o),
(141,505,o),
(177,505,cs)
);
},
{
closed = 1;
nodes = (
(394,614,l),
(406,668,ls),
(422,744,o),
(387,793,o),
(314,793,cs),
(284,793,l),
(346,763,l),
(368,866,l),
(277,866,l),
(247,725,l),
(268,725,ls),
(308,725,o),
(323,703,o),
(313,658,cs),
(303,614,l)
);
},
{
closed = 1;
nodes = (
(561,713,o),
(592,744,o),
(592,781,cs),
(592,818,o),
(561,849,o),
(525,849,cs),
(488,849,o),
(458,818,o),
(458,781,cs),
(458,744,o),
(488,713,o),
(525,713,cs)
);
}
);
width = 553;
}
);
metricRight = "pa-canadian";
metricWidth = "pa-canadian";
note = uni150C;
unicode = 5388;
},
{
glyphname = "she-canadian";
kernRight = caright;
lastChange = "2023-01-13 15:56:50 +0000";
layers = (
{
anchors = (
{
name = top_left_can;
pos = (340,690);
},
{
name = top_right_can;
pos = (703,690);
}
);
layerId = "ABE41ABD-D787-4F86-A3B4-502CADE9F2A5";
shapes = (
{
closed = 1;
nodes = (
(602,-14,o),
(674,68,o),
(706,218,cs),
(725,308,l),
(584,308,l),
(562,203,ls),
(549,137,o),
(526,110,o),
(489,110,cs),
(445,110,o),
(431,143,o),
(441,208,cs),
(485,452,ls),
(513,616,o),
(447,703,o),
(316,703,cs),
(190,703,o),
(117,622,o),
(85,471,cs),
(66,382,l),
(207,382,l),
(229,487,ls),
(243,553,o),
(265,580,o),
(303,580,cs),
(346,580,o),
(360,547,o),
(350,482,cs),
(306,238,ls),
(278,73,o),
(345,-14,o),
(476,-14,cs)
);
}
);
width = 749;
}
);
metricRight = "=|";
note = uni1510;
unicode = 5392;
},
{
glyphname = "shi-canadian";
kernLeft = coleft;
lastChange = "2023-01-13 15:56:50 +0000";
layers = (
{
anchors = (
{
name = top_left_can;
pos = (235,690);
},
{
name = top_right_can;
pos = (598,690);
}
);
layerId = "ABE41ABD-D787-4F86-A3B4-502CADE9F2A5";
shapes = (
{
closed = 1;
nodes = (
(325,-14,o),
(394,54,o),
(436,223,cs),
(499,482,ls),
(517,554,o),
(537,580,o),
(576,580,cs),
(618,580,o),
(635,547,o),
(620,480,cs),
(600,382,l),
(741,382,l),
(754,444,ls),
(787,598,o),
(723,703,o),
(584,703,cs),
(466,703,o),
(398,636,o),
(356,467,cs),
(292,207,ls),
(273,135,o),
(253,110,o),
(214,110,cs),
(173,110,o),
(156,143,o),
(171,210,cs),
(191,308,l),
(50,308,l),
(37,245,ls),
(4,91,o),
(69,-14,o),
(207,-14,cs)
);
}
);
width = 749;
}
);
metricLeft = "she-canadian";
metricRight = "she-canadian";
note = uni1511;
unicode = 5393;
},
{
glyphname = "sho-canadian";
lastChange = "2023-01-13 15:56:53 +0000";
layers = (
{
anchors = (
{
name = top_center_can;
pos = (440,508);
},
{
name = top_left_can;
pos = (302,508);
},
{
name = top_right_can;
pos = (578,508);
}
);
layerId = "ABE41ABD-D787-4F86-A3B4-502CADE9F2A5";
shapes = (
{
closed = 1;
nodes = (
(285,108,l),
(212,111,o),
(166,140,o),
(166,185,cs),
(166,225,o),
(191,255,o),
(237,255,cs),
(331,255,o),
(386,107,o),
(542,107,cs),
(667,107,o),
(740,197,o),
(740,309,cs),
(740,422,o),
(648,499,o),
(509,503,c),
(484,381,l),
(557,378,o),
(604,349,o),
(604,303,cs),
(604,264,o),
(578,234,o),
(532,234,cs),
(438,234,o),
(383,383,o),
(227,383,cs),
(97,383,o),
(29,287,o),
(29,181,cs),
(29,68,o),
(122,-10,o),
(259,-14,c)
);
}
);
width = 769;
}
);
metricLeft = "ke-canadian";
metricRight = "=|ke-canadian";
note = uni1513;
unicode = 5395;
},
{
glyphname = "sha-canadian";
lastChange = "2023-01-13 15:56:50 +0000";
layers = (
{
anchors = (
{
name = top_center_can;
pos = (441,508);
},
{
name = top_left_can;
pos = (303,508);
},
{
name = top_right_can;
pos = (579,508);
}
);
layerId = "ABE41ABD-D787-4F86-A3B4-502CADE9F2A5";
shapes = (
{
closed = 1;
nodes = (
(584,-18,o),
(721,63,o),
(721,220,cs),
(721,315,o),
(658,383,o),
(555,383,cs),
(414,383,o),
(319,234,o),
(241,234,cs),
(209,234,o),
(190,253,o),
(190,283,cs),
(190,352,o),
(256,381,o),
(333,381,c),
(360,503,l),
(185,507,o),
(48,426,o),
(48,269,cs),
(48,174,o),
(112,107,o),
(214,107,cs),
(355,107,o),
(451,255,o),
(528,255,cs),
(560,255,o),
(580,237,o),
(580,207,cs),
(580,138,o),
(514,108,o),
(436,108,c),
(410,-14,l)
);
}
);
width = 769;
}
);
metricLeft = "ke-canadian";
metricRight = "=|ke-canadian";
note = uni1515;
unicode = 5397;
},
{
glyphname = "sh-canadian";
kernLeft = mwestleft;
kernRight = mwestright;
lastChange = "2023-01-13 15:56:53 +0000";
layers = (
{
layerId = "ABE41ABD-D787-4F86-A3B4-502CADE9F2A5";
shapes = (
{
closed = 1;
nodes = (
(492,280,o),
(596,341,o),
(596,464,cs),
(596,535,o),
(546,587,o),
(466,587,cs),
(372,587,o),
(302,491,o),
(242,491,cs),
(215,491,o),
(200,506,o),
(200,530,cs),
(200,581,o),
(247,614,o),
(325,611,c),
(344,698,l),
(208,704,o),
(102,643,o),
(102,522,cs),
(102,449,o),
(153,397,o),
(233,397,cs),
(327,397,o),
(396,494,o),
(456,494,cs),
(483,494,o),
(498,478,o),
(498,454,cs),
(498,405,o),
(452,369,o),
(375,373,c),
(355,285,l)
);
}
);
width = 593;
}
);
metricLeft = "t-canadian";
metricRight = "=|";
note = uni1525;
unicode = 5413;
},
{
glyphname = "ye-canadian";
kernLeft = yeleft;
lastChange = "2023-01-13 15:56:50 +0000";
layers = (
{
anchors = (
{
name = middle_right_can;
pos = (581,345);
},
{
name = top_left_can;
pos = (191,690);
},
{
name = top_right_can;
pos = (466,690);
}
);
layerId = "ABE41ABD-D787-4F86-A3B4-502CADE9F2A5";
shapes = (
{
closed = 1;
nodes = (
(390,0,l),
(464,345,l),
(230,345,l),
(238,300,l),
(532,615,l),
(436,701,l),
(29,258,l),
(21,221,l),
(295,221,l),
(248,0,l)
);
}
);
width = 493;
}
);
note = uni1526;
unicode = 5414;
},
{
glyphname = "yi-canadian";
kernRight = yiright;
lastChange = "2023-01-13 15:56:53 +0000";
layers = (
{
anchors = (
{
name = top_left_can;
pos = (218,690);
},
{
name = top_right_can;
pos = (493,690);
}
);
layerId = "ABE41ABD-D787-4F86-A3B4-502CADE9F2A5";
shapes = (
{
closed = 1;
nodes = (
(142,0,l),
(188,221,l),
(462,221,l),
(470,258,l),
(227,701,l),
(114,638,l),
(300,305,l),
(307,345,l),
(72,345,l),
(-1,0,l)
);
}
);
width = 493;
}
);
metricRight = "=|ye-canadian";
metricWidth = "ye-canadian";
note = uni1528;
unicode = 5416;
},
{
glyphname = "yo-canadian";
kernLeft = yoleft;
lastChange = "2023-01-13 15:56:50 +0000";
layers = (
{
anchors = (
{
name = middle_right_can;
pos = (581,345);
},
{
name = top_double;
pos = (466,690);
},
{
name = top_left_can;
pos = (191,690);
},
{
name = top_right_can;
pos = (466,690);
}
);
layerId = "ABE41ABD-D787-4F86-A3B4-502CADE9F2A5";
shapes = (
{
closed = 1;
nodes = (
(422,52,l),
(236,384,l),
(229,345,l),
(464,345,l),
(536,690,l),
(394,690,l),
(347,469,l),
(74,469,l),
(66,432,l),
(309,-12,l)
);
}
);
width = 493;
}
);
metricLeft = "ye-canadian";
metricWidth = "ye-canadian";
note = uni152A;
unicode = 5418;
},
{
glyphname = "ya-canadian";
kernRight = yaright;
lastChange = "2023-01-13 15:56:53 +0000";
layers = (
{
anchors = (
{
name = top_left_can;
pos = (217,690);
},
{
name = top_right_can;
pos = (491,690);
}
);
layerId = "ABE41ABD-D787-4F86-A3B4-502CADE9F2A5";
shapes = (
{
closed = 1;
nodes = (
(507,432,l),
(515,469,l),
(242,469,l),
(288,690,l),
(146,690,l),
(72,345,l),
(306,345,l),
(299,389,l),
(5,74,l),
(100,-12,l)
);
}
);
width = 493;
}
);
metricRight = "=|ye-canadian";
metricWidth = "ye-canadian";
note = uni152D;
unicode = 5421;
},
{
glyphname = "y-canadian";
kernLeft = mwestleft;
kernRight = mwestright;
lastChange = "2023-01-13 15:56:50 +0000";
layers = (
{
layerId = "ABE41ABD-D787-4F86-A3B4-502CADE9F2A5";
shapes = (
{
closed = 1;
nodes = (
(336,554,l),
(342,580,l),
(213,580,l),
(237,690,l),
(143,690,l),
(102,501,l),
(225,501,l),
(226,557,l),
(75,391,l),
(139,336,l)
);
}
);
width = 292;
}
);
note = uni153E;
unicode = 5438;
},
{
glyphname = "biblecreey-canadian";
lastChange = "2023-01-13 15:56:53 +0000";
layers = (
{
layerId = "ABE41ABD-D787-4F86-A3B4-502CADE9F2A5";
shapes = (
{
closed = 1;
nodes = (
(145,345,l),
(244,592,l),
(193,592,l),
(220,345,l),
(276,345,l),
(410,592,l),
(355,592,l),
(352,345,l),
(436,345,l),
(440,367,l),
(442,690,l),
(374,690,l),
(232,425,l),
(290,425,l),
(264,690,l),
(195,690,l),
(60,367,l),
(55,345,l)
);
}
);
width = 449;
}
);
metricRight = "=|";
note = uni153F;
unicode = 5439;
},
{
glyphname = "yWestCree-canadian";
lastChange = "2023-01-13 15:56:50 +0000";
layers = (
{
layerId = "ABE41ABD-D787-4F86-A3B4-502CADE9F2A5";
shapes = (
{
closed = 1;
nodes = (
(219,207,l),
(242,311,l),
(336,311,l),
(355,401,l),
(261,401,l),
(283,503,l),
(193,503,l),
(172,401,l),
(77,401,l),
(58,311,l),
(153,311,l),
(130,207,l)
);
}
);
width = 366;
}
);
metricLeft = "shorthorizontalstrokeFinal-canadian";
metricRight = "shorthorizontalstrokeFinal-canadian";
note = uni1540;
unicode = 5440;
},
{
glyphname = "re-canadian";
kernRight = niright;
lastChange = "2023-01-13 15:56:50 +0000";
layers = (
{
anchors = (
{
name = top_center_can;
pos = (318,508);
},
{
name = top_left_can;
pos = (176,508);
},
{
name = top_right_can;
pos = (668,508);
}
);
layerId = "ABE41ABD-D787-4F86-A3B4-502CADE9F2A5";
shapes = (
{
closed = 1;
nodes = (
(357,-14,o),
(433,57,o),
(466,209,cs),
(497,361,l),
(707,361,l),
(734,489,l),
(386,489,l),
(326,202,ls),
(312,137,o),
(286,110,o),
(242,110,cs),
(191,110,o),
(170,144,o),
(185,212,cs),
(243,489,l),
(101,489,l),
(47,234,ls),
(14,84,o),
(88,-14,o),
(235,-14,cs)
);
}
);
width = 719;
}
);
metricRight = "=|ne-canadian";
note = uni1542;
unicode = 5442;
},
{
glyphname = "reRCree-canadian";
kernLeft = neleft;
lastChange = "2023-01-13 15:56:50 +0000";
layers = (
{
anchors = (
{
name = top_center_can;
pos = (512,508);
},
{
name = top_left_can;
pos = (163,508);
},
{
name = top_right_can;
pos = (655,508);
}
);
layerId = "ABE41ABD-D787-4F86-A3B4-502CADE9F2A5";
shapes = (
{
closed = 1;
nodes = (
(554,-14,o),
(630,57,o),
(662,209,cs),
(722,489,l),
(580,489,l),
(519,202,ls),
(504,137,o),
(478,110,o),
(435,110,cs),
(384,110,o),
(363,144,o),
(378,212,cs),
(437,489,l),
(89,489,l),
(62,361,l),
(270,361,l),
(243,234,ls),
(212,84,o),
(285,-14,o),
(431,-14,cs)
);
}
);
width = 719;
}
);
metricLeft = "ne-canadian";
metricRight = "=|re-canadian";
note = uni1543;
unicode = 5443;
},
{
glyphname = "leWestCree-canadian";
kernLeft = noleft;
lastChange = "2023-01-13 15:56:53 +0000";
layers = (
{
anchors = (
{
name = top_center_can;
pos = (513,508);
},
{
name = top_left_can;
pos = (163,508);
},
{
name = top_right_can;
pos = (655,508);
}
);
layerId = "ABE41ABD-D787-4F86-A3B4-502CADE9F2A5";
shapes = (
{
closed = 1;
nodes = (
(332,0,l),
(394,287,ls),
(408,352,o),
(434,379,o),
(477,379,cs),
(527,379,o),
(549,346,o),
(534,278,cs),
(475,0,l),
(618,0,l),
(672,255,ls),
(704,406,o),
(631,503,o),
(485,503,cs),
(362,503,o),
(286,432,o),
(254,280,cs),
(221,128,l),
(12,128,l),
(-15,0,l)
);
}
);
width = 719;
}
);
metricLeft = "ne-canadian";
metricRight = "=|re-canadian";
note = uni1544;
unicode = 5444;
},
{
glyphname = "ri-canadian";
kernRight = naright;
lastChange = "2023-01-13 15:56:50 +0000";
layers = (
{
anchors = (
{
name = top_center_can;
pos = (319,508);
},
{
name = top_left_can;
pos = (177,508);
},
{
name = top_right_can;
pos = (668,508);
}
);
layerId = "ABE41ABD-D787-4F86-A3B4-502CADE9F2A5";
shapes = (
{
closed = 1;
nodes = (
(140,0,l),
(201,287,ls),
(214,352,o),
(241,379,o),
(285,379,cs),
(334,379,o),
(355,345,o),
(342,278,cs),
(282,0,l),
(630,0,l),
(657,128,l),
(448,128,l),
(475,255,ls),
(508,405,o),
(435,503,o),
(295,503,cs),
(165,503,o),
(90,432,o),
(57,280,cs),
(-3,0,l)
);
}
);
width = 719;
}
);
metricLeft = "re-canadian";
metricRight = "=|ne-canadian";
note = uni1546;
unicode = 5446;
},
{
glyphname = "ro-canadian";
lastChange = "2023-01-13 15:56:50 +0000";
layers = (
{
anchors = (
{
name = top_center_can;
pos = (304,690);
}
);
layerId = "ABE41ABD-D787-4F86-A3B4-502CADE9F2A5";
shapes = (
{
closed = 1;
nodes = (
(142,0,l),
(202,284,l),
(134,221,l),
(210,221,ls),
(416,221,o),
(484,364,o),
(484,494,cs),
(484,613,o),
(405,690,o),
(274,690,cs),
(146,690,l),
(119,563,l),
(248,563,ls),
(310,563,o),
(342,533,o),
(342,479,cs),
(342,403,o),
(301,346,o),
(204,346,cs),
(73,346,l),
(0,0,l)
);
}
);
width = 473;
}
);
metricLeft = "nunavuth-canadian";
note = uni1548;
unicode = 5448;
},
{
glyphname = "loWestCree-canadian";
lastChange = "2023-01-13 15:56:50 +0000";
layers = (
{
anchors = (
{
name = top_center_can;
pos = (304,690);
},
{
name = top_left_can;
pos = (217,690);
}
);
layerId = "ABE41ABD-D787-4F86-A3B4-502CADE9F2A5";
shapes = (
{
closed = 1;
nodes = (
(163,0,ls),
(369,0,o),
(438,143,o),
(438,272,cs),
(438,392,o),
(358,469,o),
(227,469,cs),
(179,469,l),
(228,405,l),
(288,690,l),
(146,690,l),
(72,345,l),
(203,345,ls),
(265,345,o),
(297,315,o),
(297,262,cs),
(297,185,o),
(255,128,o),
(157,128,cs),
(26,128,l),
(-1,0,l)
);
}
);
width = 474;
}
);
metricLeft = "nunavuth-canadian";
metricRight = "ro-canadian";
note = uni154A;
unicode = 5450;
},
{
glyphname = "ra-canadian";
lastChange = "2023-01-13 15:56:50 +0000";
layers = (
{
anchors = (
{
name = top_center_can;
pos = (357,690);
},
{
name = top_right_can;
pos = (444,690);
}
);
layerId = "ABE41ABD-D787-4F86-A3B4-502CADE9F2A5";
shapes = (
{
closed = 1;
nodes = (
(370,0,l),
(442,345,l),
(314,345,ls),
(252,345,o),
(219,375,o),
(219,428,cs),
(219,505,o),
(262,562,o),
(358,562,cs),
(489,562,l),
(516,690,l),
(353,690,ls),
(147,690,o),
(79,547,o),
(79,417,cs),
(79,298,o),
(157,221,o),
(289,221,cs),
(337,221,l),
(288,285,l),
(227,0,l)
);
}
);
width = 473;
}
);
metricLeft = "=|ro-canadian";
metricRight = "nunavuth-canadian";
note = uni154B;
unicode = 5451;
},
{
glyphname = "laWestCree-canadian";
lastChange = "2023-01-13 15:56:53 +0000";
layers = (
{
anchors = (
{
name = top_center_can;
pos = (445,690);
}
);
layerId = "ABE41ABD-D787-4F86-A3B4-502CADE9F2A5";
shapes = (
{
closed = 1;
nodes = (
(370,0,l),
(397,127,l),
(268,127,ls),
(206,127,o),
(174,156,o),
(174,211,cs),
(174,287,o),
(214,344,o),
(312,344,cs),
(443,344,l),
(517,690,l),
(374,690,l),
(314,406,l),
(382,469,l),
(306,469,ls),
(100,469,o),
(32,326,o),
(32,196,cs),
(32,76,o),
(111,0,o),
(242,0,cs)
);
}
);
width = 473;
}
);
metricLeft = "=|ro-canadian";
metricRight = "nunavuth-canadian";
note = uni154D;
unicode = 5453;
},
{
glyphname = "r-canadian";
kernLeft = mwestleft;
kernRight = mwestright;
lastChange = "2023-01-13 15:56:53 +0000";
layers = (
{
layerId = "ABE41ABD-D787-4F86-A3B4-502CADE9F2A5";
shapes = (
{
closed = 1;
nodes = (
(256,345,l),
(295,526,l),
(236,526,ls),
(208,526,o),
(194,539,o),
(194,560,cs),
(194,592,o),
(213,613,o),
(253,613,cs),
(313,613,l),
(329,690,l),
(268,690,ls),
(170,690,o),
(104,644,o),
(104,555,cs),
(104,496,o),
(147,452,o),
(216,452,cs),
(239,452,l),
(189,474,l),
(161,345,l)
);
}
);
width = 278;
}
);
metricLeft = "=|k-canadian";
note = uni1550;
unicode = 5456;
},
{
glyphname = "rWestCree-canadian";
kernLeft = mwestleft;
kernRight = mwestright;
lastChange = "2023-01-13 15:56:50 +0000";
layers = (
{
layerId = "ABE41ABD-D787-4F86-A3B4-502CADE9F2A5";
shapes = (
{
closed = 1;
nodes = (
(138,690,l),
(127,632,l),
(245,566,l),
(256,615,l),
(107,544,l),
(99,501,l),
(218,438,l),
(228,482,l),
(80,415,l),
(65,345,l),
(80,345,l),
(286,437,l),
(293,468,l),
(169,535,l),
(161,500,l),
(314,568,l),
(321,599,l),
(154,690,l)
);
}
);
width = 289;
}
);
metricLeft = "=|lWestCree-canadian";
metricRight = "=|lWestCree-canadian";
note = uni1551;
unicode = 5457;
},
{
glyphname = "rMedial-canadian";
lastChange = "2023-01-13 15:56:53 +0000";
layers = (
{
layerId = "ABE41ABD-D787-4F86-A3B4-502CADE9F2A5";
shapes = (
{
closed = 1;
nodes = (
(27,-14,l),
(455,177,l),
(467,228,l),
(203,372,l),
(192,321,l),
(516,462,l),
(527,513,l),
(179,703,l),
(146,703,l),
(125,607,l),
(387,463,l),
(402,533,l),
(77,384,l),
(65,326,l),
(328,189,l),
(344,248,l),
(18,103,l),
(-7,-14,l)
);
}
);
width = 518;
}
);
metricLeft = "mediall-canadian";
metricRight = "mediall-canadian";
note = uni1552;
unicode = 5458;
},
{
glyphname = "fe-canadian";
kernLeft = ecanleft;
kernRight = ecanright;
lastChange = "2023-01-13 15:56:50 +0000";
layers = (
{
layerId = "ABE41ABD-D787-4F86-A3B4-502CADE9F2A5";
shapes = (
{
closed = 1;
nodes = (
(290,0,l),
(737,655,l),
(745,690,l),
(626,690,l),
(280,163,l),
(306,163,l),
(259,351,l),
(179,352,l),
(196,331,o),
(222,320,o),
(257,320,cs),
(378,320,o),
(440,461,o),
(440,556,cs),
(440,644,o),
(391,703,o),
(304,703,cs),
(176,703,o),
(120,567,o),
(120,463,cs),
(120,428,o),
(126,394,o),
(139,355,cs),
(249,0,l)
);
},
{
closed = 1;
nodes = (
(240,409,o),
(227,428,o),
(227,462,cs),
(227,501,o),
(247,604,o),
(297,604,cs),
(320,604,o),
(332,584,o),
(332,552,cs),
(332,511,o),
(313,409,o),
(264,409,cs)
);
}
);
width = 668;
}
);
metricRight = "e-canadian";
note = uni1553;
unicode = 5459;
},
{
glyphname = "fi-canadian";
kernLeft = icanleft;
kernRight = icanright;
lastChange = "2023-01-13 15:56:53 +0000";
layers = (
{
anchors = (
{
name = top_center_can;
pos = (412,690);
},
{
name = top_left_can;
pos = (215,690);
},
{
name = top_right_can;
pos = (623,690);
}
);
layerId = "ABE41ABD-D787-4F86-A3B4-502CADE9F2A5";
shapes = (
{
closed = 1;
nodes = (
(321,-14,o),
(370,124,o),
(370,217,cs),
(370,311,o),
(320,374,o),
(250,374,cs),
(226,374,o),
(197,362,o),
(172,342,c),
(265,342,l),
(398,526,l),
(365,526,l),
(499,0,l),
(599,0,l),
(606,35,l),
(432,690,l),
(390,690,l),
(134,351,ls),
(83,282,o),
(50,213,o),
(50,134,cs),
(50,46,o),
(100,-14,o),
(186,-14,cs)
);
},
{
closed = 1;
nodes = (
(170,86,o),
(157,105,o),
(157,139,cs),
(157,179,o),
(178,281,o),
(227,281,cs),
(250,281,o),
(263,262,o),
(263,228,cs),
(263,186,o),
(243,86,o),
(194,86,cs)
);
}
);
width = 669;
}
);
metricLeft = "fe-canadian";
metricRight = "e-canadian";
note = uni1555;
unicode = 5461;
},
{
glyphname = "fo-canadian";
kernLeft = ocanleft;
kernRight = ocanright;
lastChange = "2023-01-13 15:56:50 +0000";
layers = (
{
anchors = (
{
name = top_center_can;
pos = (289,690);
}
);
layerId = "ABE41ABD-D787-4F86-A3B4-502CADE9F2A5";
shapes = (
{
closed = 1;
nodes = (
(46,0,l),
(562,323,l),
(572,367,l),
(393,631,ls),
(361,679,o),
(327,703,o),
(273,703,cs),
(172,703,o),
(107,607,o),
(93,502,cs),
(75,389,o),
(128,311,o),
(218,311,cs),
(313,311,o),
(380,405,o),
(393,506,cs),
(397,535,o),
(399,565,o),
(397,589,c),
(339,514,l),
(453,348,l),
(465,391,l),
(41,126,l),
(13,0,l)
);
},
{
closed = 1;
nodes = (
(205,410,o),
(194,440,o),
(202,497,cs),
(209,550,o),
(227,607,o),
(267,607,cs),
(295,607,o),
(305,576,o),
(298,520,cs),
(291,467,o),
(272,410,o),
(233,410,cs)
);
}
);
width = 572;
}
);
metricRight = "o-canadian";
note = uni1557;
unicode = 5463;
},
{
glyphname = "fa-canadian";
kernLeft = acanleft;
kernRight = acanright;
lastChange = "2023-01-13 15:56:50 +0000";
layers = (
{
anchors = (
{
name = top_center_can;
pos = (474,690);
}
);
layerId = "ABE41ABD-D787-4F86-A3B4-502CADE9F2A5";
shapes = (
{
closed = 1;
nodes = (
(455,0,l),
(477,107,l),
(178,362,l),
(172,335,l),
(351,504,l),
(326,613,l),
(299,567,o),
(281,504,o),
(281,456,cs),
(281,368,o),
(332,308,o),
(418,308,cs),
(537,308,o),
(595,454,o),
(595,551,cs),
(595,643,o),
(545,703,o),
(463,703,cs),
(416,703,o),
(376,685,o),
(335,643,cs),
(52,367,l),
(43,323,l),
(421,0,l)
);
},
{
closed = 1;
nodes = (
(396,408,o),
(384,427,o),
(384,460,cs),
(384,500,o),
(404,603,o),
(453,603,cs),
(476,603,o),
(489,584,o),
(489,552,cs),
(489,511,o),
(469,408,o),
(419,408,cs)
);
}
);
width = 573;
}
);
metricRight = "=|fo-canadian";
note = uni1559;
unicode = 5465;
},
{
glyphname = "f-canadian";
kernLeft = mwestleft;
kernRight = mwestright;
lastChange = "2023-01-13 15:56:50 +0000";
layers = (
{
layerId = "ABE41ABD-D787-4F86-A3B4-502CADE9F2A5";
shapes = (
{
closed = 1;
nodes = (
(297,345,l),
(308,406,l),
(160,531,l),
(158,512,l),
(245,599,l),
(236,651,l),
(223,630,o),
(211,593,o),
(211,568,cs),
(211,526,o),
(237,497,o),
(276,497,cs),
(332,497,o),
(366,560,o),
(366,623,cs),
(366,668,o),
(343,696,o),
(303,696,cs),
(279,696,o),
(258,686,o),
(235,664,cs),
(94,526,l),
(90,504,l),
(280,345,l)
);
},
{
closed = 1;
nodes = (
(267,547,o),
(261,555,o),
(261,571,cs),
(261,592,o),
(272,645,o),
(296,645,cs),
(307,645,o),
(313,637,o),
(313,620,cs),
(313,600,o),
(302,547,o),
(278,547,cs)
);
}
);
width = 327;
}
);
note = uni155D;
unicode = 5469;
},
{
glyphname = "the-canadian";
lastChange = "2023-01-13 15:56:50 +0000";
layers = (
{
anchors = (
{
name = middle_right_can;
pos = (721,345);
},
{
name = top_center_can;
pos = (409,690);
},
{
name = top_left_can;
pos = (213,690);
},
{
name = top_right_can;
pos = (603,690);
}
);
layerId = "ABE41ABD-D787-4F86-A3B4-502CADE9F2A5";
shapes = (
{
closed = 1;
nodes = (
(449,-14,o),
(540,67,o),
(578,242,cs),
(673,690,l),
(530,690,l),
(438,252,ls),
(417,158,o),
(375,116,o),
(297,116,cs),
(196,116,o),
(174,181,o),
(197,282,cs),
(226,406,l),
(155,366,l),
(167,333,o),
(196,305,o),
(234,305,cs),
(344,305,o),
(404,400,o),
(421,514,cs),
(440,630,o),
(389,703,o),
(288,703,cs),
(191,703,o),
(131,635,o),
(102,498,cs),
(61,300,ls),
(21,111,o),
(96,-14,o),
(290,-14,cs)
);
},
{
closed = 1;
nodes = (
(223,407,o),
(211,426,o),
(211,460,cs),
(211,499,o),
(231,604,o),
(280,604,cs),
(303,604,o),
(315,584,o),
(315,551,cs),
(315,510,o),
(296,407,o),
(246,407,cs)
);
}
);
width = 627;
}
);
metricLeft = "te-canadian";
metricRight = "te-canadian";
note = uni155E;
unicode = 5470;
},
{
glyphname = "theNCree-canadian";
lastChange = "2023-01-13 15:56:53 +0000";
layers = (
{
layerId = "ABE41ABD-D787-4F86-A3B4-502CADE9F2A5";
shapes = (
{
closed = 1;
nodes = (
(452,-14,o),
(540,71,o),
(582,261,cs),
(628,478,ls),
(660,626,o),
(599,703,o),
(503,703,cs),
(375,703,o),
(319,566,o),
(319,462,cs),
(319,374,o),
(362,305,o),
(446,305,cs),
(480,305,o),
(514,322,o),
(535,349,c),
(470,400,l),
(441,261,ls),
(418,156,o),
(377,113,o),
(298,113,cs),
(207,113,o),
(176,171,o),
(196,270,cs),
(286,690,l),
(143,690,l),
(57,282,ls),
(17,99,o),
(107,-14,o),
(288,-14,cs)
);
},
{
closed = 1;
nodes = (
(439,407,o),
(427,426,o),
(427,460,cs),
(427,499,o),
(446,604,o),
(496,604,cs),
(518,604,o),
(530,584,o),
(530,551,cs),
(530,510,o),
(511,407,o),
(462,407,cs)
);
}
);
width = 626;
}
);
metricLeft = "te-canadian";
metricRight = "te-canadian";
note = uni155F;
unicode = 5471;
},
{
glyphname = "thi-canadian";
lastChange = "2023-01-13 15:56:53 +0000";
layers = (
{
anchors = (
{
name = top_center_can;
pos = (404,690);
}
);
layerId = "ABE41ABD-D787-4F86-A3B4-502CADE9F2A5";
shapes = (
{
closed = 1;
nodes = (
(294,-14,o),
(350,124,o),
(350,228,cs),
(350,316,o),
(306,384,o),
(222,384,cs),
(188,384,o),
(155,368,o),
(133,341,c),
(198,290,l),
(227,429,ls),
(249,534,o),
(292,577,o),
(370,577,cs),
(462,577,o),
(493,519,o),
(472,420,cs),
(383,0,l),
(525,0,l),
(611,408,ls),
(651,591,o),
(561,703,o),
(381,703,cs),
(216,703,o),
(127,618,o),
(87,429,cs),
(41,212,ls),
(9,64,o),
(70,-14,o),
(165,-14,cs)
);
},
{
closed = 1;
nodes = (
(150,86,o),
(138,105,o),
(138,139,cs),
(138,180,o),
(157,283,o),
(207,283,cs),
(230,283,o),
(241,264,o),
(241,230,cs),
(241,190,o),
(222,86,o),
(173,86,cs)
);
}
);
width = 625;
}
);
metricLeft = "te-canadian";
metricRight = "te-canadian";
note = uni1560;
unicode = 5472;
},
{
glyphname = "thiNCree-canadian";
lastChange = "2023-01-13 15:56:53 +0000";
layers = (
{
anchors = (
{
name = top_center_can;
pos = (405,690);
}
);
layerId = "ABE41ABD-D787-4F86-A3B4-502CADE9F2A5";
shapes = (
{
closed = 1;
nodes = (
(478,-14,o),
(538,55,o),
(567,191,cs),
(609,389,ls),
(648,579,o),
(574,703,o),
(380,703,cs),
(220,703,o),
(129,623,o),
(92,448,cs),
(-4,0,l),
(139,0,l),
(232,438,ls),
(252,531,o),
(295,574,o),
(373,574,cs),
(473,574,o),
(496,509,o),
(472,408,cs),
(443,284,l),
(515,324,l),
(502,356,o),
(473,384,o),
(436,384,cs),
(326,384,o),
(266,290,o),
(248,176,cs),
(230,60,o),
(280,-14,o),
(382,-14,cs)
);
},
{
closed = 1;
nodes = (
(366,86,o),
(354,105,o),
(354,139,cs),
(354,180,o),
(374,283,o),
(423,283,cs),
(446,283,o),
(459,264,o),
(459,230,cs),
(459,190,o),
(439,86,o),
(389,86,cs)
);
}
);
width = 626;
}
);
metricLeft = "te-canadian";
metricRight = "te-canadian";
note = uni1561;
unicode = 5473;
},
{
glyphname = "tho-canadian";
lastChange = "2023-01-13 15:56:50 +0000";
layers = (
{
anchors = (
{
name = top_center_can;
pos = (353,690);
}
);
layerId = "ABE41ABD-D787-4F86-A3B4-502CADE9F2A5";
shapes = (
{
closed = 1;
nodes = (
(190,0,ls),
(472,0,o),
(558,251,o),
(558,429,cs),
(558,595,o),
(470,703,o),
(329,703,cs),
(172,703,o),
(87,568,o),
(87,431,cs),
(87,339,o),
(135,279,o),
(217,279,cs),
(342,279,o),
(393,418,o),
(393,513,cs),
(393,584,o),
(361,635,o),
(305,644,c),
(275,607,l),
(284,611,o),
(298,615,o),
(313,615,cs),
(380,614,o),
(424,549,o),
(424,443,cs),
(424,333,o),
(388,129,o),
(197,129,cs),
(45,129,l),
(18,0,l)
);
},
{
closed = 1;
nodes = (
(209,379,o),
(197,396,o),
(197,429,cs),
(197,466,o),
(219,590,o),
(271,590,cs),
(294,590,o),
(305,573,o),
(305,540,cs),
(305,504,o),
(283,379,o),
(231,379,cs)
);
}
);
width = 574;
}
);
metricRight = "to-canadian";
note = uni1564;
unicode = 5476;
},
{
glyphname = "tha-canadian";
lastChange = "2023-01-13 15:56:53 +0000";
layers = (
{
anchors = (
{
name = top_center_can;
pos = (418,690);
}
);
layerId = "ABE41ABD-D787-4F86-A3B4-502CADE9F2A5";
shapes = (
{
closed = 1;
nodes = (
(451,0,l),
(479,129,l),
(344,129,ls),
(246,129,o),
(196,180,o),
(196,278,cs),
(196,381,o),
(262,614,o),
(399,614,cs),
(419,614,o),
(439,609,o),
(454,597,c),
(433,641,l),
(321,644,o),
(273,504,o),
(273,418,cs),
(273,332,o),
(319,279,o),
(399,279,cs),
(512,279,o),
(585,392,o),
(585,516,cs),
(585,632,o),
(513,703,o),
(396,703,cs),
(165,703,o),
(57,438,o),
(57,265,cs),
(57,103,o),
(156,0,o),
(317,0,cs)
);
},
{
closed = 1;
nodes = (
(381,379,o),
(369,396,o),
(369,429,cs),
(369,466,o),
(391,590,o),
(444,590,cs),
(467,590,o),
(478,573,o),
(478,540,cs),
(478,504,o),
(456,379,o),
(404,379,cs)
);
}
);
width = 574;
}
);
metricLeft = "=|theCarrier-canadian";
metricRight = "=|tho-canadian";
note = uni1566;
unicode = 5478;
},
{
glyphname = "th-canadian";
kernLeft = mwestleft;
kernRight = mwestright;
lastChange = "2023-01-13 15:56:50 +0000";
layers = (
{
layerId = "ABE41ABD-D787-4F86-A3B4-502CADE9F2A5";
shapes = (
{
closed = 1;
nodes = (
(290,345,l),
(306,423,l),
(244,423,ls),
(199,423,o),
(176,446,o),
(176,491,cs),
(176,541,o),
(207,639,o),
(275,639,cs),
(283,639,o),
(291,638,o),
(297,636,c),
(279,658,l),
(228,658,o),
(204,586,o),
(204,552,cs),
(204,509,o),
(228,480,o),
(267,480,cs),
(330,480,o),
(357,557,o),
(357,604,cs),
(357,660,o),
(323,696,o),
(264,696,cs),
(148,696,o),
(95,566,o),
(95,483,cs),
(95,399,o),
(146,345,o),
(230,345,cs)
);
},
{
closed = 1;
nodes = (
(255,529,o),
(249,537,o),
(249,553,cs),
(249,575,o),
(260,628,o),
(285,628,cs),
(297,628,o),
(302,620,o),
(302,605,cs),
(302,583,o),
(292,529,o),
(267,529,cs)
);
}
);
width = 323;
}
);
metricLeft = "t-canadian";
note = uni156A;
unicode = 5482;
},
{
glyphname = "tthe-canadian";
lastChange = "2023-01-13 15:56:50 +0000";
layers = (
{
anchors = (
{
name = middle_right_can;
pos = (713,345);
},
{
name = top_center_can;
pos = (404,690);
},
{
name = top_left_can;
pos = (214,690);
},
{
name = top_right_can;
pos = (594,690);
}
);
layerId = "ABE41ABD-D787-4F86-A3B4-502CADE9F2A5";
shapes = (
{
closed = 1;
nodes = (
(442,-14,o),
(533,71,o),
(570,242,cs),
(665,690,l),
(532,690,l),
(439,253,ls),
(418,157,o),
(375,117,o),
(296,117,cs),
(202,117,o),
(165,168,o),
(186,269,cs),
(276,690,l),
(143,690,l),
(57,282,ls),
(17,98,o),
(107,-14,o),
(285,-14,cs)
);
},
{
closed = 1;
nodes = (
(391,382,l),
(457,690,l),
(351,690,l),
(285,382,l)
);
}
);
width = 619;
}
);
metricLeft = "te-canadian";
metricRight = "te-canadian";
note = uni156B;
unicode = 5483;
},
{
glyphname = "tthi-canadian";
lastChange = "2023-01-13 15:56:50 +0000";
layers = (
{
layerId = "ABE41ABD-D787-4F86-A3B4-502CADE9F2A5";
shapes = (
{
closed = 1;
nodes = (
(129,0,l),
(222,437,ls),
(242,532,o),
(287,573,o),
(365,573,cs),
(459,573,o),
(497,522,o),
(475,421,cs),
(385,0,l),
(518,0,l),
(605,408,ls),
(644,592,o),
(554,703,o),
(377,703,cs),
(219,703,o),
(128,619,o),
(92,448,cs),
(-4,0,l)
);
},
{
closed = 1;
nodes = (
(311,0,l),
(377,308,l),
(270,308,l),
(204,0,l)
);
}
);
width = 618;
}
);
metricLeft = "te-canadian";
metricRight = "te-canadian";
note = uni156C;
unicode = 5484;
},
{
glyphname = "ttho-canadian";
lastChange = "2023-01-13 15:56:53 +0000";
layers = (
{
anchors = (
{
name = top_center_can;
pos = (342,690);
},
{
name = top_left_can;
pos = (203,690);
},
{
name = top_right_can;
pos = (522,690);
}
);
layerId = "ABE41ABD-D787-4F86-A3B4-502CADE9F2A5";
shapes = (
{
closed = 1;
nodes = (
(129,0,ls),
(448,0,o),
(517,265,o),
(517,420,cs),
(517,588,o),
(415,690,o),
(236,690,cs),
(143,690,l),
(116,560,l),
(211,560,ls),
(319,560,o),
(374,508,o),
(374,409,cs),
(374,309,o),
(332,129,o),
(136,129,cs),
(24,129,l),
(-3,0,l)
);
},
{
closed = 1;
nodes = (
(248,287,l),
(273,405,l),
(82,405,l),
(58,287,l)
);
}
);
width = 534;
}
);
metricRight = "to-canadian";
note = uni156D;
unicode = 5485;
},
{
glyphname = "ttha-canadian";
lastChange = "2023-01-13 15:56:53 +0000";
layers = (
{
anchors = (
{
name = top_center_can;
pos = (357,690);
},
{
name = top_left_can;
pos = (207,690);
},
{
name = top_right_can;
pos = (508,690);
}
);
layerId = "ABE41ABD-D787-4F86-A3B4-502CADE9F2A5";
shapes = (
{
closed = 1;
nodes = (
(434,0,l),
(461,129,l),
(365,129,ls),
(257,129,o),
(203,182,o),
(203,281,cs),
(203,393,o),
(256,560,o),
(440,560,cs),
(553,560,l),
(580,690,l),
(446,690,ls),
(139,690,o),
(60,436,o),
(60,270,cs),
(60,101,o),
(160,0,o),
(340,0,cs)
);
},
{
closed = 1;
nodes = (
(493,287,l),
(518,405,l),
(327,405,l),
(301,287,l)
);
}
);
width = 534;
}
);
metricLeft = "=|to-canadian";
metricRight = "=|ttho-canadian";
note = uni156E;
unicode = 5486;
},
{
glyphname = "tth-canadian";
lastChange = "2023-01-13 15:56:53 +0000";
layers = (
{
layerId = "ABE41ABD-D787-4F86-A3B4-502CADE9F2A5";
shapes = (
{
closed = 1;
nodes = (
(256,479,l),
(219,479,l),
(277,360,l),
(350,396,l),
(289,522,l),
(270,486,l),
(407,538,l),
(382,609,l),
(257,560,l),
(286,541,l),
(317,690,l),
(237,690,l),
(205,541,l),
(240,560,l),
(124,609,l),
(93,537,l),
(201,493,l),
(197,527,l),
(93,412,l),
(150,360,l)
);
},
{
closed = 1;
nodes = (
(611,479,l),
(575,479,l),
(633,360,l),
(705,396,l),
(644,522,l),
(625,486,l),
(762,538,l),
(737,609,l),
(612,560,l),
(640,541,l),
(672,690,l),
(592,690,l),
(560,541,l),
(594,560,l),
(479,609,l),
(448,537,l),
(555,493,l),
(553,527,l),
(448,412,l),
(504,360,l)
);
}
);
width = 731;
}
);
metricRight = "=|";
note = uni156F;
unicode = 5487;
},
{
glyphname = "tye-canadian";
lastChange = "2023-01-13 15:56:53 +0000";
layers = (
{
layerId = "ABE41ABD-D787-4F86-A3B4-502CADE9F2A5";
shapes = (
{
closed = 1;
nodes = (
(442,-14,o),
(533,71,o),
(570,242,cs),
(665,690,l),
(532,690,l),
(440,256,ls),
(419,158,o),
(375,117,o),
(295,117,cs),
(202,117,o),
(165,168,o),
(186,269,cs),
(276,690,l),
(143,690,l),
(57,282,ls),
(17,98,o),
(107,-14,o),
(285,-14,cs)
);
},
{
closed = 1;
nodes = (
(408,411,o),
(440,440,o),
(453,501,cs),
(494,690,l),
(434,690,l),
(396,512,ls),
(390,485,o),
(379,473,o),
(359,473,cs),
(338,473,o),
(331,485,o),
(337,512,cs),
(375,690,l),
(315,690,l),
(276,509,ls),
(264,449,o),
(295,411,o),
(355,411,cs)
);
}
);
width = 619;
}
);
metricLeft = "te-canadian";
metricRight = "te-canadian";
note = uni1570;
unicode = 5488;
},
{
glyphname = "tyi-canadian";
lastChange = "2023-01-13 15:56:50 +0000";
layers = (
{
layerId = "ABE41ABD-D787-4F86-A3B4-502CADE9F2A5";
shapes = (
{
closed = 1;
nodes = (
(129,0,l),
(221,434,ls),
(242,531,o),
(286,573,o),
(366,573,cs),
(459,573,o),
(497,522,o),
(475,421,cs),
(385,0,l),
(518,0,l),
(605,408,ls),
(644,592,o),
(554,703,o),
(376,703,cs),
(219,703,o),
(128,619,o),
(92,447,cs),
(-4,0,l)
);
},
{
closed = 1;
nodes = (
(228,0,l),
(266,178,ls),
(270,205,o),
(283,216,o),
(302,216,cs),
(323,216,o),
(330,205,o),
(325,178,cs),
(287,0,l),
(347,0,l),
(385,181,ls),
(398,241,o),
(367,279,o),
(307,279,cs),
(254,279,o),
(221,249,o),
(209,188,cs),
(168,0,l)
);
}
);
width = 618;
}
);
metricLeft = "te-canadian";
metricRight = "te-canadian";
note = uni1571;
unicode = 5489;
},
{
glyphname = "tyo-canadian";
lastChange = "2023-01-13 15:56:53 +0000";
layers = (
{
layerId = "ABE41ABD-D787-4F86-A3B4-502CADE9F2A5";
shapes = (
{
closed = 1;
nodes = (
(129,0,ls),
(448,0,o),
(520,265,o),
(520,420,cs),
(520,588,o),
(416,690,o),
(236,690,cs),
(146,690,l),
(119,563,l),
(213,563,ls),
(320,563,o),
(377,508,o),
(377,409,cs),
(377,259,o),
(287,127,o),
(136,127,cs),
(27,127,l),
(0,0,l)
);
},
{
closed = 1;
nodes = (
(103,215,ls),
(204,215,o),
(251,268,o),
(262,345,cs),
(272,423,o),
(230,474,o),
(154,474,cs),
(100,474,l),
(85,403,l),
(137,403,ls),
(173,403,o),
(190,384,o),
(186,351,cs),
(183,315,o),
(163,287,o),
(111,287,cs),
(61,287,l),
(45,215,l)
);
}
);
width = 537;
}
);
metricLeft = "nunavuth-canadian";
metricRight = "theCarrier-canadian";
note = uni1572;
unicode = 5490;
},
{
glyphname = "tya-canadian";
lastChange = "2023-01-13 15:56:53 +0000";
layers = (
{
layerId = "ABE41ABD-D787-4F86-A3B4-502CADE9F2A5";
shapes = (
{
closed = 1;
nodes = (
(433,0,l),
(460,127,l),
(365,127,ls),
(259,127,o),
(203,182,o),
(203,281,cs),
(203,431,o),
(292,563,o),
(443,563,cs),
(552,563,l),
(579,690,l),
(449,690,ls),
(130,690,o),
(60,425,o),
(60,270,cs),
(60,101,o),
(162,0,o),
(343,0,cs)
);
},
{
closed = 1;
nodes = (
(478,215,l),
(494,287,l),
(441,287,ls),
(406,287,o),
(389,305,o),
(392,339,cs),
(396,375,o),
(415,403,o),
(468,403,cs),
(518,403,l),
(533,474,l),
(475,474,ls),
(375,474,o),
(328,422,o),
(317,345,cs),
(306,267,o),
(349,215,o),
(425,215,cs)
);
}
);
width = 536;
}
);
metricLeft = "=|theCarrier-canadian";
metricRight = "nunavuth-canadian";
note = uni1573;
unicode = 5491;
},
{
glyphname = "heNunavik-canadian";
lastChange = "2023-01-13 15:56:50 +0000";
layers = (
{
layerId = "ABE41ABD-D787-4F86-A3B4-502CADE9F2A5";
shapes = (
{
closed = 1;
nodes = (
(395,0,l),
(641,196,l),
(566,294,l),
(394,158,l),
(437,126,l),
(499,421,ls),
(529,559,o),
(493,703,o),
(328,703,cs),
(145,703,o),
(75,515,o),
(75,375,cs),
(75,258,o),
(133,186,o),
(230,186,cs),
(277,186,o),
(317,210,o),
(343,258,c),
(325,264,l),
(269,0,l)
);
},
{
closed = 1;
nodes = (
(234,307,o),
(213,332,o),
(213,382,cs),
(213,433,o),
(239,583,o),
(315,583,cs),
(353,583,o),
(373,558,o),
(373,508,cs),
(373,457,o),
(348,307,o),
(271,307,cs)
);
}
);
width = 668;
}
);
metricLeft = "ke-canadian";
note = uni1574;
unicode = 5492;
},
{
glyphname = "hiNunavik-canadian";
lastChange = "2023-01-13 15:56:53 +0000";
layers = (
{
anchors = (
{
name = top_center_can;
pos = (510,690);
}
);
layerId = "ABE41ABD-D787-4F86-A3B4-502CADE9F2A5";
shapes = (
{
closed = 1;
nodes = (
(296,0,l),
(360,301,l),
(338,261,l),
(337,219,o),
(383,186,o),
(444,186,cs),
(610,186,o),
(677,383,o),
(677,507,cs),
(677,631,o),
(609,703,o),
(495,703,cs),
(370,703,o),
(285,620,o),
(253,466,cs),
(180,121,l),
(226,134,l),
(103,279,l),
(6,195,l),
(170,0,l)
);
},
{
closed = 1;
nodes = (
(402,307,o),
(382,332,o),
(382,382,cs),
(382,433,o),
(411,583,o),
(483,583,cs),
(520,583,o),
(541,558,o),
(541,509,cs),
(541,457,o),
(515,307,o),
(439,307,cs)
);
}
);
width = 667;
}
);
metricLeft = "=|heNunavik-canadian";
metricRight = "=|ke-canadian";
note = uni1575;
unicode = 5493;
},
{
glyphname = "hoNunavik-canadian";
lastChange = "2023-01-13 15:56:53 +0000";
layers = (
{
anchors = (
{
name = top_center_can;
pos = (342,690);
},
{
name = top_right_can;
pos = (485,690);
}
);
layerId = "ABE41ABD-D787-4F86-A3B4-502CADE9F2A5";
shapes = (
{
closed = 1;
nodes = (
(341,-14,o),
(425,70,o),
(458,224,cs),
(530,569,l),
(484,555,l),
(608,411,l),
(704,495,l),
(540,690,l),
(414,690,l),
(350,388,l),
(372,429,l),
(373,470,o),
(328,503,o),
(266,503,cs),
(101,503,o),
(33,307,o),
(33,183,cs),
(33,59,o),
(101,-14,o),
(215,-14,cs)
);
},
{
closed = 1;
nodes = (
(190,106,o),
(169,131,o),
(169,181,cs),
(169,233,o),
(195,383,o),
(271,383,cs),
(309,383,o),
(329,357,o),
(329,308,cs),
(329,257,o),
(300,106,o),
(227,106,cs)
);
}
);
width = 668;
}
);
metricLeft = "ke-canadian";
metricRight = "heNunavik-canadian";
note = uni1577;
unicode = 5495;
},
{
glyphname = "haNunavik-canadian";
lastChange = "2023-01-13 15:56:53 +0000";
layers = (
{
anchors = (
{
name = top_center_can;
pos = (514,690);
},
{
name = top_left_can;
pos = (372,690);
}
);
layerId = "ABE41ABD-D787-4F86-A3B4-502CADE9F2A5";
shapes = (
{
closed = 1;
nodes = (
(566,-14,o),
(636,175,o),
(636,315,cs),
(636,432,o),
(578,503,o),
(480,503,cs),
(433,503,o),
(394,480,o),
(368,432,c),
(386,426,l),
(442,690,l),
(316,690,l),
(70,494,l),
(145,396,l),
(317,531,l),
(273,564,l),
(211,269,ls),
(182,130,o),
(218,-14,o),
(383,-14,cs)
);
},
{
closed = 1;
nodes = (
(358,106,o),
(338,131,o),
(338,182,cs),
(338,233,o),
(363,383,o),
(440,383,cs),
(477,383,o),
(498,357,o),
(498,308,cs),
(498,257,o),
(472,106,o),
(396,106,cs)
);
}
);
width = 668;
}
);
metricLeft = "=|heNunavik-canadian";
metricRight = "=|ke-canadian";
note = uni1579;
unicode = 5497;
},
{
glyphname = "hNunavik-canadian";
kernLeft = mwestleft;
kernRight = mwestright;
lastChange = "2023-01-13 15:56:53 +0000";
layers = (
{
layerId = "ABE41ABD-D787-4F86-A3B4-502CADE9F2A5";
shapes = (
{
closed = 1;
nodes = (
(366,339,o),
(408,443,o),
(408,509,cs),
(408,565,o),
(377,601,o),
(327,601,cs),
(296,601,o),
(272,587,o),
(254,552,c),
(270,527,l),
(304,690,l),
(219,690,l),
(97,593,l),
(141,538,l),
(245,622,l),
(209,669,l),
(168,479,ls),
(152,400,o),
(186,339,o),
(265,339,cs)
);
},
{
closed = 1;
nodes = (
(256,408,o),
(246,419,o),
(246,443,cs),
(246,487,o),
(266,532,o),
(297,532,cs),
(314,532,o),
(325,522,o),
(325,497,cs),
(325,456,o),
(304,408,o),
(273,408,cs)
);
}
);
width = 390;
}
);
metricRight = "k-canadian";
note = uni157B;
unicode = 5499;
},
{
color = 4;
glyphname = "nunavuth-canadian";
lastChange = "2023-01-13 15:56:50 +0000";
layers = (
{
layerId = "ABE41ABD-D787-4F86-A3B4-502CADE9F2A5";
shapes = (
{
closed = 1;
nodes = (
(141,0,l),
(204,293,l),
(415,293,l),
(354,0,l),
(496,0,l),
(642,690,l),
(500,690,l),
(442,419,l),
(231,419,l),
(288,690,l),
(146,690,l),
(-1,0,l)
);
}
);
width = 599;
}
);
metricRight = "=|";
note = uni157C;
unicode = 5500;
},
{
glyphname = "tlhe-canadian";
lastChange = "2023-01-13 15:56:50 +0000";
layers = (
{
anchors = (
{
name = top_center_can;
pos = (358,690);
}
);
layerId = "ABE41ABD-D787-4F86-A3B4-502CADE9F2A5";
shapes = (
{
closed = 1;
nodes = (
(144,0,l),
(307,277,l),
(203,219,l),
(213,217,o),
(223,216,o),
(233,216,cs),
(281,216,o),
(325,234,o),
(361,275,c),
(350,317,l),
(282,0,l),
(423,0,l),
(518,444,ls),
(545,571,o),
(505,703,o),
(344,703,cs),
(166,703,o),
(92,539,o),
(92,404,cs),
(92,346,o),
(111,294,o),
(152,262,c),
(-4,0,l)
);
},
{
closed = 1;
nodes = (
(244,338,o),
(226,368,o),
(226,412,cs),
(226,465,o),
(253,583,o),
(327,583,cs),
(368,583,o),
(386,554,o),
(386,511,cs),
(386,458,o),
(358,338,o),
(285,338,cs)
);
}
);
width = 524;
}
);
metricRight = "te-canadian";
note = uni1586;
unicode = 5510;
},
{
glyphname = "tlhi-canadian";
lastChange = "2023-01-13 15:56:53 +0000";
layers = (
{
layerId = "ABE41ABD-D787-4F86-A3B4-502CADE9F2A5";
shapes = (
{
closed = 1;
nodes = (
(137,0,l),
(206,326,l),
(151,302,l),
(181,249,o),
(221,222,o),
(284,220,c),
(233,251,l),
(275,0,l),
(424,0,l),
(383,244,l),
(484,286,o),
(527,417,o),
(527,508,cs),
(527,626,o),
(456,703,o),
(335,703,cs),
(213,703,o),
(129,627,o),
(96,469,cs),
(-4,0,l)
);
},
{
closed = 1;
nodes = (
(250,338,o),
(229,364,o),
(229,411,cs),
(229,462,o),
(256,583,o),
(330,583,cs),
(370,583,o),
(390,557,o),
(390,511,cs),
(390,459,o),
(364,338,o),
(290,338,cs)
);
}
);
width = 526;
}
);
metricLeft = "te-canadian";
metricRight = "=|tlhe-canadian";
note = uni1587;
unicode = 5511;
},
{
glyphname = "tlho-canadian";
lastChange = "2023-01-13 15:56:53 +0000";
layers = (
{
anchors = (
{
name = top_center_can;
pos = (366,690);
}
);
layerId = "ABE41ABD-D787-4F86-A3B4-502CADE9F2A5";
shapes = (
{
closed = 1;
nodes = (
(355,-14,o),
(439,63,o),
(473,221,cs),
(573,690,l),
(432,690,l),
(363,364,l),
(418,387,l),
(388,440,o),
(349,468,o),
(285,469,c),
(336,439,l),
(294,690,l),
(146,690,l),
(186,445,l),
(85,404,o),
(42,272,o),
(42,182,cs),
(42,64,o),
(113,-14,o),
(234,-14,cs)
);
},
{
closed = 1;
nodes = (
(200,106,o),
(180,132,o),
(180,179,cs),
(180,231,o),
(205,352,o),
(280,352,cs),
(319,352,o),
(340,326,o),
(340,279,cs),
(340,228,o),
(314,106,o),
(240,106,cs)
);
}
);
width = 526;
}
);
metricLeft = "tlhe-canadian";
metricRight = "te-canadian";
note = uni1588;
unicode = 5512;
},
{
glyphname = "tlha-canadian";
lastChange = "2023-01-13 15:56:50 +0000";
layers = (
{
layerId = "ABE41ABD-D787-4F86-A3B4-502CADE9F2A5";
shapes = (
{
closed = 1;
nodes = (
(401,-14,o),
(474,151,o),
(474,286,cs),
(474,344,o),
(456,396,o),
(415,428,c),
(571,690,l),
(422,690,l),
(260,412,l),
(364,470,l),
(355,472,o),
(344,473,o),
(334,473,cs),
(285,473,o),
(242,456,o),
(206,414,c),
(217,373,l),
(284,690,l),
(143,690,l),
(49,245,ls),
(22,119,o),
(61,-14,o),
(222,-14,cs)
);
},
{
closed = 1;
nodes = (
(198,106,o),
(181,136,o),
(181,179,cs),
(181,232,o),
(208,352,o),
(281,352,cs),
(322,352,o),
(341,322,o),
(341,278,cs),
(341,225,o),
(313,106,o),
(240,106,cs)
);
}
);
width = 525;
}
);
metricLeft = "te-canadian";
note = uni1589;
unicode = 5513;
},
{
glyphname = "reWestCree-canadian";
lastChange = "2023-01-13 15:56:53 +0000";
layers = (
{
layerId = "ABE41ABD-D787-4F86-A3B4-502CADE9F2A5";
shapes = (
{
closed = 1;
nodes = (
(385,0,l),
(633,199,l),
(555,295,l),
(386,159,l),
(428,128,l),
(497,453,ls),
(529,609,o),
(461,703,o),
(324,703,cs),
(193,703,o),
(118,629,o),
(84,472,cs),
(65,382,l),
(206,382,l),
(228,487,ls),
(242,553,o),
(266,580,o),
(307,580,cs),
(356,580,o),
(376,545,o),
(362,481,cs),
(260,0,l)
);
}
);
width = 660;
}
);
metricLeft = "ce-canadian";
metricRight = "heNunavik-canadian";
note = uni158A;
unicode = 5514;
},
{
glyphname = "riWestCree-canadian";
lastChange = "2023-01-13 15:56:53 +0000";
layers = (
{
layerId = "ABE41ABD-D787-4F86-A3B4-502CADE9F2A5";
shapes = (
{
closed = 1;
nodes = (
(295,0,l),
(397,487,ls),
(412,552,o),
(436,580,o),
(477,580,cs),
(526,580,o),
(546,546,o),
(531,481,cs),
(510,382,l),
(651,382,l),
(667,453,ls),
(699,609,o),
(629,703,o),
(492,703,cs),
(361,703,o),
(287,629,o),
(253,472,cs),
(180,127,l),
(229,139,l),
(110,284,l),
(7,199,l),
(169,0,l)
);
}
);
width = 659;
}
);
metricLeft = "=|heNunavik-canadian";
metricRight = "=|ce-canadian";
note = uni158B;
unicode = 5515;
},
{
glyphname = "roWestCree-canadian";
lastChange = "2023-01-13 15:56:53 +0000";
layers = (
{
layerId = "ABE41ABD-D787-4F86-A3B4-502CADE9F2A5";
shapes = (
{
closed = 1;
nodes = (
(340,-14,o),
(414,61,o),
(447,217,cs),
(521,563,l),
(472,551,l),
(592,406,l),
(695,491,l),
(532,690,l),
(407,690,l),
(303,203,ls),
(290,138,o),
(265,110,o),
(224,110,cs),
(176,110,o),
(156,144,o),
(169,209,cs),
(190,308,l),
(49,308,l),
(35,237,ls),
(1,81,o),
(72,-14,o),
(209,-14,cs)
);
}
);
width = 660;
}
);
metricLeft = "ce-canadian";
metricRight = "heNunavik-canadian";
note = uni158C;
unicode = 5516;
},
{
glyphname = "raWestCree-canadian";
lastChange = "2023-01-13 15:56:53 +0000";
layers = (
{
layerId = "ABE41ABD-D787-4F86-A3B4-502CADE9F2A5";
shapes = (
{
closed = 1;
nodes = (
(508,-14,o),
(583,61,o),
(617,217,cs),
(637,308,l),
(496,308,l),
(473,203,ls),
(459,137,o),
(436,110,o),
(394,110,cs),
(345,110,o),
(326,145,o),
(339,209,cs),
(441,690,l),
(316,690,l),
(69,491,l),
(146,395,l),
(316,530,l),
(273,562,l),
(205,237,ls),
(172,81,o),
(241,-14,o),
(378,-14,cs)
);
}
);
width = 660;
}
);
metricLeft = "=|heNunavik-canadian";
metricRight = "=|ce-canadian";
note = uni158D;
unicode = 5517;
},
{
glyphname = "ng-canadian";
kernLeft = mwestleft;
kernRight = mwestright;
lastChange = "2023-01-13 15:56:50 +0000";
layers = (
{
layerId = "ABE41ABD-D787-4F86-A3B4-502CADE9F2A5";
shapes = (
{
closed = 1;
nodes = (
(465,217,o),
(511,259,o),
(527,338,cs),
(533,368,l),
(446,368,l),
(438,330,ls),
(432,303,o),
(420,291,o),
(402,291,cs),
(381,291,o),
(373,305,o),
(379,331,cs),
(419,524,l),
(286,524,l),
(293,474,l),
(316,493,o),
(333,535,o),
(337,573,cs),
(347,643,o),
(307,696,o),
(235,696,cs),
(160,696,o),
(113,636,o),
(102,565,cs),
(91,486,o),
(133,434,o),
(208,434,cs),
(343,434,l),
(318,489,l),
(290,357,ls),
(271,271,o),
(312,217,o),
(393,217,cs)
);
},
{
closed = 1;
nodes = (
(189,502,o),
(180,521,o),
(184,555,cs),
(188,590,o),
(203,627,o),
(230,627,cs),
(250,627,o),
(260,609,o),
(255,575,cs),
(251,540,o),
(237,502,o),
(209,502,cs)
);
}
);
width = 531;
}
);
metricLeft = "n-canadian";
metricRight = "c-canadian";
note = uni1595;
unicode = 5525;
},
{
glyphname = "nng-canadian";
kernLeft = mwestleft;
kernRight = mwestright;
lastChange = "2023-01-13 15:56:53 +0000";
layers = (
{
layerId = "ABE41ABD-D787-4F86-A3B4-502CADE9F2A5";
shapes = (
{
closed = 1;
nodes = (
(727,217,o),
(773,259,o),
(789,338,cs),
(796,368,l),
(709,368,l),
(700,330,ls),
(695,303,o),
(683,291,o),
(664,291,cs),
(643,291,o),
(635,305,o),
(640,331,cs),
(682,524,l),
(562,524,l),
(555,474,l),
(585,499,o),
(603,553,o),
(603,590,cs),
(603,655,o),
(563,696,o),
(498,696,cs),
(411,696,o),
(364,614,o),
(364,541,cs),
(364,519,o),
(369,500,o),
(381,483,c),
(391,524,l),
(301,524,l),
(293,474,l),
(323,499,o),
(340,554,o),
(340,590,cs),
(340,652,o),
(300,696,o),
(236,696,cs),
(148,696,o),
(101,614,o),
(101,541,cs),
(101,476,o),
(142,434,o),
(209,434,cs),
(568,434,l),
(552,357,ls),
(533,271,o),
(575,217,o),
(656,217,cs)
);
},
{
closed = 1;
nodes = (
(193,502,o),
(184,516,o),
(184,539,cs),
(184,568,o),
(197,627,o),
(231,627,cs),
(248,627,o),
(258,614,o),
(258,590,cs),
(258,561,o),
(244,502,o),
(210,502,cs)
);
},
{
closed = 1;
nodes = (
(456,502,o),
(446,516,o),
(446,539,cs),
(446,568,o),
(460,627,o),
(494,627,cs),
(511,627,o),
(521,614,o),
(521,590,cs),
(521,561,o),
(507,502,o),
(473,502,cs)
);
}
);
width = 794;
}
);
metricLeft = "n-canadian";
metricRight = "c-canadian";
note = uni1596;
unicode = 5526;
},
{
glyphname = "sheSayisi-canadian";
lastChange = "2023-01-13 15:56:53 +0000";
layers = (
{
anchors = (
{
name = middle_right_can;
pos = (610,345);
},
{
name = top_center_can;
pos = (353,690);
}
);
layerId = "ABE41ABD-D787-4F86-A3B4-502CADE9F2A5";
shapes = (
{
closed = 1;
nodes = (
(418,0,l),
(510,429,ls),
(545,597,o),
(481,703,o),
(338,703,cs),
(140,703,o),
(69,489,o),
(69,347,cs),
(69,246,o),
(110,187,o),
(187,187,cs),
(267,187,o),
(306,250,o),
(334,413,c),
(277,413,l),
(264,331,o),
(250,303,o),
(227,303,cs),
(210,303,o),
(201,319,o),
(201,349,cs),
(201,399,o),
(233,583,o),
(319,583,cs),
(376,583,o),
(388,527,o),
(367,428,cs),
(275,0,l)
);
}
);
width = 519;
}
);
metricLeft = "ke-canadian";
metricRight = "te-canadian";
note = uni1597;
unicode = 5527;
},
{
glyphname = "shiSayisi-canadian";
lastChange = "2023-01-13 15:56:53 +0000";
layers = (
{
layerId = "ABE41ABD-D787-4F86-A3B4-502CADE9F2A5";
shapes = (
{
closed = 1;
nodes = (
(139,0,l),
(234,444,ls),
(254,542,o),
(283,583,o),
(331,583,cs),
(373,583,o),
(394,556,o),
(394,502,cs),
(394,460,o),
(367,303,o),
(324,303,cs),
(298,303,o),
(292,329,o),
(312,413,c),
(256,413,l),
(217,263,o),
(249,187,o),
(344,187,cs),
(476,187,o),
(528,397,o),
(528,499,cs),
(528,627,o),
(458,703,o),
(335,703,cs),
(212,703,o),
(129,624,o),
(97,471,cs),
(-4,0,l)
);
}
);
width = 520;
}
);
metricLeft = "te-canadian";
metricRight = "=|ke-canadian";
note = uni1598;
unicode = 5528;
},
{
glyphname = "shoSayisi-canadian";
lastChange = "2023-01-13 15:56:53 +0000";
layers = (
{
anchors = (
{
name = top_center_can;
pos = (350,690);
},
{
name = top_left_can;
pos = (201,690);
},
{
name = top_right_can;
pos = (496,690);
}
);
layerId = "ABE41ABD-D787-4F86-A3B4-502CADE9F2A5";
shapes = (
{
closed = 1;
nodes = (
(352,-14,o),
(434,66,o),
(467,218,cs),
(567,690,l),
(424,690,l),
(329,245,ls),
(309,148,o),
(280,106,o),
(232,106,cs),
(190,106,o),
(169,133,o),
(169,187,cs),
(169,230,o),
(196,386,o),
(240,386,cs),
(266,386,o),
(271,360,o),
(251,276,c),
(307,276,l),
(346,427,o),
(314,502,o),
(219,502,cs),
(87,502,o),
(35,293,o),
(35,190,cs),
(35,63,o),
(105,-14,o),
(228,-14,cs)
);
}
);
width = 521;
}
);
metricLeft = "ke-canadian";
metricRight = "te-canadian";
note = uni1599;
unicode = 5529;
},
{
glyphname = "shaSayisi-canadian";
lastChange = "2023-01-13 15:56:50 +0000";
layers = (
{
layerId = "ABE41ABD-D787-4F86-A3B4-502CADE9F2A5";
shapes = (
{
closed = 1;
nodes = (
(422,-14,o),
(494,201,o),
(494,343,cs),
(494,443,o),
(452,502,o),
(375,502,cs),
(296,502,o),
(255,440,o),
(228,276,c),
(284,276,l),
(298,358,o),
(312,386,o),
(335,386,cs),
(353,386,o),
(361,371,o),
(361,341,cs),
(361,291,o),
(329,106,o),
(242,106,cs),
(186,106,o),
(174,162,o),
(195,262,cs),
(286,690,l),
(144,690,l),
(52,261,ls),
(17,93,o),
(80,-14,o),
(224,-14,cs)
);
}
);
width = 521;
}
);
metricLeft = "te-canadian";
metricRight = "=|ke-canadian";
note = uni159A;
unicode = 5530;
},
{
glyphname = "theWoodScree-canadian";
lastChange = "2023-01-13 15:56:50 +0000";
layers = (
{
layerId = "ABE41ABD-D787-4F86-A3B4-502CADE9F2A5";
shapes = (
{
closed = 1;
nodes = (
(581,-14,o),
(652,166,o),
(652,290,cs),
(652,412,o),
(579,489,o),
(455,489,cs),
(94,489,l),
(70,372,l),
(310,372,l),
(304,411,l),
(240,361,o),
(214,255,o),
(214,185,cs),
(214,66,o),
(287,-14,o),
(405,-14,cs)
);
},
{
closed = 1;
nodes = (
(374,106,o),
(352,135,o),
(352,185,cs),
(352,238,o),
(379,371,o),
(454,371,cs),
(494,371,o),
(515,343,o),
(515,293,cs),
(515,239,o),
(488,106,o),
(412,106,cs)
);
},
{
closed = 1;
nodes = (
(711,573,l),
(735,690,l),
(137,690,l),
(112,573,l)
);
}
);
width = 692;
}
);
note = uni159B;
unicode = 5531;
},
{
glyphname = "thiWoodScree-canadian";
kernRight = niright;
lastChange = "2023-01-13 15:56:50 +0000";
layers = (
{
layerId = "ABE41ABD-D787-4F86-A3B4-502CADE9F2A5";
shapes = (
{
closed = 1;
nodes = (
(404,-14,o),
(476,166,o),
(476,290,cs),
(476,328,o),
(468,359,o),
(451,383,c),
(438,372,l),
(678,372,l),
(702,489,l),
(302,489,ls),
(101,489,o),
(38,306,o),
(38,185,cs),
(38,66,o),
(110,-14,o),
(229,-14,cs)
);
},
{
closed = 1;
nodes = (
(197,106,o),
(176,135,o),
(176,185,cs),
(176,238,o),
(202,371,o),
(278,371,cs),
(318,371,o),
(339,343,o),
(339,293,cs),
(339,239,o),
(312,106,o),
(237,106,cs)
);
},
{
closed = 1;
nodes = (
(721,573,l),
(746,690,l),
(148,690,l),
(123,573,l)
);
}
);
width = 693;
}
);
metricLeft = "theWoodScree-canadian";
metricRight = "theWoodScree-canadian";
note = uni159C;
unicode = 5532;
},
{
glyphname = "thoWoodScree-canadian";
lastChange = "2023-01-13 15:56:53 +0000";
layers = (
{
layerId = "ABE41ABD-D787-4F86-A3B4-502CADE9F2A5";
shapes = (
{
closed = 1;
nodes = (
(391,0,ls),
(592,0,o),
(656,183,o),
(656,304,cs),
(656,423,o),
(583,503,o),
(466,503,cs),
(290,503,o),
(217,323,o),
(217,199,cs),
(217,161,o),
(226,129,o),
(243,106,c),
(256,117,l),
(16,117,l),
(-9,0,l)
);
},
{
closed = 1;
nodes = (
(377,119,o),
(356,146,o),
(356,196,cs),
(356,251,o),
(383,383,o),
(457,383,cs),
(497,383,o),
(519,355,o),
(519,304,cs),
(519,251,o),
(492,119,o),
(416,119,cs)
);
},
{
closed = 1;
nodes = (
(711,573,l),
(736,690,l),
(137,690,l),
(112,573,l)
);
}
);
width = 694;
}
);
metricLeft = "theWoodScree-canadian";
metricRight = "theWoodScree-canadian";
note = uni159D;
unicode = 5533;
},
{
glyphname = "thaWoodScree-canadian";
lastChange = "2023-01-13 15:56:50 +0000";
layers = (
{
layerId = "ABE41ABD-D787-4F86-A3B4-502CADE9F2A5";
shapes = (
{
closed = 1;
nodes = (
(598,0,l),
(623,117,l),
(382,117,l),
(387,78,l),
(452,128,o),
(478,234,o),
(478,303,cs),
(478,423,o),
(405,503,o),
(287,503,cs),
(111,503,o),
(40,323,o),
(40,199,cs),
(40,78,o),
(113,0,o),
(237,0,cs)
);
},
{
closed = 1;
nodes = (
(198,119,o),
(177,146,o),
(177,196,cs),
(177,251,o),
(204,383,o),
(279,383,cs),
(319,383,o),
(340,355,o),
(340,304,cs),
(340,251,o),
(314,119,o),
(238,119,cs)
);
},
{
closed = 1;
nodes = (
(719,573,l),
(744,690,l),
(146,690,l),
(121,573,l)
);
}
);
width = 692;
}
);
metricLeft = "theWoodScree-canadian";
metricRight = "theWoodScree-canadian";
note = uni159E;
unicode = 5534;
},
{
glyphname = "thWoodScree-canadian";
lastChange = "2023-01-13 15:56:50 +0000";
layers = (
{
layerId = "ABE41ABD-D787-4F86-A3B4-502CADE9F2A5";
shapes = (
{
closed = 1;
nodes = (
(395,344,l),
(413,426,l),
(282,426,l),
(278,383,l),
(312,406,o),
(330,462,o),
(330,501,cs),
(330,565,o),
(291,606,o),
(226,606,cs),
(138,606,o),
(92,525,o),
(92,451,cs),
(92,385,o),
(132,344,o),
(199,344,cs)
);
},
{
closed = 1;
nodes = (
(184,412,o),
(174,426,o),
(174,449,cs),
(174,478,o),
(187,537,o),
(221,537,cs),
(239,537,o),
(248,524,o),
(248,500,cs),
(248,471,o),
(235,412,o),
(201,412,cs)
);
},
{
closed = 1;
nodes = (
(449,647,l),
(467,729,l),
(150,729,l),
(131,647,l)
);
}
);
width = 418;
}
);
metricRight = "=|";
note = uni159F;
unicode = 5535;
},
{
glyphname = "lhi-canadian";
kernRight = niright;
lastChange = "2023-01-13 15:56:53 +0000";
layers = (
{
anchors = (
{
name = top_center_can;
pos = (457,690);
},
{
name = top_right_can;
pos = (557,690);
}
);
layerId = "ABE41ABD-D787-4F86-A3B4-502CADE9F2A5";
shapes = (
{
closed = 1;
nodes = (
(269,0,l),
(295,125,l),
(271,125,ls),
(214,125,o),
(180,160,o),
(180,216,cs),
(180,282,o),
(217,360,o),
(323,360,cs),
(671,360,l),
(695,474,l),
(598,737,l),
(468,688,l),
(565,425,l),
(616,489,l),
(334,489,ls),
(147,489,o),
(38,374,o),
(38,213,cs),
(38,89,o),
(119,0,o),
(242,0,cs)
);
}
);
width = 683;
}
);
metricLeft = "ke-canadian";
metricRight = "=|ne-canadian";
note = uni15A0;
unicode = 5536;
},
{
glyphname = "lho-canadian";
kernLeft = noleft;
lastChange = "2023-01-13 15:56:53 +0000";
layers = (
{
anchors = (
{
name = top_center_can;
pos = (395,506);
},
{
name = top_right_can;
pos = (483,506);
}
);
layerId = "ABE41ABD-D787-4F86-A3B4-502CADE9F2A5";
shapes = (
{
closed = 1;
nodes = (
(216,-199,l),
(119,64,l),
(68,0,l),
(350,0,ls),
(536,0,o),
(645,115,o),
(645,276,cs),
(645,400,o),
(565,489,o),
(441,489,cs),
(415,489,l),
(389,364,l),
(412,364,ls),
(470,364,o),
(504,328,o),
(504,272,cs),
(504,207,o),
(467,128,o),
(361,128,cs),
(13,128,l),
(-12,14,l),
(86,-248,l)
);
}
);
width = 683;
}
);
metricLeft = "ne-canadian";
metricRight = "=|ke-canadian";
note = uni15A2;
unicode = 5538;
},
{
glyphname = "lha-canadian";
kernRight = naright;
lastChange = "2023-01-13 15:56:53 +0000";
layers = (
{
anchors = (
{
name = top_center_can;
pos = (400,506);
},
{
name = top_left_can;
pos = (311,506);
}
);
layerId = "ABE41ABD-D787-4F86-A3B4-502CADE9F2A5";
shapes = (
{
closed = 1;
nodes = (
(597,14,l),
(621,128,l),
(281,128,ls),
(213,128,o),
(178,161,o),
(178,219,cs),
(178,287,o),
(215,364,o),
(322,364,cs),
(344,364,l),
(371,489,l),
(341,489,ls),
(147,489,o),
(37,374,o),
(37,206,cs),
(37,81,o),
(118,0,o),
(254,0,cs),
(502,0,l),
(466,59,l),
(285,-169,l),
(385,-249,l)
);
}
);
width = 683;
}
);
metricLeft = "ke-canadian";
metricRight = "=|ne-canadian";
note = uni15A4;
unicode = 5540;
},
{
glyphname = "lh-canadian";
kernLeft = mwestleft;
kernRight = mwestright;
lastChange = "2023-01-13 15:56:53 +0000";
layers = (
{
layerId = "ABE41ABD-D787-4F86-A3B4-502CADE9F2A5";
shapes = (
{
closed = 1;
nodes = (
(385,355,l),
(403,434,l),
(254,434,ls),
(213,434,o),
(189,456,o),
(189,495,cs),
(189,542,o),
(213,602,o),
(287,602,cs),
(296,602,l),
(315,690,l),
(300,690,ls),
(157,690,o),
(95,588,o),
(95,482,cs),
(95,394,o),
(152,345,o),
(247,345,cs),
(342,345,l),
(308,404,l),
(197,265,l),
(266,207,l)
);
}
);
width = 402;
}
);
metricLeft = "t-canadian";
metricRight = "=|";
note = uni15A6;
unicode = 5542;
},
{
glyphname = "theThCree-canadian";
lastChange = "2023-01-13 15:56:50 +0000";
layers = (
{
anchors = (
{
name = top_left_can;
pos = (191,690);
},
{
name = top_right_can;
pos = (466,690);
}
);
layerId = "ABE41ABD-D787-4F86-A3B4-502CADE9F2A5";
shapes = (
{
closed = 1;
nodes = (
(266,82,l),
(248,0,l),
(390,0,l),
(408,82,l),
(466,82,l),
(482,159,l),
(424,159,l),
(464,345,l),
(217,345,l),
(239,298,l),
(532,615,l),
(436,701,l),
(29,258,l),
(21,221,l),
(295,221,l),
(282,159,l),
(106,159,l),
(90,82,l)
);
}
);
width = 525;
}
);
metricLeft = "ye-canadian";
note = uni15A7;
unicode = 5543;
},
{
glyphname = "thiThCree-canadian";
kernRight = yiright;
lastChange = "2023-01-13 15:56:50 +0000";
layers = (
{
anchors = (
{
name = top_left_can;
pos = (249,690);
},
{
name = top_right_can;
pos = (524,690);
}
);
layerId = "ABE41ABD-D787-4F86-A3B4-502CADE9F2A5";
shapes = (
{
closed = 1;
nodes = (
(173,0,l),
(190,82,l),
(366,82,l),
(382,159,l),
(207,159,l),
(219,221,l),
(493,221,l),
(500,258,l),
(258,701,l),
(145,638,l),
(337,290,l),
(370,345,l),
(103,345,l),
(64,159,l),
(6,159,l),
(-11,82,l),
(48,82,l),
(30,0,l)
);
}
);
width = 524;
}
);
metricLeft = "=|theThCree-canadian";
metricRight = "=|ye-canadian";
note = uni15A8;
unicode = 5544;
},
{
glyphname = "thoThCree-canadian";
kernLeft = yoleft;
lastChange = "2023-01-13 15:56:50 +0000";
layers = (
{
anchors = (
{
name = top_left_can;
pos = (191,690);
},
{
name = top_right_can;
pos = (466,690);
}
);
layerId = "ABE41ABD-D787-4F86-A3B4-502CADE9F2A5";
shapes = (
{
closed = 1;
nodes = (
(422,52,l),
(230,400,l),
(197,345,l),
(463,345,l),
(502,530,l),
(561,530,l),
(578,608,l),
(519,608,l),
(536,690,l),
(394,690,l),
(376,608,l),
(201,608,l),
(185,530,l),
(360,530,l),
(347,469,l),
(74,469,l),
(66,432,l),
(309,-12,l)
);
}
);
width = 525;
}
);
metricLeft = "ye-canadian";
metricRight = "theThCree-canadian";
note = uni15AA;
unicode = 5546;
},
{
glyphname = "thaThCree-canadian";
kernRight = yaright;
lastChange = "2023-01-13 15:56:53 +0000";
layers = (
{
anchors = (
{
name = top_left_can;
pos = (249,690);
},
{
name = top_right_can;
pos = (524,690);
}
);
layerId = "ABE41ABD-D787-4F86-A3B4-502CADE9F2A5";
shapes = (
{
closed = 1;
nodes = (
(539,432,l),
(547,469,l),
(273,469,l),
(286,530,l),
(462,530,l),
(478,608,l),
(302,608,l),
(320,690,l),
(178,690,l),
(159,608,l),
(101,608,l),
(86,530,l),
(144,530,l),
(104,345,l),
(351,345,l),
(329,391,l),
(36,74,l),
(132,-12,l)
);
}
);
width = 525;
}
);
metricLeft = "=|theThCree-canadian";
metricRight = "=|ye-canadian";
note = uni15AC;
unicode = 5548;
},
{
glyphname = "thThCree-canadian";
kernLeft = mwestleft;
kernRight = mwestright;
lastChange = "2023-01-13 15:56:50 +0000";
layers = (
{
layerId = "ABE41ABD-D787-4F86-A3B4-502CADE9F2A5";
shapes = (
{
closed = 1;
nodes = (
(141,614,l),
(117,501,l),
(254,501,l),
(233,549,l),
(89,391,l),
(154,336,l),
(351,554,l),
(356,580,l),
(227,580,l),
(235,614,l),
(314,614,l),
(323,654,l),
(243,654,l),
(251,690,l),
(157,690,l),
(150,654,l),
(120,654,l),
(111,614,l)
);
}
);
width = 306;
}
);
metricRight = "y-canadian";
note = uni15AE;
unicode = 5550;
},
{
glyphname = "bAivilik-canadian";
lastChange = "2023-01-13 15:56:53 +0000";
layers = (
{
layerId = "ABE41ABD-D787-4F86-A3B4-502CADE9F2A5";
shapes = (
{
closed = 1;
nodes = (
(410,-14,o),
(483,175,o),
(483,315,cs),
(483,431,o),
(424,503,o),
(327,503,cs),
(281,503,o),
(242,480,o),
(215,433,c),
(231,422,l),
(288,690,l),
(146,690,l),
(-1,0,l),
(129,0,l),
(147,81,l),
(135,68,l),
(145,15,o),
(187,-14,o),
(248,-14,cs)
);
},
{
closed = 1;
nodes = (
(206,106,o),
(185,131,o),
(185,182,cs),
(185,233,o),
(211,383,o),
(287,383,cs),
(324,383,o),
(345,357,o),
(345,308,cs),
(345,257,o),
(320,106,o),
(243,106,cs)
);
}
);
width = 515;
}
);
metricLeft = "nunavuth-canadian";
metricRight = "=|ke-canadian";
note = uni15AF;
unicode = 5551;
},
{
glyphname = "eBlackfoot-canadian";
lastChange = "2023-01-13 15:56:50 +0000";
layers = (
{
layerId = "ABE41ABD-D787-4F86-A3B4-502CADE9F2A5";
shapes = (
{
closed = 1;
nodes = (
(141,0,l),
(229,410,l),
(246,369,o),
(288,344,o),
(341,344,cs),
(465,344,o),
(520,470,o),
(520,561,cs),
(520,646,o),
(470,703,o),
(389,703,cs),
(344,703,o),
(300,684,o),
(272,650,c),
(280,690,l),
(146,690,l),
(-1,0,l)
);
}
);
width = 490;
}
);
metricLeft = "nunavuth-canadian";
note = uni15B0;
unicode = 5552;
},
{
glyphname = "iBlackfoot-canadian";
lastChange = "2023-01-13 15:56:53 +0000";
layers = (
{
layerId = "ABE41ABD-D787-4F86-A3B4-502CADE9F2A5";
shapes = (
{
closed = 1;
nodes = (
(189,-14,o),
(233,6,o),
(261,40,c),
(253,0,l),
(387,0,l),
(534,690,l),
(392,690,l),
(304,280,l),
(287,321,o),
(245,346,o),
(192,346,cs),
(69,346,o),
(13,219,o),
(13,128,cs),
(13,43,o),
(63,-14,o),
(144,-14,cs)
);
}
);
width = 490;
}
);
metricLeft = "=|eBlackfoot-canadian";
metricRight = "nunavuth-canadian";
note = uni15B1;
unicode = 5553;
},
{
glyphname = "oBlackfoot-canadian";
lastChange = "2023-01-13 15:56:53 +0000";
layers = (
{
layerId = "ABE41ABD-D787-4F86-A3B4-502CADE9F2A5";
shapes = (
{
closed = 1;
nodes = (
(388,-14,o),
(444,113,o),
(444,204,cs),
(444,289,o),
(395,346,o),
(315,346,cs),
(273,346,o),
(235,330,o),
(206,303,c),
(288,690,l),
(146,690,l),
(-1,0,l),
(133,0,l),
(148,66,l),
(162,17,o),
(207,-14,o),
(266,-14,cs)
);
}
);
width = 490;
}
);
metricLeft = "nunavuth-canadian";
metricRight = "eBlackfoot-canadian";
note = uni15B2;
unicode = 5554;
},
{
glyphname = "aBlackfoot-canadian";
lastChange = "2023-01-13 15:56:53 +0000";
layers = (
{
layerId = "ABE41ABD-D787-4F86-A3B4-502CADE9F2A5";
shapes = (
{
closed = 1;
nodes = (
(386,0,l),
(533,690,l),
(399,690,l),
(385,624,l),
(371,672,o),
(327,703,o),
(268,703,cs),
(144,703,o),
(89,577,o),
(89,486,cs),
(89,401,o),
(138,344,o),
(217,344,cs),
(260,344,o),
(298,359,o),
(327,386,c),
(244,0,l)
);
}
);
width = 489;
}
);
metricLeft = "=|eBlackfoot-canadian";
metricRight = "nunavuth-canadian";
note = uni15B3;
unicode = 5555;
},
{
glyphname = "weBlackfoot-canadian";
lastChange = "2023-01-13 15:56:50 +0000";
layers = (
{
layerId = "ABE41ABD-D787-4F86-A3B4-502CADE9F2A5";
shapes = (
{
closed = 1;
nodes = (
(141,0,l),
(202,282,l),
(471,282,l),
(497,404,l),
(227,404,l),
(263,569,l),
(532,569,l),
(557,690,l),
(146,690,l),
(-1,0,l)
);
}
);
width = 506;
}
);
metricLeft = "nunavuth-canadian";
note = uni15B4;
unicode = 5556;
},
{
glyphname = "wiBlackfoot-canadian";
lastChange = "2023-01-13 15:56:53 +0000";
layers = (
{
layerId = "ABE41ABD-D787-4F86-A3B4-502CADE9F2A5";
shapes = (
{
closed = 1;
nodes = (
(404,0,l),
(551,690,l),
(408,690,l),
(348,408,l),
(79,408,l),
(53,286,l),
(322,286,l),
(287,121,l),
(17,121,l),
(-8,0,l)
);
}
);
width = 507;
}
);
metricLeft = "=|weBlackfoot-canadian";
metricRight = "nunavuth-canadian";
note = uni15B5;
unicode = 5557;
},
{
glyphname = "woBlackfoot-canadian";
lastChange = "2023-01-13 15:56:53 +0000";
layers = (
{
layerId = "ABE41ABD-D787-4F86-A3B4-502CADE9F2A5";
shapes = (
{
closed = 1;
nodes = (
(411,0,l),
(437,121,l),
(167,121,l),
(202,286,l),
(471,286,l),
(497,408,l),
(228,408,l),
(288,690,l),
(146,690,l),
(-1,0,l)
);
}
);
width = 506;
}
);
metricLeft = "nunavuth-canadian";
metricRight = "weBlackfoot-canadian";
note = uni15B6;
unicode = 5558;
},
{
glyphname = "waBlackfoot-canadian";
lastChange = "2023-01-13 15:56:53 +0000";
layers = (
{
layerId = "ABE41ABD-D787-4F86-A3B4-502CADE9F2A5";
shapes = (
{
closed = 1;
nodes = (
(404,0,l),
(551,690,l),
(138,690,l),
(113,569,l),
(383,569,l),
(347,404,l),
(77,404,l),
(52,282,l),
(322,282,l),
(261,0,l)
);
}
);
width = 507;
}
);
metricLeft = "=|weBlackfoot-canadian";
metricRight = "nunavuth-canadian";
note = uni15B7;
unicode = 5559;
},
{
glyphname = "neBlackfoot-canadian";
lastChange = "2023-01-13 15:56:50 +0000";
layers = (
{
layerId = "ABE41ABD-D787-4F86-A3B4-502CADE9F2A5";
shapes = (
{
closed = 1;
nodes = (
(141,0,l),
(266,586,l),
(316,586,l),
(296,667,l),
(288,630,ls),
(257,482,o),
(327,386,o),
(470,386,cs),
(595,386,o),
(675,461,o),
(707,608,cs),
(725,690,l),
(585,690,l),
(565,594,ls),
(554,539,o),
(526,512,o),
(480,512,cs),
(430,512,o),
(409,546,o),
(421,603,cs),
(440,690,l),
(146,690,l),
(-1,0,l)
);
}
);
width = 654;
}
);
metricLeft = "nunavuth-canadian";
note = uni15B8;
unicode = 5560;
},
{
glyphname = "niBlackfoot-canadian";
lastChange = "2023-01-13 15:56:50 +0000";
layers = (
{
layerId = "ABE41ABD-D787-4F86-A3B4-502CADE9F2A5";
shapes = (
{
closed = 1;
nodes = (
(111,0,l),
(131,96,ls),
(143,151,o),
(171,178,o),
(216,178,cs),
(267,178,o),
(288,144,o),
(275,87,cs),
(257,0,l),
(551,0,l),
(697,690,l),
(555,690,l),
(431,103,l),
(381,103,l),
(401,23,l),
(409,60,ls),
(440,208,o),
(369,303,o),
(226,303,cs),
(101,303,o),
(21,229,o),
(-11,82,cs),
(-28,0,l)
);
}
);
width = 654;
}
);
metricLeft = "=|neBlackfoot-canadian";
metricRight = "nunavuth-canadian";
note = uni15B9;
unicode = 5561;
},
{
glyphname = "noBlackfoot-canadian";
lastChange = "2023-01-13 15:56:50 +0000";
layers = (
{
layerId = "ABE41ABD-D787-4F86-A3B4-502CADE9F2A5";
shapes = (
{
closed = 1;
nodes = (
(293,0,l),
(313,91,ls),
(327,152,o),
(352,180,o),
(396,180,cs),
(447,180,o),
(468,144,o),
(455,82,cs),
(439,0,l),
(578,0,l),
(589,53,ls),
(621,204,o),
(548,303,o),
(406,303,cs),
(283,303,o),
(205,229,o),
(172,80,cs),
(159,23,l),
(213,103,l),
(163,103,l),
(288,690,l),
(146,690,l),
(-1,0,l)
);
}
);
width = 654;
}
);
metricLeft = "nunavuth-canadian";
metricRight = "neBlackfoot-canadian";
note = uni15BA;
unicode = 5562;
},
{
glyphname = "naBlackfoot-canadian";
lastChange = "2023-01-13 15:56:50 +0000";
layers = (
{
layerId = "ABE41ABD-D787-4F86-A3B4-502CADE9F2A5";
shapes = (
{
closed = 1;
nodes = (
(551,0,l),
(697,690,l),
(404,690,l),
(384,599,ls),
(370,538,o),
(345,510,o),
(300,510,cs),
(249,510,o),
(229,546,o),
(242,608,cs),
(258,690,l),
(119,690,l),
(107,637,ls),
(75,486,o),
(149,386,o),
(291,386,cs),
(413,386,o),
(492,461,o),
(525,610,cs),
(537,667,l),
(484,586,l),
(533,586,l),
(409,0,l)
);
}
);
width = 654;
}
);
metricLeft = "=|neBlackfoot-canadian";
metricRight = "nunavuth-canadian";
note = uni15BB;
unicode = 5563;
},
{
glyphname = "keBlackfoot-canadian";
lastChange = "2023-01-13 15:56:50 +0000";
layers = (
{
layerId = "ABE41ABD-D787-4F86-A3B4-502CADE9F2A5";
shapes = (
{
closed = 1;
nodes = (
(141,0,l),
(253,526,l),
(205,526,l),
(274,251,l),
(333,251,l),
(629,690,l),
(470,690,l),
(288,415,l),
(345,408,l),
(276,690,l),
(146,690,l),
(-1,0,l)
);
}
);
width = 543;
}
);
metricLeft = "nunavuth-canadian";
note = uni15BC;
unicode = 5564;
},
{
glyphname = "kiBlackfoot-canadian";
lastChange = "2023-01-13 15:56:50 +0000";
layers = (
{
layerId = "ABE41ABD-D787-4F86-A3B4-502CADE9F2A5";
shapes = (
{
closed = 1;
nodes = (
(115,0,l),
(298,275,l),
(240,282,l),
(308,0,l),
(440,0,l),
(586,690,l),
(443,690,l),
(332,165,l),
(381,165,l),
(311,440,l),
(252,440,l),
(-43,0,l)
);
}
);
width = 543;
}
);
metricLeft = "=|keBlackfoot-canadian";
metricRight = "nunavuth-canadian";
note = uni15BD;
unicode = 5565;
},
{
glyphname = "koBlackfoot-canadian";
lastChange = "2023-01-13 15:56:50 +0000";
layers = (
{
layerId = "ABE41ABD-D787-4F86-A3B4-502CADE9F2A5";
shapes = (
{
closed = 1;
nodes = (
(129,0,l),
(338,281,l),
(268,290,l),
(337,0,l),
(482,0,l),
(373,439,l),
(314,439,l),
(128,164,l),
(177,164,l),
(288,690,l),
(146,690,l),
(-1,0,l)
);
}
);
width = 543;
}
);
metricLeft = "nunavuth-canadian";
metricRight = "keBlackfoot-canadian";
note = uni15BE;
unicode = 5566;
},
{
glyphname = "kaBlackfoot-canadian";
lastChange = "2023-01-13 15:56:53 +0000";
layers = (
{
layerId = "ABE41ABD-D787-4F86-A3B4-502CADE9F2A5";
shapes = (
{
closed = 1;
nodes = (
(441,0,l),
(587,690,l),
(456,690,l),
(248,410,l),
(319,400,l),
(249,690,l),
(104,690,l),
(213,251,l),
(272,251,l),
(457,526,l),
(410,526,l),
(298,0,l)
);
}
);
width = 544;
}
);
metricLeft = "=|keBlackfoot-canadian";
metricRight = "nunavuth-canadian";
note = uni15BF;
unicode = 5567;
},
{
color = 9;
glyphname = "heSayisi-canadian";
lastChange = "2023-01-13 15:56:50 +0000";
layers = (
{
anchors = (
{
name = top_right_can;
pos = (568,690);
}
);
layerId = "ABE41ABD-D787-4F86-A3B4-502CADE9F2A5";
shapes = (
{
closed = 1;
nodes = (
(492,0,l),
(639,690,l),
(497,690,l),
(424,341,l),
(446,341,l),
(492,569,o),
(437,703,o),
(299,703,cs),
(191,703,o),
(116,620,o),
(81,465,cs),
(72,420,o),
(67,380,o),
(66,330,c),
(201,330,l),
(203,374,o),
(207,410,o),
(215,449,cs),
(234,533,o),
(270,580,o),
(318,580,cs),
(417,580,o),
(433,397,o),
(349,0,c)
);
}
);
width = 595;
}
);
metricRight = "nunavuth-canadian";
note = uni15C0;
unicode = 5568;
},
{
color = 9;
glyphname = "hiSayisi-canadian";
lastChange = "2023-01-13 15:56:53 +0000";
layers = (
{
layerId = "ABE41ABD-D787-4F86-A3B4-502CADE9F2A5";
shapes = (
{
closed = 1;
nodes = (
(141,0,l),
(222,372,o),
(318,580,o),
(411,580,cs),
(463,580,o),
(480,517,o),
(458,407,cs),
(450,374,o),
(443,352,o),
(435,330,c),
(570,330,l),
(582,359,o),
(590,385,o),
(597,414,cs),
(633,590,o),
(581,703,o),
(465,703,cs),
(344,703,o),
(242,575,o),
(194,359,c),
(216,359,l),
(287,690,l),
(146,690,l),
(-1,0,l)
);
}
);
width = 595;
}
);
metricLeft = "nunavuth-canadian";
metricRight = "=|heSayisi-canadian";
note = uni15C1;
unicode = 5569;
},
{
color = 9;
glyphname = "hoSayisi-canadian";
lastChange = "2023-01-13 15:56:53 +0000";
layers = (
{
anchors = (
{
name = top_center_can;
pos = (386,690);
},
{
name = top_left_can;
pos = (206,690);
},
{
name = top_right_can;
pos = (567,690);
}
);
layerId = "ABE41ABD-D787-4F86-A3B4-502CADE9F2A5";
shapes = (
{
closed = 1;
nodes = (
(292,-14,o),
(394,115,o),
(441,330,c),
(420,330,l),
(350,0,l),
(491,0,l),
(637,690,l),
(495,690,l),
(414,318,o),
(318,110,o),
(226,110,cs),
(173,110,o),
(155,173,o),
(179,283,cs),
(186,316,o),
(193,338,o),
(202,359,c),
(67,359,l),
(55,330,o),
(46,304,o),
(40,275,cs),
(3,99,o),
(56,-14,o),
(171,-14,cs)
);
}
);
width = 594;
}
);
metricLeft = "heSayisi-canadian";
metricRight = "nunavuth-canadian";
note = uni15C2;
unicode = 5570;
},
{
color = 9;
glyphname = "haSayisi-canadian";
lastChange = "2023-01-13 15:56:53 +0000";
layers = (
{
layerId = "ABE41ABD-D787-4F86-A3B4-502CADE9F2A5";
shapes = (
{
closed = 1;
nodes = (
(445,-14,o),
(521,70,o),
(556,225,cs),
(565,270,o),
(570,310,o),
(571,359,c),
(437,359,l),
(435,316,o),
(431,280,o),
(421,241,cs),
(403,156,o),
(368,110,o),
(319,110,cs),
(220,110,o),
(205,293,o),
(288,690,c),
(146,690,l),
(-1,0,l),
(140,0,l),
(213,349,l),
(191,349,l),
(146,121,o),
(201,-14,o),
(338,-14,cs)
);
}
);
width = 594;
}
);
metricLeft = "nunavuth-canadian";
metricRight = "=|heSayisi-canadian";
note = uni15C3;
unicode = 5571;
},
{
color = 9;
glyphname = "ghuCarrier-canadian";
lastChange = "2023-01-13 15:56:50 +0000";
layers = (
{
layerId = "ABE41ABD-D787-4F86-A3B4-502CADE9F2A5";
shapes = (
{
closed = 1;
nodes = (
(275,0,l),
(684,655,l),
(691,690,l),
(567,690,l),
(452,497,l),
(502,518,l),
(216,518,l),
(259,496,l),
(226,690,l),
(113,690,l),
(106,655,l),
(235,0,l)
);
},
{
closed = 1;
nodes = (
(444,413,l),
(420,436,l),
(269,183,l),
(314,175,l),
(269,431,l),
(234,413,l)
);
}
);
width = 615;
}
);
metricLeft = "e-canadian";
metricRight = "e-canadian";
note = uni15C4;
unicode = 5572;
},
{
color = 9;
glyphname = "ghoCarrier-canadian";
lastChange = "2023-01-13 15:56:53 +0000";
layers = (
{
layerId = "ABE41ABD-D787-4F86-A3B4-502CADE9F2A5";
shapes = (
{
closed = 1;
nodes = (
(90,0,l),
(207,193,l),
(155,172,l),
(440,172,l),
(398,194,l),
(431,0,l),
(544,0,l),
(551,35,l),
(422,690,l),
(382,690,l),
(-27,35,l),
(-34,0,l)
);
},
{
closed = 1;
nodes = (
(406,391,l),
(278,398,l),
(303,260,l),
(406,391,l),
(277,393,l),
(322,253,l)
);
}
);
width = 614;
}
);
metricLeft = "e-canadian";
metricRight = "e-canadian";
note = uni15C5;
unicode = 5573;
},
{
color = 9;
glyphname = "gheCarrier-canadian";
lastChange = "2023-01-13 15:56:53 +0000";
layers = (
{
anchors = (
{
name = middle_center_can;
pos = (88,358);
}
);
layerId = "ABE41ABD-D787-4F86-A3B4-502CADE9F2A5";
shapes = (
{
closed = 1;
nodes = (
(15,0,l),
(544,323,l),
(553,367,l),
(162,690,l),
(129,690,l),
(107,587,l),
(229,486,l),
(220,572,l),
(130,150,l),
(169,227,l),
(10,129,l),
(-17,0,l)
);
},
{
closed = 1;
nodes = (
(306,516,l),
(269,470,l),
(449,318,l),
(455,391,l),
(225,250,l),
(241,207,l)
);
}
);
width = 553;
}
);
metricLeft = "po-canadian";
metricRight = "o-canadian";
note = uni15C6;
unicode = 5574;
},
{
color = 9;
glyphname = "ghaCarrier-canadian";
lastChange = "2023-01-13 15:56:50 +0000";
layers = (
{
layerId = "ABE41ABD-D787-4F86-A3B4-502CADE9F2A5";
shapes = (
{
closed = 1;
nodes = (
(468,0,l),
(490,102,l),
(368,204,l),
(377,118,l),
(467,540,l),
(427,463,l),
(586,560,l),
(614,690,l),
(582,690,l),
(52,367,l),
(43,323,l),
(434,0,l)
);
},
{
closed = 1;
nodes = (
(327,219,l),
(169,354,l),
(166,314,l),
(372,440,l),
(350,455,l),
(299,213,l)
);
}
);
width = 554;
}
);
metricLeft = "=|o-canadian";
metricRight = "=|po-canadian";
note = uni15C9;
unicode = 5577;
},
{
color = 9;
glyphname = "ruCarrier-canadian";
lastChange = "2023-01-13 15:56:50 +0000";
layers = (
{
layerId = "ABE41ABD-D787-4F86-A3B4-502CADE9F2A5";
shapes = (
{
closed = 1;
nodes = (
(275,0,l),
(684,655,l),
(691,690,l),
(563,690,l),
(509,599,l),
(553,623,l),
(204,623,l),
(242,598,l),
(226,690,l),
(113,690,l),
(106,655,l),
(235,0,l)
);
},
{
closed = 1;
nodes = (
(496,517,l),
(482,542,l),
(269,187,l),
(314,180,l),
(249,537,l),
(219,517,l)
);
}
);
width = 615;
}
);
metricLeft = "e-canadian";
metricRight = "e-canadian";
note = uni15CA;
unicode = 5578;
},
{
color = 9;
glyphname = "roCarrier-canadian";
lastChange = "2023-01-13 15:56:53 +0000";
layers = (
{
layerId = "ABE41ABD-D787-4F86-A3B4-502CADE9F2A5";
shapes = (
{
closed = 1;
nodes = (
(382,690,l),
(-27,35,l),
(-34,0,l),
(94,0,l),
(148,91,l),
(104,67,l),
(453,67,l),
(415,92,l),
(431,0,l),
(543,0,l),
(551,35,l),
(422,690,l)
);
},
{
closed = 1;
nodes = (
(161,173,l),
(175,148,l),
(388,502,l),
(343,510,l),
(408,153,l),
(438,173,l)
);
}
);
width = 614;
}
);
metricLeft = "e-canadian";
metricRight = "e-canadian";
note = uni15CB;
unicode = 5579;
},
{
color = 9;
glyphname = "reCarrier-canadian";
lastChange = "2023-01-13 15:56:50 +0000";
layers = (
{
layerId = "ABE41ABD-D787-4F86-A3B4-502CADE9F2A5";
shapes = (
{
closed = 1;
nodes = (
(17,0,l),
(544,323,l),
(554,367,l),
(163,690,l),
(129,690,l),
(108,589,l),
(176,531,l),
(166,615,l),
(56,101,l),
(91,176,l),
(10,125,l),
(-17,0,l)
);
},
{
closed = 1;
nodes = (
(252,544,l),
(216,498,l),
(433,317,l),
(438,389,l),
(160,215,l),
(173,173,l)
);
}
);
width = 554;
}
);
metricLeft = "po-canadian";
metricRight = "o-canadian";
note = uni15CC;
unicode = 5580;
},
{
color = 9;
glyphname = "reeCarrier-canadian";
lastChange = "2023-01-13 15:56:50 +0000";
layers = (
{
layerId = "ABE41ABD-D787-4F86-A3B4-502CADE9F2A5";
shapes = (
{
closed = 1;
nodes = (
(16,0,l),
(544,323,l),
(554,367,l),
(163,690,l),
(129,690,l),
(111,604,l),
(167,555,l),
(168,628,l),
(53,90,l),
(83,162,l),
(7,114,l),
(-17,0,l)
);
},
{
closed = 1;
nodes = (
(244,577,l),
(211,531,l),
(468,318,l),
(472,390,l),
(135,183,l),
(151,138,l)
);
},
{
closed = 1;
nodes = (
(262,288,l),
(291,425,l),
(245,425,l),
(215,288,l)
);
}
);
width = 554;
}
);
metricLeft = "po-canadian";
metricRight = "o-canadian";
note = uni15CD;
unicode = 5581;
},
{
color = 9;
glyphname = "riCarrier-canadian";
lastChange = "2023-01-13 15:56:50 +0000";
layers = (
{
layerId = "ABE41ABD-D787-4F86-A3B4-502CADE9F2A5";
shapes = (
{
closed = 1;
nodes = (
(16,0,l),
(544,323,l),
(554,367,l),
(163,690,l),
(129,690,l),
(111,604,l),
(170,553,l),
(168,628,l),
(53,90,l),
(90,166,l),
(7,114,l),
(-17,0,l)
);
},
{
closed = 1;
nodes = (
(301,317,o),
(324,336,o),
(324,361,cs),
(324,387,o),
(301,406,o),
(277,406,cs),
(254,406,o),
(233,387,o),
(233,361,cs),
(233,336,o),
(254,317,o),
(277,317,cs)
);
},
{
closed = 1;
nodes = (
(244,577,l),
(207,534,l),
(468,318,l),
(472,390,l),
(138,185,l),
(151,138,l)
);
}
);
width = 554;
}
);
metricLeft = "po-canadian";
metricRight = "o-canadian";
note = uni15CE;
unicode = 5582;
},
{
color = 9;
glyphname = "raCarrier-canadian";
lastChange = "2023-01-13 15:56:50 +0000";
layers = (
{
layerId = "ABE41ABD-D787-4F86-A3B4-502CADE9F2A5";
shapes = (
{
closed = 1;
nodes = (
(467,0,l),
(489,100,l),
(421,158,l),
(431,74,l),
(540,588,l),
(506,514,l),
(587,565,l),
(613,690,l),
(580,690,l),
(52,367,l),
(43,323,l),
(433,0,l)
);
},
{
closed = 1;
nodes = (
(381,191,l),
(164,373,l),
(159,300,l),
(437,474,l),
(424,517,l),
(345,146,l)
);
}
);
width = 554;
}
);
metricLeft = "=|o-canadian";
metricRight = "=|po-canadian";
note = uni15CF;
unicode = 5583;
},
{
color = 9;
glyphname = "wuCarrier-canadian";
lastChange = "2023-01-13 15:56:53 +0000";
layers = (
{
layerId = "ABE41ABD-D787-4F86-A3B4-502CADE9F2A5";
shapes = (
{
closed = 1;
nodes = (
(283,0,l),
(698,655,l),
(706,690,l),
(585,690,l),
(341,275,l),
(370,275,l),
(458,690,l),
(351,690,l),
(262,274,l),
(292,274,l),
(218,690,l),
(113,690,l),
(106,655,l),
(242,0,l)
);
}
);
width = 629;
}
);
metricLeft = "e-canadian";
metricRight = "e-canadian";
note = uni15D0;
unicode = 5584;
},
{
color = 9;
glyphname = "woCarrier-canadian";
lastChange = "2023-01-13 15:56:53 +0000";
layers = (
{
layerId = "ABE41ABD-D787-4F86-A3B4-502CADE9F2A5";
shapes = (
{
closed = 1;
nodes = (
(87,0,l),
(330,414,l),
(302,414,l),
(213,0,l),
(322,0,l),
(410,415,l),
(380,415,l),
(454,0,l),
(558,0,l),
(565,35,l),
(430,690,l),
(388,690,l),
(-27,35,l),
(-34,0,l)
);
}
);
width = 628;
}
);
metricLeft = "e-canadian";
metricRight = "e-canadian";
note = uni15D1;
unicode = 5585;
},
{
color = 9;
glyphname = "weCarrier-canadian";
lastChange = "2023-01-13 15:56:50 +0000";
layers = (
{
layerId = "ABE41ABD-D787-4F86-A3B4-502CADE9F2A5";
shapes = (
{
closed = 1;
nodes = (
(33,0,l),
(560,323,l),
(570,367,l),
(180,690,l),
(146,690,l),
(125,587,l),
(364,392,l),
(371,412,l),
(87,412,l),
(64,305,l),
(348,305,l),
(355,324,l),
(26,128,l),
(0,0,l)
);
}
);
width = 570;
}
);
metricRight = "o-canadian";
note = uni15D2;
unicode = 5586;
},
{
color = 9;
glyphname = "weeCarrier-canadian";
lastChange = "2023-01-13 15:56:50 +0000";
layers = (
{
layerId = "ABE41ABD-D787-4F86-A3B4-502CADE9F2A5";
shapes = (
{
closed = 1;
nodes = (
(33,0,l),
(560,323,l),
(570,367,l),
(180,690,l),
(147,690,l),
(127,597,l),
(415,363,l),
(429,401,l),
(218,401,l),
(231,462,l),
(158,462,l),
(145,401,l),
(85,401,l),
(67,317,l),
(128,317,l),
(114,256,l),
(187,256,l),
(200,317,l),
(412,317,l),
(397,342,l),
(24,118,l),
(0,0,l)
);
}
);
width = 570;
}
);
metricLeft = "weCarrier-canadian";
metricRight = "o-canadian";
note = uni15D3;
unicode = 5587;
},
{
color = 9;
glyphname = "wiCarrier-canadian";
lastChange = "2023-01-13 15:56:50 +0000";
layers = (
{
layerId = "ABE41ABD-D787-4F86-A3B4-502CADE9F2A5";
shapes = (
{
closed = 1;
nodes = (
(33,0,l),
(560,323,l),
(570,367,l),
(180,690,l),
(146,690,l),
(127,597,l),
(389,385,l),
(403,405,l),
(267,405,l),
(254,430,o),
(228,446,o),
(197,446,cs),
(166,446,o),
(139,430,o),
(127,405,c),
(85,405,l),
(68,322,l),
(128,322,l),
(141,298,o),
(167,281,o),
(197,281,cs),
(226,281,o),
(252,298,o),
(266,322,c),
(385,322,l),
(378,330,l),
(24,119,l),
(0,0,l)
);
}
);
width = 570;
}
);
metricLeft = "weCarrier-canadian";
metricRight = "o-canadian";
note = uni15D4;
unicode = 5588;
},
{
color = 9;
glyphname = "waCarrier-canadian";
lastChange = "2023-01-13 15:56:50 +0000";
layers = (
{
layerId = "ABE41ABD-D787-4F86-A3B4-502CADE9F2A5";
shapes = (
{
closed = 1;
nodes = (
(467,0,l),
(488,102,l),
(249,298,l),
(242,277,l),
(526,277,l),
(549,384,l),
(266,384,l),
(258,366,l),
(586,562,l),
(612,690,l),
(580,690,l),
(52,367,l),
(43,323,l),
(433,0,l)
);
}
);
width = 570;
}
);
metricLeft = "=|o-canadian";
metricRight = "=|weCarrier-canadian";
note = uni15D5;
unicode = 5589;
},
{
color = 9;
glyphname = "hwuCarrier-canadian";
lastChange = "2023-01-13 15:56:53 +0000";
layers = (
{
layerId = "ABE41ABD-D787-4F86-A3B4-502CADE9F2A5";
shapes = (
{
closed = 1;
nodes = (
(283,0,l),
(698,655,l),
(706,690,l),
(594,690,l),
(491,520,l),
(522,535,l),
(412,535,l),
(444,690,l),
(361,690,l),
(328,535,l),
(214,535,l),
(242,522,l),
(210,690,l),
(113,690,l),
(106,655,l),
(242,0,l)
);
},
{
closed = 1;
nodes = (
(292,212,l),
(243,483,l),
(222,463,l),
(320,463,l),
(267,211,l)
);
},
{
closed = 1;
nodes = (
(388,463,l),
(483,463,l),
(474,483,l),
(315,216,l),
(335,209,l)
);
}
);
width = 629;
}
);
metricLeft = "e-canadian";
metricRight = "e-canadian";
note = uni15D6;
unicode = 5590;
},
{
color = 9;
glyphname = "hwoCarrier-canadian";
lastChange = "2023-01-13 15:56:53 +0000";
layers = (
{
layerId = "ABE41ABD-D787-4F86-A3B4-502CADE9F2A5";
shapes = (
{
closed = 1;
nodes = (
(77,0,l),
(182,170,l),
(150,155,l),
(260,155,l),
(227,0,l),
(310,0,l),
(343,155,l),
(457,155,l),
(430,168,l),
(462,0,l),
(558,0,l),
(565,35,l),
(429,690,l),
(388,690,l),
(-27,35,l),
(-34,0,l)
);
},
{
closed = 1;
nodes = (
(356,473,l),
(337,481,l),
(283,227,l),
(188,227,l),
(198,207,l)
);
},
{
closed = 1;
nodes = (
(449,227,l),
(352,227,l),
(405,479,l),
(380,478,l),
(428,207,l)
);
}
);
width = 628;
}
);
metricLeft = "e-canadian";
metricRight = "e-canadian";
note = uni15D7;
unicode = 5591;
},
{
color = 9;
glyphname = "hweCarrier-canadian";
lastChange = "2023-01-13 15:56:50 +0000";
layers = (
{
layerId = "ABE41ABD-D787-4F86-A3B4-502CADE9F2A5";
shapes = (
{
closed = 1;
nodes = (
(32,0,l),
(560,323,l),
(570,367,l),
(179,690,l),
(146,690,l),
(127,597,l),
(216,525,l),
(190,401,l),
(84,401,l),
(66,312,l),
(171,312,l),
(146,191,l),
(24,118,l),
(-1,0,l)
);
},
{
closed = 1;
nodes = (
(242,322,l),
(389,322,l),
(222,225,l)
);
},
{
closed = 1;
nodes = (
(277,488,l),
(399,391,l),
(257,391,l)
);
}
);
width = 570;
}
);
metricLeft = "weCarrier-canadian";
metricRight = "o-canadian";
note = uni15D8;
unicode = 5592;
},
{
color = 9;
glyphname = "hweeCarrier-canadian";
lastChange = "2023-01-13 15:56:50 +0000";
layers = (
{
layerId = "ABE41ABD-D787-4F86-A3B4-502CADE9F2A5";
shapes = (
{
closed = 1;
nodes = (
(33,0,l),
(560,323,l),
(570,367,l),
(179,690,l),
(146,690,l),
(128,604,l),
(252,503,l),
(229,394,l),
(188,394,l),
(201,458,l),
(143,458,l),
(129,394,l),
(83,394,l),
(68,321,l),
(114,321,l),
(100,257,l),
(158,257,l),
(172,321,l),
(213,321,l),
(190,212,l),
(23,112,l),
(-1,0,l)
);
},
{
closed = 1;
nodes = (
(275,327,l),
(397,327,l),
(258,243,l)
);
},
{
closed = 1;
nodes = (
(305,469,l),
(404,387,l),
(289,387,l)
);
}
);
width = 570;
}
);
metricLeft = "weCarrier-canadian";
metricRight = "o-canadian";
note = uni15D9;
unicode = 5593;
},
{
color = 9;
glyphname = "hwiCarrier-canadian";
lastChange = "2023-01-13 15:56:50 +0000";
layers = (
{
layerId = "ABE41ABD-D787-4F86-A3B4-502CADE9F2A5";
shapes = (
{
closed = 1;
nodes = (
(33,0,l),
(560,323,l),
(570,367,l),
(180,690,l),
(146,690,l),
(128,604,l),
(252,502,l),
(228,387,l),
(206,387,l),
(196,408,o),
(177,421,o),
(154,421,cs),
(130,421,o),
(111,408,o),
(100,387,c),
(82,387,l),
(69,327,l),
(100,327,l),
(110,306,o),
(130,293,o),
(153,293,cs),
(175,293,o),
(195,306,o),
(206,327,c),
(214,327,l),
(190,212,l),
(23,112,l),
(-1,0,l)
);
},
{
closed = 1;
nodes = (
(275,327,l),
(395,327,l),
(258,243,l)
);
},
{
closed = 1;
nodes = (
(305,469,l),
(405,387,l),
(288,387,l)
);
}
);
width = 570;
}
);
metricLeft = "weCarrier-canadian";
metricRight = "o-canadian";
note = uni15DA;
unicode = 5594;
},
{
color = 9;
glyphname = "hwaCarrier-canadian";
lastChange = "2023-01-13 15:56:53 +0000";
layers = (
{
layerId = "ABE41ABD-D787-4F86-A3B4-502CADE9F2A5";
shapes = (
{
closed = 1;
nodes = (
(581,690,l),
(52,367,l),
(43,323,l),
(434,0,l),
(467,0,l),
(486,93,l),
(396,165,l),
(422,289,l),
(528,289,l),
(547,378,l),
(441,378,l),
(467,498,l),
(589,572,l),
(613,690,l)
);
},
{
closed = 1;
nodes = (
(370,368,l),
(224,368,l),
(391,465,l)
);
},
{
closed = 1;
nodes = (
(335,202,l),
(213,298,l),
(355,298,l)
);
}
);
width = 570;
}
);
metricLeft = "=|o-canadian";
metricRight = "=|weCarrier-canadian";
note = uni15DB;
unicode = 5595;
},
{
color = 9;
glyphname = "thuCarrier-canadian";
lastChange = "2023-01-13 15:56:50 +0000";
layers = (
{
layerId = "ABE41ABD-D787-4F86-A3B4-502CADE9F2A5";
shapes = (
{
closed = 1;
nodes = (
(442,-14,o),
(533,71,o),
(570,242,cs),
(665,690,l),
(143,690,l),
(57,282,ls),
(17,98,o),
(107,-14,o),
(285,-14,cs)
);
},
{
closed = 1;
nodes = (
(259,563,l),
(496,563,l),
(430,253,ls),
(410,157,o),
(367,117,o),
(296,117,cs),
(209,117,o),
(175,169,o),
(196,269,cs)
);
}
);
width = 619;
}
);
metricLeft = "te-canadian";
metricRight = "te-canadian";
note = uni15DC;
unicode = 5596;
},
{
color = 9;
glyphname = "thoCarrier-canadian";
lastChange = "2023-01-13 15:56:50 +0000";
layers = (
{
layerId = "ABE41ABD-D787-4F86-A3B4-502CADE9F2A5";
shapes = (
{
closed = 1;
nodes = (
(518,0,l),
(605,408,ls),
(644,592,o),
(554,703,o),
(377,703,cs),
(219,703,o),
(128,619,o),
(92,448,cs),
(-4,0,l)
);
},
{
closed = 1;
nodes = (
(232,437,ls),
(252,532,o),
(294,573,o),
(366,573,cs),
(453,573,o),
(486,521,o),
(465,421,cs),
(403,127,l),
(166,127,l)
);
}
);
width = 618;
}
);
metricLeft = "te-canadian";
metricRight = "te-canadian";
note = uni15DD;
unicode = 5597;
},
{
color = 9;
glyphname = "theCarrier-canadian";
lastChange = "2023-01-13 15:56:53 +0000";
layers = (
{
anchors = (
{
name = middle_center_can;
pos = (331,345);
}
);
layerId = "ABE41ABD-D787-4F86-A3B4-502CADE9F2A5";
shapes = (
{
closed = 1;
nodes = (
(204,0,ls),
(501,0,o),
(602,235,o),
(602,423,cs),
(602,591,o),
(503,690,o),
(323,690,cs),
(146,690,l),
(-1,0,l)
);
},
{
closed = 1;
nodes = (
(273,623,l),
(221,565,l),
(298,565,ls),
(404,565,o),
(462,511,o),
(462,411,cs),
(462,293,o),
(398,125,o),
(213,125,cs),
(138,125,l),
(156,71,l)
);
}
);
width = 618;
}
);
metricLeft = "nunavuth-canadian";
metricRight = "to-canadian";
note = uni15DE;
unicode = 5598;
},
{
color = 9;
glyphname = "thaCarrier-canadian";
lastChange = "2023-01-13 15:56:53 +0000";
layers = (
{
layerId = "ABE41ABD-D787-4F86-A3B4-502CADE9F2A5";
shapes = (
{
closed = 1;
nodes = (
(514,0,l),
(661,690,l),
(456,690,ls),
(159,690,o),
(59,455,o),
(59,267,cs),
(59,99,o),
(157,0,o),
(338,0,cs)
);
},
{
closed = 1;
nodes = (
(199,397,o),
(262,565,o),
(447,565,cs),
(523,565,l),
(504,618,l),
(386,67,l),
(439,125,l),
(362,125,ls),
(256,125,o),
(199,179,o),
(199,279,cs)
);
}
);
width = 617;
}
);
metricLeft = "=|theCarrier-canadian";
metricRight = "nunavuth-canadian";
note = uni15E1;
unicode = 5601;
},
{
color = 9;
glyphname = "ttuCarrier-canadian";
lastChange = "2023-01-13 15:56:50 +0000";
layers = (
{
layerId = "ABE41ABD-D787-4F86-A3B4-502CADE9F2A5";
shapes = (
{
closed = 1;
nodes = (
(442,-14,o),
(532,68,o),
(569,241,cs),
(665,690,l),
(625,690,l),
(307,499,l),
(410,488,l),
(185,690,l),
(143,690,l),
(56,280,ls),
(17,97,o),
(104,-14,o),
(284,-14,cs)
);
},
{
closed = 1;
nodes = (
(209,117,o),
(175,169,o),
(196,267,cs),
(255,544,l),
(191,523,l),
(330,398,l),
(355,398,l),
(541,511,l),
(492,543,l),
(430,255,ls),
(410,158,o),
(367,117,o),
(293,117,cs)
);
}
);
width = 618;
}
);
metricLeft = "te-canadian";
metricRight = "te-canadian";
note = uni15E2;
unicode = 5602;
},
{
color = 9;
glyphname = "ttoCarrier-canadian";
lastChange = "2023-01-13 15:56:50 +0000";
layers = (
{
layerId = "ABE41ABD-D787-4F86-A3B4-502CADE9F2A5";
shapes = (
{
closed = 1;
nodes = (
(37,0,l),
(355,190,l),
(252,202,l),
(476,0,l),
(518,0,l),
(605,410,ls),
(644,593,o),
(556,703,o),
(378,703,cs),
(219,703,o),
(129,622,o),
(92,449,cs),
(-4,0,l)
);
},
{
closed = 1;
nodes = (
(452,573,o),
(486,521,o),
(466,423,cs),
(407,146,l),
(469,167,l),
(331,292,l),
(307,292,l),
(121,179,l),
(170,147,l),
(231,435,ls),
(252,531,o),
(294,573,o),
(368,573,cs)
);
}
);
width = 618;
}
);
metricLeft = "te-canadian";
metricRight = "te-canadian";
note = uni15E3;
unicode = 5603;
},
{
color = 9;
glyphname = "tteCarrier-canadian";
lastChange = "2023-01-13 15:56:50 +0000";
layers = (
{
anchors = (
{
name = middle_center_can;
pos = (374,345);
}
);
layerId = "ABE41ABD-D787-4F86-A3B4-502CADE9F2A5";
shapes = (
{
closed = 1;
nodes = (
(214,0,ls),
(502,0,o),
(612,226,o),
(612,423,cs),
(612,591,o),
(514,690,o),
(339,690,cs),
(142,690,l),
(134,655,l),
(174,298,l),
(193,418,l),
(3,35,l),
(-4,0,l)
);
},
{
closed = 1;
nodes = (
(299,333,l),
(303,353,l),
(271,628,l),
(222,565,l),
(309,565,ls),
(414,565,o),
(472,510,o),
(472,411,cs),
(472,293,o),
(409,125,o),
(224,125,cs),
(139,125,l),
(168,68,l)
);
}
);
width = 628;
}
);
metricRight = "theCarrier-canadian";
note = uni15E4;
unicode = 5604;
},
{
color = 9;
glyphname = "ttaCarrier-canadian";
lastChange = "2023-01-13 15:56:53 +0000";
layers = (
{
layerId = "ABE41ABD-D787-4F86-A3B4-502CADE9F2A5";
shapes = (
{
closed = 1;
nodes = (
(528,0,l),
(536,35,l),
(497,391,l),
(477,271,l),
(668,655,l),
(674,690,l),
(456,690,ls),
(168,690,o),
(59,464,o),
(59,267,cs),
(59,99,o),
(157,0,o),
(331,0,cs)
);
},
{
closed = 1;
nodes = (
(448,125,l),
(361,125,ls),
(256,125,o),
(199,180,o),
(199,279,cs),
(199,397,o),
(262,565,o),
(446,565,cs),
(531,565,l),
(502,622,l),
(371,356,l),
(367,337,l),
(399,62,l)
);
}
);
width = 628;
}
);
metricLeft = "=|theCarrier-canadian";
metricRight = "=|tteCarrier-canadian";
note = uni15E7;
unicode = 5607;
},
{
color = 9;
glyphname = "puCarrier-canadian";
lastChange = "2023-01-13 15:56:50 +0000";
layers = (
{
layerId = "ABE41ABD-D787-4F86-A3B4-502CADE9F2A5";
shapes = (
{
closed = 1;
nodes = (
(442,-14,o),
(533,71,o),
(570,242,cs),
(665,690,l),
(523,690,l),
(493,548,l),
(256,548,l),
(286,690,l),
(143,690,l),
(57,282,ls),
(17,98,o),
(107,-14,o),
(285,-14,cs)
);
},
{
closed = 1;
nodes = (
(209,117,o),
(175,169,o),
(196,269,cs),
(229,422,l),
(466,422,l),
(430,253,ls),
(410,157,o),
(367,117,o),
(296,117,cs)
);
}
);
width = 619;
}
);
metricLeft = "te-canadian";
metricRight = "te-canadian";
note = uni15E8;
unicode = 5608;
},
{
color = 9;
glyphname = "poCarrier-canadian";
lastChange = "2023-01-13 15:56:50 +0000";
layers = (
{
layerId = "ABE41ABD-D787-4F86-A3B4-502CADE9F2A5";
shapes = (
{
closed = 1;
nodes = (
(139,0,l),
(169,142,l),
(406,142,l),
(376,0,l),
(518,0,l),
(605,408,ls),
(644,592,o),
(554,703,o),
(377,703,cs),
(219,703,o),
(128,619,o),
(92,448,cs),
(-4,0,l)
);
},
{
closed = 1;
nodes = (
(232,437,ls),
(252,532,o),
(294,573,o),
(366,573,cs),
(453,573,o),
(486,521,o),
(465,421,cs),
(433,268,l),
(196,268,l)
);
}
);
width = 618;
}
);
metricLeft = "te-canadian";
metricRight = "te-canadian";
note = uni15E9;
unicode = 5609;
},
{
color = 9;
glyphname = "peCarrier-canadian";
lastChange = "2023-01-13 15:56:53 +0000";
layers = (
{
anchors = (
{
name = middle_center_can;
pos = (360,345);
}
);
layerId = "ABE41ABD-D787-4F86-A3B4-502CADE9F2A5";
shapes = (
{
closed = 1;
nodes = (
(213,0,ls),
(510,0,o),
(611,235,o),
(611,423,cs),
(611,591,o),
(512,690,o),
(337,690,cs),
(141,690,l),
(114,565,l),
(180,565,l),
(87,125,l),
(20,125,l),
(-6,0,l)
);
},
{
closed = 1;
nodes = (
(334,627,l),
(196,565,l),
(307,565,ls),
(412,565,o),
(470,510,o),
(470,411,cs),
(470,295,o),
(409,125,o),
(222,125,cs),
(102,125,l),
(214,63,l)
);
}
);
width = 627;
}
);
metricRight = "theCarrier-canadian";
note = uni15EA;
unicode = 5610;
},
{
color = 9;
glyphname = "paCarrier-canadian";
lastChange = "2023-01-13 15:56:53 +0000";
layers = (
{
layerId = "ABE41ABD-D787-4F86-A3B4-502CADE9F2A5";
shapes = (
{
closed = 1;
nodes = (
(528,0,l),
(555,125,l),
(490,125,l),
(583,565,l),
(648,565,l),
(675,690,l),
(456,690,ls),
(159,690,o),
(59,455,o),
(59,267,cs),
(59,99,o),
(157,0,o),
(332,0,cs)
);
},
{
closed = 1;
nodes = (
(473,125,l),
(362,125,ls),
(256,125,o),
(199,180,o),
(199,279,cs),
(199,395,o),
(261,565,o),
(447,565,cs),
(567,565,l),
(455,627,l),
(335,63,l)
);
}
);
width = 625;
}
);
metricLeft = "=|theCarrier-canadian";
metricRight = "=|peCarrier-canadian";
note = uni15ED;
unicode = 5613;
},
{
color = 6;
glyphname = "pCarrier-canadian";
lastChange = "2023-01-13 15:56:53 +0000";
layers = (
{
layerId = "ABE41ABD-D787-4F86-A3B4-502CADE9F2A5";
shapes = (
{
closed = 1;
nodes = (
(309,183,l),
(328,272,l),
(237,272,l),
(291,527,l),
(196,527,l),
(142,272,l),
(50,272,l),
(32,183,l)
);
}
);
width = 366;
}
);
metricLeft = "shorthorizontalstrokeFinal-canadian";
metricRight = "shorthorizontalstrokeFinal-canadian";
note = uni15EE;
unicode = 5614;
},
{
color = 9;
glyphname = "guCarrier-canadian";
lastChange = "2023-01-13 15:56:53 +0000";
layers = (
{
anchors = (
{
name = top_center_can;
pos = (454,690);
}
);
layerId = "ABE41ABD-D787-4F86-A3B4-502CADE9F2A5";
shapes = (
{
closed = 1;
nodes = (
(262,-14,o),
(323,29,o),
(366,118,c),
(309,118,l),
(323,31,o),
(373,-14,o),
(457,-14,cs),
(570,-14,o),
(631,53,o),
(658,182,cs),
(766,690,l),
(631,690,l),
(524,185,ls),
(514,137,o),
(492,114,o),
(457,114,cs),
(421,114,o),
(404,141,o),
(413,187,cs),
(521,690,l),
(388,690,l),
(281,185,ls),
(271,138,o),
(248,114,o),
(213,114,cs),
(177,114,o),
(161,140,o),
(171,187,cs),
(278,690,l),
(143,690,l),
(38,192,ls),
(11,66,o),
(64,-14,o),
(181,-14,cs)
);
}
);
width = 719;
}
);
metricRight = "=|";
note = uni15EF;
unicode = 5615;
},
{
color = 9;
glyphname = "goCarrier-canadian";
lastChange = "2023-01-13 15:56:53 +0000";
layers = (
{
layerId = "ABE41ABD-D787-4F86-A3B4-502CADE9F2A5";
shapes = (
{
closed = 1;
nodes = (
(132,0,l),
(239,505,ls),
(249,553,o),
(270,576,o),
(305,576,cs),
(342,576,o),
(358,549,o),
(349,502,cs),
(242,0,l),
(374,0,l),
(480,504,ls),
(491,552,o),
(514,576,o),
(549,576,cs),
(585,576,o),
(601,550,o),
(590,502,cs),
(484,0,l),
(619,0,l),
(725,497,ls),
(752,624,o),
(698,703,o),
(582,703,cs),
(499,703,o),
(440,661,o),
(395,572,c),
(453,572,l),
(440,659,o),
(390,703,o),
(305,703,cs),
(192,703,o),
(131,637,o),
(104,508,cs),
(-3,0,l)
);
}
);
width = 719;
}
);
metricLeft = "guCarrier-canadian";
metricRight = "guCarrier-canadian";
note = uni15F0;
unicode = 5616;
},
{
color = 9;
glyphname = "geCarrier-canadian";
lastChange = "2023-01-13 15:56:50 +0000";
layers = (
{
anchors = (
{
name = top_center_can;
pos = (409,690);
}
);
layerId = "ABE41ABD-D787-4F86-A3B4-502CADE9F2A5";
shapes = (
{
closed = 1;
nodes = (
(307,0,ls),
(469,0,o),
(562,86,o),
(562,216,cs),
(562,282,o),
(530,334,o),
(469,363,c),
(459,312,l),
(572,342,o),
(627,424,o),
(627,522,cs),
(627,624,o),
(552,690,o),
(440,690,cs),
(147,690,l),
(122,574,l),
(411,574,ls),
(459,574,o),
(486,547,o),
(486,504,cs),
(486,445,o),
(449,402,o),
(375,402,cs),
(85,402,l),
(61,288,l),
(350,288,ls),
(398,288,o),
(425,263,o),
(425,221,cs),
(425,179,o),
(404,116,o),
(314,116,cs),
(24,116,l),
(0,0,l)
);
}
);
width = 622;
}
);
metricLeft = "nunavuth-canadian";
note = uni15F1;
unicode = 5617;
},
{
color = 9;
glyphname = "geeCarrier-canadian";
lastChange = "2023-01-13 15:56:50 +0000";
layers = (
{
layerId = "ABE41ABD-D787-4F86-A3B4-502CADE9F2A5";
shapes = (
{
closed = 1;
nodes = (
(307,0,ls),
(469,0,o),
(562,86,o),
(562,216,cs),
(562,282,o),
(530,334,o),
(469,363,c),
(459,312,l),
(572,342,o),
(627,424,o),
(627,522,cs),
(627,624,o),
(552,690,o),
(440,690,cs),
(147,690,l),
(122,574,l),
(411,574,ls),
(459,574,o),
(486,547,o),
(486,504,cs),
(486,445,o),
(449,402,o),
(375,402,cs),
(336,402,l),
(353,478,l),
(272,478,l),
(256,402,l),
(85,402,l),
(61,288,l),
(232,288,l),
(215,213,l),
(297,213,l),
(312,288,l),
(350,288,ls),
(398,288,o),
(425,263,o),
(425,221,cs),
(425,179,o),
(404,116,o),
(314,116,cs),
(24,116,l),
(0,0,l)
);
}
);
width = 622;
}
);
metricLeft = "geCarrier-canadian";
metricRight = "geCarrier-canadian";
note = uni15F2;
unicode = 5618;
},
{
color = 9;
glyphname = "giCarrier-canadian";
lastChange = "2023-01-13 15:56:50 +0000";
layers = (
{
layerId = "ABE41ABD-D787-4F86-A3B4-502CADE9F2A5";
shapes = (
{
closed = 1;
nodes = (
(307,0,ls),
(469,0,o),
(562,86,o),
(562,216,cs),
(562,281,o),
(530,334,o),
(469,363,c),
(459,312,l),
(572,342,o),
(627,426,o),
(627,522,cs),
(627,624,o),
(552,690,o),
(440,690,cs),
(147,690,l),
(122,574,l),
(411,574,ls),
(459,574,o),
(486,547,o),
(486,504,cs),
(486,445,o),
(449,402,o),
(375,402,cs),
(347,402,l),
(384,364,l),
(378,408,o),
(340,441,o),
(293,441,cs),
(260,441,o),
(233,426,o),
(217,402,c),
(85,402,l),
(61,288,l),
(217,288,l),
(233,264,o),
(260,248,o),
(293,248,cs),
(340,248,o),
(376,282,o),
(384,327,c),
(327,288,l),
(350,288,ls),
(398,288,o),
(425,263,o),
(425,221,cs),
(425,179,o),
(404,116,o),
(314,116,cs),
(24,116,l),
(0,0,l)
);
}
);
width = 622;
}
);
metricLeft = "geCarrier-canadian";
metricRight = "geCarrier-canadian";
note = uni15F3;
unicode = 5619;
},
{
color = 9;
glyphname = "gaCarrier-canadian";
lastChange = "2023-01-13 15:56:53 +0000";
layers = (
{
anchors = (
{
name = top_center_can;
pos = (419,690);
}
);
layerId = "ABE41ABD-D787-4F86-A3B4-502CADE9F2A5";
shapes = (
{
closed = 1;
nodes = (
(518,0,l),
(543,116,l),
(254,116,ls),
(207,116,o),
(179,143,o),
(179,185,cs),
(179,244,o),
(215,288,o),
(290,288,cs),
(581,288,l),
(605,402,l),
(315,402,ls),
(267,402,o),
(240,427,o),
(240,469,cs),
(240,511,o),
(261,574,o),
(351,574,cs),
(640,574,l),
(665,690,l),
(357,690,ls),
(195,690,o),
(102,604,o),
(102,473,cs),
(102,408,o),
(134,355,o),
(196,327,c),
(207,378,l),
(93,348,o),
(38,266,o),
(38,168,cs),
(38,66,o),
(113,0,o),
(226,0,cs)
);
}
);
width = 623;
}
);
metricLeft = "=|geCarrier-canadian";
metricRight = "=|geCarrier-canadian";
note = uni15F4;
unicode = 5620;
},
{
color = 9;
glyphname = "khuCarrier-canadian";
lastChange = "2023-01-13 15:56:53 +0000";
layers = (
{
layerId = "ABE41ABD-D787-4F86-A3B4-502CADE9F2A5";
shapes = (
{
closed = 1;
nodes = (
(257,-14,o),
(315,24,o),
(357,101,c),
(311,104,l),
(328,27,o),
(377,-14,o),
(457,-14,cs),
(570,-14,o),
(631,53,o),
(658,182,cs),
(766,690,l),
(143,690,l),
(38,192,ls),
(11,66,o),
(64,-14,o),
(181,-14,cs)
);
},
{
closed = 1;
nodes = (
(177,114,o),
(161,140,o),
(171,187,cs),
(252,567,l),
(362,567,l),
(281,185,ls),
(271,138,o),
(248,114,o),
(213,114,cs)
);
},
{
closed = 1;
nodes = (
(421,114,o),
(404,141,o),
(413,187,cs),
(495,567,l),
(605,567,l),
(524,185,ls),
(514,137,o),
(492,114,o),
(457,114,cs)
);
}
);
width = 719;
}
);
metricLeft = "guCarrier-canadian";
metricRight = "guCarrier-canadian";
note = uni15F5;
unicode = 5621;
},
{
color = 9;
glyphname = "khoCarrier-canadian";
lastChange = "2023-01-13 15:56:53 +0000";
layers = (
{
layerId = "ABE41ABD-D787-4F86-A3B4-502CADE9F2A5";
shapes = (
{
closed = 1;
nodes = (
(619,0,l),
(725,497,ls),
(752,624,o),
(698,703,o),
(582,703,cs),
(505,703,o),
(447,666,o),
(405,588,c),
(451,585,l),
(434,663,o),
(384,703,o),
(304,703,cs),
(192,703,o),
(131,637,o),
(104,508,cs),
(-3,0,l)
);
},
{
closed = 1;
nodes = (
(239,505,ls),
(248,553,o),
(270,576,o),
(304,576,cs),
(341,576,o),
(357,549,o),
(348,502,cs),
(268,123,l),
(157,123,l)
);
},
{
closed = 1;
nodes = (
(480,504,ls),
(491,552,o),
(514,576,o),
(549,576,cs),
(585,576,o),
(601,550,o),
(590,502,cs),
(510,123,l),
(400,123,l)
);
}
);
width = 719;
}
);
metricLeft = "guCarrier-canadian";
metricRight = "guCarrier-canadian";
note = uni15F6;
unicode = 5622;
},
{
color = 9;
glyphname = "kheCarrier-canadian";
lastChange = "2023-01-13 15:56:50 +0000";
layers = (
{
layerId = "ABE41ABD-D787-4F86-A3B4-502CADE9F2A5";
shapes = (
{
closed = 1;
nodes = (
(314,0,ls),
(476,0,o),
(568,85,o),
(568,216,cs),
(568,280,o),
(537,331,o),
(477,360,c),
(470,314,l),
(594,349,o),
(634,441,o),
(634,522,cs),
(634,624,o),
(557,690,o),
(444,690,cs),
(146,690,l),
(-1,0,l)
);
},
{
closed = 1;
nodes = (
(202,289,l),
(356,289,ls),
(405,289,o),
(431,264,o),
(431,221,cs),
(431,174,o),
(405,114,o),
(321,114,cs),
(164,114,l)
);
},
{
closed = 1;
nodes = (
(263,576,l),
(416,576,ls),
(465,576,o),
(492,547,o),
(492,504,cs),
(492,453,o),
(463,401,o),
(381,401,cs),
(225,401,l)
);
}
);
width = 628;
}
);
metricLeft = "nunavuth-canadian";
metricRight = "geCarrier-canadian";
note = uni15F7;
unicode = 5623;
},
{
color = 9;
glyphname = "kheeCarrier-canadian";
lastChange = "2023-01-13 15:56:50 +0000";
layers = (
{
layerId = "ABE41ABD-D787-4F86-A3B4-502CADE9F2A5";
shapes = (
{
closed = 1;
nodes = (
(314,0,ls),
(476,0,o),
(568,85,o),
(568,216,cs),
(568,280,o),
(537,331,o),
(477,360,c),
(470,314,l),
(594,349,o),
(634,441,o),
(634,522,cs),
(634,624,o),
(557,690,o),
(444,690,cs),
(146,690,l),
(-1,0,l)
);
},
{
closed = 1;
nodes = (
(202,289,l),
(279,289,l),
(263,212,l),
(339,212,l),
(360,311,l),
(324,289,l),
(356,289,ls),
(405,289,o),
(431,264,o),
(431,221,cs),
(431,174,o),
(405,114,o),
(321,114,cs),
(164,114,l)
);
},
{
closed = 1;
nodes = (
(396,480,l),
(320,480,l),
(303,401,l),
(225,401,l),
(263,576,l),
(416,576,ls),
(465,576,o),
(492,547,o),
(492,504,cs),
(492,453,o),
(463,401,o),
(381,401,cs),
(347,401,l),
(375,380,l)
);
}
);
width = 628;
}
);
metricLeft = "nunavuth-canadian";
metricRight = "geCarrier-canadian";
note = uni15F8;
unicode = 5624;
},
{
color = 9;
glyphname = "khiCarrier-canadian";
lastChange = "2023-01-13 15:56:53 +0000";
layers = (
{
layerId = "ABE41ABD-D787-4F86-A3B4-502CADE9F2A5";
shapes = (
{
closed = 1;
nodes = (
(314,0,ls),
(476,0,o),
(568,85,o),
(568,216,cs),
(568,280,o),
(538,331,o),
(478,360,c),
(463,312,l),
(593,345,o),
(634,440,o),
(634,522,cs),
(634,624,o),
(557,690,o),
(444,690,cs),
(146,690,l),
(-1,0,l)
);
},
{
closed = 1;
nodes = (
(203,296,l),
(256,296,l),
(270,268,o),
(300,248,o),
(333,248,cs),
(383,248,o),
(419,288,o),
(424,337,c),
(334,296,l),
(362,296,ls),
(411,296,o),
(431,269,o),
(431,225,cs),
(431,176,o),
(405,114,o),
(321,114,cs),
(164,114,l)
);
},
{
closed = 1;
nodes = (
(416,576,ls),
(465,576,o),
(492,546,o),
(492,501,cs),
(492,450,o),
(469,395,o),
(387,395,cs),
(344,395,l),
(425,353,l),
(420,403,o),
(384,441,o),
(333,441,cs),
(285,441,o),
(245,403,o),
(243,353,c),
(279,395,l),
(224,395,l),
(263,576,l)
);
}
);
width = 628;
}
);
metricLeft = "nunavuth-canadian";
metricRight = "geCarrier-canadian";
note = uni15F9;
unicode = 5625;
},
{
color = 9;
glyphname = "khaCarrier-canadian";
lastChange = "2023-01-13 15:56:53 +0000";
layers = (
{
layerId = "ABE41ABD-D787-4F86-A3B4-502CADE9F2A5";
shapes = (
{
closed = 1;
nodes = (
(525,0,l),
(672,690,l),
(357,690,ls),
(195,690,o),
(102,605,o),
(102,473,cs),
(102,410,o),
(133,358,o),
(193,329,c),
(200,376,l),
(76,341,o),
(37,248,o),
(37,168,cs),
(37,66,o),
(113,0,o),
(226,0,cs)
);
},
{
closed = 1;
nodes = (
(206,114,o),
(179,143,o),
(179,185,cs),
(179,237,o),
(209,289,o),
(290,289,cs),
(445,289,l),
(409,114,l),
(254,114,ls)
);
},
{
closed = 1;
nodes = (
(267,401,o),
(241,426,o),
(241,469,cs),
(241,516,o),
(267,576,o),
(351,576,cs),
(507,576,l),
(469,401,l),
(315,401,ls)
);
}
);
width = 628;
}
);
metricLeft = "=|geCarrier-canadian";
metricRight = "nunavuth-canadian";
note = uni15FA;
unicode = 5626;
},
{
color = 9;
glyphname = "kkuCarrier-canadian";
lastChange = "2023-01-13 15:56:53 +0000";
layers = (
{
layerId = "ABE41ABD-D787-4F86-A3B4-502CADE9F2A5";
shapes = (
{
closed = 1;
nodes = (
(257,-14,o),
(314,23,o),
(357,101,c),
(311,102,l),
(328,27,o),
(377,-14,o),
(457,-14,cs),
(570,-14,o),
(631,52,o),
(658,182,cs),
(766,690,l),
(725,690,l),
(467,561,l),
(439,417,l),
(647,519,l),
(604,564,l),
(524,185,ls),
(514,137,o),
(492,114,o),
(457,114,cs),
(420,114,o),
(403,142,o),
(412,187,cs),
(520,690,l),
(389,690,l),
(283,185,ls),
(272,138,o),
(248,114,o),
(213,114,cs),
(177,114,o),
(161,140,o),
(171,187,cs),
(251,565,l),
(186,540,l),
(351,433,l),
(379,563,l),
(184,690,l),
(143,690,l),
(38,192,ls),
(11,65,o),
(64,-14,o),
(181,-14,cs)
);
}
);
width = 719;
}
);
metricLeft = "guCarrier-canadian";
metricRight = "guCarrier-canadian";
note = uni15FB;
unicode = 5627;
},
{
color = 9;
glyphname = "kkoCarrier-canadian";
lastChange = "2023-01-13 15:56:53 +0000";
layers = (
{
layerId = "ABE41ABD-D787-4F86-A3B4-502CADE9F2A5";
shapes = (
{
closed = 1;
nodes = (
(38,0,l),
(296,128,l),
(324,272,l),
(115,171,l),
(158,126,l),
(239,505,ls),
(249,553,o),
(270,576,o),
(304,576,cs),
(341,576,o),
(358,548,o),
(350,502,cs),
(242,0,l),
(372,0,l),
(479,504,ls),
(489,552,o),
(514,576,o),
(549,576,cs),
(585,576,o),
(601,550,o),
(590,502,cs),
(510,125,l),
(576,150,l),
(411,257,l),
(384,127,l),
(578,0,l),
(619,0,l),
(725,497,ls),
(752,625,o),
(698,703,o),
(582,703,cs),
(505,703,o),
(447,667,o),
(405,588,c),
(451,587,l),
(434,663,o),
(385,703,o),
(304,703,cs),
(192,703,o),
(131,638,o),
(104,508,cs),
(-3,0,l)
);
}
);
width = 719;
}
);
metricLeft = "guCarrier-canadian";
metricRight = "guCarrier-canadian";
note = uni15FC;
unicode = 5628;
},
{
color = 9;
glyphname = "kkeCarrier-canadian";
lastChange = "2023-01-13 15:56:53 +0000";
layers = (
{
layerId = "ABE41ABD-D787-4F86-A3B4-502CADE9F2A5";
shapes = (
{
closed = 1;
nodes = (
(327,0,ls),
(489,0,o),
(582,86,o),
(582,216,cs),
(582,282,o),
(551,331,o),
(491,360,c),
(484,314,l),
(608,349,o),
(646,441,o),
(646,522,cs),
(646,624,o),
(571,690,o),
(458,690,cs),
(144,690,l),
(136,655,l),
(164,402,l),
(92,402,l),
(68,288,l),
(132,288,l),
(5,35,l),
(-3,0,l)
);
},
{
closed = 1;
nodes = (
(274,288,l),
(369,288,ls),
(417,288,o),
(444,263,o),
(444,221,cs),
(444,179,o),
(423,116,o),
(333,116,cs),
(129,116,l),
(160,59,l)
);
},
{
closed = 1;
nodes = (
(270,639,l),
(215,574,l),
(430,574,ls),
(478,574,o),
(505,547,o),
(505,504,cs),
(505,445,o),
(469,402,o),
(394,402,cs),
(298,402,l)
);
}
);
width = 642;
}
);
metricRight = "geCarrier-canadian";
note = uni15FD;
unicode = 5629;
},
{
color = 9;
glyphname = "kkeeCarrier-canadian";
lastChange = "2023-01-13 15:56:53 +0000";
layers = (
{
layerId = "ABE41ABD-D787-4F86-A3B4-502CADE9F2A5";
shapes = (
{
closed = 1;
nodes = (
(327,0,ls),
(489,0,o),
(582,86,o),
(582,216,cs),
(582,282,o),
(551,331,o),
(491,360,c),
(484,314,l),
(608,349,o),
(646,441,o),
(646,522,cs),
(646,624,o),
(571,690,o),
(458,690,cs),
(144,690,l),
(136,655,l),
(164,402,l),
(92,402,l),
(68,288,l),
(132,288,l),
(5,35,l),
(-3,0,l)
);
},
{
closed = 1;
nodes = (
(276,293,l),
(313,293,l),
(296,211,l),
(372,211,l),
(395,319,l),
(356,293,l),
(382,293,ls),
(424,293,o),
(444,263,o),
(444,221,cs),
(444,179,o),
(423,116,o),
(333,116,cs),
(129,116,l),
(160,59,l)
);
},
{
closed = 1;
nodes = (
(429,480,l),
(353,480,l),
(335,398,l),
(298,398,l),
(270,639,l),
(215,574,l),
(430,574,ls),
(478,574,o),
(505,547,o),
(505,504,cs),
(505,445,o),
(469,398,o),
(400,398,cs),
(376,398,l),
(409,381,l)
);
}
);
width = 642;
}
);
metricLeft = "kkeCarrier-canadian";
metricRight = "geCarrier-canadian";
note = uni15FE;
unicode = 5630;
},
{
color = 9;
glyphname = "kkiCarrier-canadian";
lastChange = "2023-01-13 15:56:53 +0000";
layers = (
{
layerId = "ABE41ABD-D787-4F86-A3B4-502CADE9F2A5";
shapes = (
{
closed = 1;
nodes = (
(327,0,ls),
(489,0,o),
(582,86,o),
(582,216,cs),
(582,282,o),
(551,331,o),
(491,360,c),
(484,314,l),
(608,349,o),
(646,441,o),
(646,522,cs),
(646,624,o),
(571,690,o),
(458,690,cs),
(144,690,l),
(136,655,l),
(164,402,l),
(92,402,l),
(68,288,l),
(132,288,l),
(5,35,l),
(-3,0,l)
);
},
{
closed = 1;
nodes = (
(279,298,l),
(281,298,l),
(295,268,o),
(324,248,o),
(358,248,cs),
(396,248,o),
(427,273,o),
(439,308,c),
(352,298,l),
(382,298,ls),
(431,298,o),
(444,263,o),
(444,221,cs),
(444,179,o),
(423,116,o),
(333,116,cs),
(129,116,l),
(160,59,l)
);
},
{
closed = 1;
nodes = (
(433,414,o),
(400,441,o),
(358,441,cs),
(324,441,o),
(295,422,o),
(281,391,c),
(300,391,l),
(270,639,l),
(215,574,l),
(430,574,ls),
(478,574,o),
(505,547,o),
(505,504,cs),
(505,445,o),
(475,391,o),
(400,391,cs),
(353,391,l),
(441,375,l)
);
}
);
width = 642;
}
);
metricLeft = "kkeCarrier-canadian";
metricRight = "geCarrier-canadian";
note = uni15FF;
unicode = 5631;
},
{
color = 9;
glyphname = "kkaCarrier-canadian";
lastChange = "2023-01-13 15:56:53 +0000";
layers = (
{
layerId = "ABE41ABD-D787-4F86-A3B4-502CADE9F2A5";
shapes = (
{
closed = 1;
nodes = (
(540,0,l),
(548,35,l),
(520,288,l),
(592,288,l),
(616,402,l),
(552,402,l),
(679,655,l),
(687,690,l),
(357,690,ls),
(195,690,o),
(102,604,o),
(102,473,cs),
(102,408,o),
(133,358,o),
(193,329,c),
(200,376,l),
(76,341,o),
(38,248,o),
(38,168,cs),
(38,66,o),
(113,0,o),
(226,0,cs)
);
},
{
closed = 1;
nodes = (
(469,116,l),
(254,116,ls),
(207,116,o),
(179,143,o),
(179,185,cs),
(179,244,o),
(215,288,o),
(290,288,cs),
(385,288,l),
(413,51,l)
);
},
{
closed = 1;
nodes = (
(267,402,o),
(240,427,o),
(240,469,cs),
(240,511,o),
(261,574,o),
(351,574,cs),
(554,574,l),
(524,631,l),
(410,402,l),
(315,402,ls)
);
}
);
width = 642;
}
);
metricLeft = "=|geCarrier-canadian";
metricRight = "=|kkeCarrier-canadian";
note = uni1600;
unicode = 5632;
},
{
color = 6;
glyphname = "kkCarrier-canadian";
lastChange = "2023-01-13 15:56:50 +0000";
layers = (
{
layerId = "ABE41ABD-D787-4F86-A3B4-502CADE9F2A5";
shapes = (
{
closed = 1;
nodes = (
(280,527,l),
(145,289,l),
(205,289,l),
(171,527,l),
(84,527,l),
(81,510,l),
(145,183,l),
(166,183,l),
(370,510,l),
(374,527,l)
);
}
);
width = 338;
}
);
note = uni1601;
unicode = 5633;
},
{
color = 9;
glyphname = "nuCarrier-canadian";
lastChange = "2023-01-13 15:56:50 +0000";
layers = (
{
layerId = "ABE41ABD-D787-4F86-A3B4-502CADE9F2A5";
shapes = (
{
closed = 1;
nodes = (
(435,-14,o),
(534,78,o),
(570,242,cs),
(583,308,l),
(442,308,l),
(430,250,ls),
(412,161,o),
(367,117,o),
(294,117,cs),
(211,116,o),
(175,171,o),
(196,268,cs),
(286,690,l),
(143,690,l),
(55,276,ls),
(18,102,o),
(106,-14,o),
(282,-14,cs)
);
}
);
width = 609;
}
);
metricLeft = "te-canadian";
note = uni1602;
unicode = 5634;
},
{
color = 9;
glyphname = "noCarrier-canadian";
lastChange = "2023-01-13 15:56:53 +0000";
layers = (
{
layerId = "ABE41ABD-D787-4F86-A3B4-502CADE9F2A5";
shapes = (
{
closed = 1;
nodes = (
(507,0,l),
(595,413,ls),
(632,587,o),
(544,703,o),
(369,703,cs),
(216,703,o),
(117,611,o),
(81,447,cs),
(67,382,l),
(208,382,l),
(220,440,ls),
(240,528,o),
(284,573,o),
(356,573,cs),
(439,574,o),
(475,519,o),
(455,422,cs),
(365,0,l)
);
}
);
width = 607;
}
);
metricLeft = "=|nuCarrier-canadian";
metricRight = "te-canadian";
note = uni1603;
unicode = 5635;
},
{
color = 9;
glyphname = "neCarrier-canadian";
lastChange = "2023-01-13 15:56:53 +0000";
layers = (
{
anchors = (
{
name = middle_center_can;
pos = (298,345);
}
);
layerId = "ABE41ABD-D787-4F86-A3B4-502CADE9F2A5";
shapes = (
{
closed = 1;
nodes = (
(212,0,ls),
(489,0,o),
(604,213,o),
(604,419,cs),
(604,589,o),
(502,690,o),
(324,690,cs),
(128,690,l),
(100,560,l),
(300,560,ls),
(407,560,o),
(463,507,o),
(463,409,cs),
(463,298,o),
(410,129,o),
(225,129,cs),
(214,129,l),
(187,0,l)
);
}
);
width = 621;
}
);
metricRight = "theCarrier-canadian";
note = uni1604;
unicode = 5636;
},
{
color = 9;
glyphname = "naCarrier-canadian";
lastChange = "2023-01-13 15:56:53 +0000";
layers = (
{
layerId = "ABE41ABD-D787-4F86-A3B4-502CADE9F2A5";
shapes = (
{
closed = 1;
nodes = (
(536,0,l),
(563,129,l),
(363,129,ls),
(257,129,o),
(201,183,o),
(201,281,cs),
(201,391,o),
(255,560,o),
(439,560,cs),
(450,560,l),
(477,690,l),
(452,690,ls),
(176,690,o),
(60,477,o),
(60,270,cs),
(60,100,o),
(161,0,o),
(340,0,cs)
);
}
);
width = 621;
}
);
metricLeft = "=|theCarrier-canadian";
metricRight = "=|neCarrier-canadian";
note = uni1607;
unicode = 5639;
},
{
color = 9;
glyphname = "muCarrier-canadian";
lastChange = "2023-01-13 15:56:53 +0000";
layers = (
{
layerId = "ABE41ABD-D787-4F86-A3B4-502CADE9F2A5";
shapes = (
{
closed = 1;
nodes = (
(262,-14,o),
(323,28,o),
(366,118,c),
(309,118,l),
(323,32,o),
(373,-14,o),
(457,-14,cs),
(570,-14,o),
(631,53,o),
(658,182,cs),
(703,394,l),
(567,394,l),
(523,185,ls),
(513,137,o),
(491,114,o),
(458,114,cs),
(421,114,o),
(405,141,o),
(414,186,cs),
(458,394,l),
(326,394,l),
(281,185,ls),
(270,138,o),
(247,114,o),
(213,114,cs),
(178,114,o),
(162,140,o),
(172,187,cs),
(279,690,l),
(143,690,l),
(38,192,ls),
(11,66,o),
(64,-14,o),
(181,-14,cs)
);
}
);
width = 719;
}
);
metricLeft = "guCarrier-canadian";
metricRight = "=|";
note = uni1608;
unicode = 5640;
},
{
color = 9;
glyphname = "moCarrier-canadian";
lastChange = "2023-01-13 15:56:53 +0000";
layers = (
{
layerId = "ABE41ABD-D787-4F86-A3B4-502CADE9F2A5";
shapes = (
{
closed = 1;
nodes = (
(619,0,l),
(725,497,ls),
(752,624,o),
(698,703,o),
(582,703,cs),
(499,703,o),
(440,662,o),
(395,572,c),
(453,572,l),
(440,658,o),
(389,703,o),
(304,703,cs),
(192,703,o),
(132,637,o),
(104,508,cs),
(59,296,l),
(195,296,l),
(240,505,ls),
(250,553,o),
(270,576,o),
(304,576,cs),
(341,576,o),
(357,549,o),
(348,503,cs),
(303,296,l),
(437,296,l),
(481,504,ls),
(491,552,o),
(514,576,o),
(549,576,cs),
(584,576,o),
(600,550,o),
(589,502,cs),
(483,0,l)
);
}
);
width = 719;
}
);
metricLeft = "=|muCarrier-canadian";
metricRight = "guCarrier-canadian";
note = uni1609;
unicode = 5641;
},
{
color = 9;
glyphname = "meCarrier-canadian";
lastChange = "2023-01-13 15:56:53 +0000";
layers = (
{
layerId = "ABE41ABD-D787-4F86-A3B4-502CADE9F2A5";
shapes = (
{
closed = 1;
nodes = (
(311,0,ls),
(473,0,o),
(566,86,o),
(566,216,cs),
(566,282,o),
(533,334,o),
(471,363,c),
(462,312,l),
(576,342,o),
(631,424,o),
(631,522,cs),
(631,624,o),
(555,690,o),
(442,690,cs),
(129,690,l),
(103,574,l),
(414,574,ls),
(462,574,o),
(490,547,o),
(490,504,cs),
(490,445,o),
(453,402,o),
(379,402,cs),
(275,402,l),
(251,288,l),
(354,288,ls),
(402,288,o),
(429,263,o),
(429,221,cs),
(429,179,o),
(407,116,o),
(318,116,cs),
(214,116,l),
(190,0,l)
);
}
);
width = 626;
}
);
metricLeft = "neCarrier-canadian";
metricRight = "geCarrier-canadian";
note = uni160A;
unicode = 5642;
},
{
color = 9;
glyphname = "meeCarrier-canadian";
lastChange = "2023-01-13 15:56:53 +0000";
layers = (
{
layerId = "ABE41ABD-D787-4F86-A3B4-502CADE9F2A5";
shapes = (
{
closed = 1;
nodes = (
(311,0,ls),
(473,0,o),
(566,86,o),
(566,216,cs),
(566,282,o),
(533,334,o),
(471,363,c),
(462,312,l),
(576,342,o),
(631,424,o),
(631,522,cs),
(631,624,o),
(555,690,o),
(442,690,cs),
(129,690,l),
(103,574,l),
(414,574,ls),
(462,574,o),
(490,547,o),
(490,504,cs),
(490,445,o),
(453,399,o),
(381,399,cs),
(357,399,l),
(374,472,l),
(291,472,l),
(237,217,l),
(319,217,l),
(335,291,l),
(358,291,ls),
(403,291,o),
(429,263,o),
(429,221,cs),
(429,179,o),
(407,116,o),
(318,116,cs),
(214,116,l),
(190,0,l)
);
}
);
width = 626;
}
);
metricLeft = "neCarrier-canadian";
metricRight = "geCarrier-canadian";
note = uni160B;
unicode = 5643;
},
{
color = 9;
glyphname = "miCarrier-canadian";
lastChange = "2023-01-13 15:56:53 +0000";
layers = (
{
layerId = "ABE41ABD-D787-4F86-A3B4-502CADE9F2A5";
shapes = (
{
closed = 1;
nodes = (
(311,0,ls),
(465,0,o),
(544,71,o),
(562,180,cs),
(576,264,o),
(545,327,o),
(471,363,c),
(462,312,l),
(563,338,o),
(613,403,o),
(627,486,cs),
(648,605,o),
(571,690,o),
(442,690,cs),
(129,690,l),
(103,574,l),
(414,574,ls),
(466,574,o),
(495,541,o),
(488,491,cs),
(481,436,o),
(445,399,o),
(378,399,cs),
(326,399,l),
(403,358,l),
(397,407,o),
(360,442,o),
(310,442,cs),
(257,442,o),
(216,397,o),
(216,345,cs),
(216,291,o),
(257,248,o),
(310,248,cs),
(359,248,o),
(396,284,o),
(403,330,c),
(324,291,l),
(355,291,ls),
(408,291,o),
(435,261,o),
(428,209,cs),
(420,159,o),
(391,116,o),
(318,116,cs),
(214,116,l),
(190,0,l)
);
}
);
width = 624;
}
);
metricLeft = "neCarrier-canadian";
metricRight = "geCarrier-canadian";
note = uni160C;
unicode = 5644;
},
{
color = 9;
glyphname = "maCarrier-canadian";
lastChange = "2023-01-13 15:56:50 +0000";
layers = (
{
layerId = "ABE41ABD-D787-4F86-A3B4-502CADE9F2A5";
shapes = (
{
closed = 1;
nodes = (
(541,0,l),
(566,116,l),
(254,116,ls),
(207,116,o),
(179,143,o),
(179,185,cs),
(179,244,o),
(215,288,o),
(290,288,cs),
(392,288,l),
(416,402,l),
(315,402,ls),
(267,402,o),
(240,427,o),
(240,469,cs),
(240,511,o),
(261,574,o),
(351,574,cs),
(453,574,l),
(478,690,l),
(357,690,ls),
(195,690,o),
(102,604,o),
(102,473,cs),
(102,408,o),
(134,355,o),
(196,327,c),
(207,378,l),
(93,348,o),
(38,266,o),
(38,168,cs),
(38,66,o),
(113,0,o),
(226,0,cs)
);
}
);
width = 626;
}
);
metricLeft = "=|geCarrier-canadian";
metricRight = "=|neCarrier-canadian";
note = uni160D;
unicode = 5645;
},
{
color = 9;
glyphname = "yuCarrier-canadian";
lastChange = "2023-01-13 15:56:53 +0000";
layers = (
{
layerId = "ABE41ABD-D787-4F86-A3B4-502CADE9F2A5";
shapes = (
{
closed = 1;
nodes = (
(469,-14,o),
(589,111,o),
(642,357,cs),
(689,580,o),
(643,703,o),
(508,703,cs),
(359,703,o),
(304,549,o),
(304,443,cs),
(304,353,o),
(351,293,o),
(425,293,cs),
(438,293,o),
(449,295,o),
(459,298,c),
(481,408,l),
(476,407,o),
(471,406,o),
(466,406,cs),
(440,406,o),
(426,424,o),
(426,458,cs),
(426,496,o),
(442,590,o),
(492,590,cs),
(538,590,o),
(544,527,o),
(517,400,cs),
(475,201,o),
(414,117,o),
(303,117,cs),
(213,117,o),
(177,174,o),
(198,275,cs),
(286,690,l),
(143,690,l),
(58,286,ls),
(20,107,o),
(110,-14,o),
(290,-14,cs)
);
}
);
width = 666;
}
);
metricLeft = "te-canadian";
metricRight = "te-canadian";
note = uni160E;
unicode = 5646;
},
{
color = 9;
glyphname = "yoCarrier-canadian";
lastChange = "2023-01-13 15:56:53 +0000";
layers = (
{
layerId = "ABE41ABD-D787-4F86-A3B4-502CADE9F2A5";
shapes = (
{
closed = 1;
nodes = (
(350,-14,o),
(405,141,o),
(405,246,cs),
(405,337,o),
(359,397,o),
(285,397,cs),
(272,397,o),
(261,395,o),
(251,391,c),
(228,282,l),
(233,283,o),
(238,284,o),
(243,284,cs),
(270,284,o),
(283,266,o),
(283,232,cs),
(283,194,o),
(267,99,o),
(217,99,cs),
(172,99,o),
(166,162,o),
(192,290,cs),
(234,489,o),
(296,573,o),
(406,573,cs),
(497,573,o),
(533,516,o),
(512,414,cs),
(424,0,l),
(566,0,l),
(652,404,ls),
(690,582,o),
(599,703,o),
(420,703,cs),
(241,703,o),
(120,579,o),
(67,332,cs),
(20,110,o),
(66,-14,o),
(201,-14,cs)
);
}
);
width = 666;
}
);
metricLeft = "te-canadian";
metricRight = "te-canadian";
note = uni160F;
unicode = 5647;
},
{
color = 9;
glyphname = "yeCarrier-canadian";
lastChange = "2023-01-13 15:56:53 +0000";
layers = (
{
layerId = "ABE41ABD-D787-4F86-A3B4-502CADE9F2A5";
shapes = (
{
closed = 1;
nodes = (
(494,-14,o),
(597,243,o),
(597,417,cs),
(597,594,o),
(498,690,o),
(319,690,cs),
(144,690,l),
(117,560,l),
(295,560,ls),
(400,560,o),
(453,508,o),
(453,404,cs),
(453,298,o),
(410,106,o),
(259,106,cs),
(190,106,o),
(150,141,o),
(150,202,cs),
(150,237,o),
(165,306,o),
(214,306,cs),
(239,306,o),
(252,290,o),
(252,257,cs),
(252,233,o),
(245,203,o),
(237,179,c),
(343,179,l),
(355,210,o),
(363,247,o),
(363,280,cs),
(363,365,o),
(311,419,o),
(222,419,cs),
(86,419,o),
(30,284,o),
(30,183,cs),
(30,64,o),
(114,-14,o),
(253,-14,cs)
);
}
);
width = 613;
}
);
metricRight = "theCarrier-canadian";
note = uni1610;
unicode = 5648;
},
{
color = 9;
glyphname = "yeeCarrier-canadian";
lastChange = "2023-01-13 15:56:53 +0000";
layers = (
{
layerId = "ABE41ABD-D787-4F86-A3B4-502CADE9F2A5";
shapes = (
{
closed = 1;
nodes = (
(494,-14,o),
(597,244,o),
(597,419,cs),
(597,594,o),
(497,690,o),
(320,690,cs),
(144,690,l),
(117,560,l),
(295,560,ls),
(400,560,o),
(453,508,o),
(453,404,cs),
(453,309,o),
(413,106,o),
(259,106,cs),
(189,106,o),
(150,139,o),
(150,200,cs),
(150,237,o),
(166,306,o),
(213,306,cs),
(242,306,o),
(254,278,o),
(244,232,cs),
(235,187,l),
(316,187,l),
(381,488,l),
(298,488,l),
(263,320,l),
(277,319,l),
(287,378,o),
(252,419,o),
(192,419,cs),
(80,419,o),
(32,284,o),
(32,191,cs),
(32,68,o),
(114,-14,o),
(258,-14,cs)
);
}
);
width = 613;
}
);
metricRight = "theCarrier-canadian";
metricWidth = "yeCarrier-canadian";
note = uni1611;
unicode = 5649;
},
{
color = 9;
glyphname = "yiCarrier-canadian";
lastChange = "2023-01-13 15:56:53 +0000";
layers = (
{
layerId = "ABE41ABD-D787-4F86-A3B4-502CADE9F2A5";
shapes = (
{
closed = 1;
nodes = (
(496,-14,o),
(597,242,o),
(597,419,cs),
(597,594,o),
(498,690,o),
(320,690,cs),
(144,690,l),
(117,560,l),
(295,560,ls),
(400,560,o),
(453,508,o),
(453,404,cs),
(453,305,o),
(412,106,o),
(259,106,cs),
(187,106,o),
(148,142,o),
(148,201,cs),
(148,258,o),
(175,308,o),
(232,305,c),
(201,344,l),
(201,296,o),
(242,260,o),
(290,260,cs),
(341,260,o),
(379,298,o),
(379,346,cs),
(379,394,o),
(341,431,o),
(290,431,cs),
(258,431,o),
(231,416,o),
(215,393,c),
(95,383,o),
(27,289,o),
(27,181,cs),
(27,66,o),
(116,-14,o),
(251,-14,cs)
);
}
);
width = 613;
}
);
metricRight = "theCarrier-canadian";
metricWidth = "yeCarrier-canadian";
note = uni1612;
unicode = 5650;
},
{
color = 9;
glyphname = "yaCarrier-canadian";
lastChange = "2023-01-13 15:56:53 +0000";
layers = (
{
layerId = "ABE41ABD-D787-4F86-A3B4-502CADE9F2A5";
shapes = (
{
closed = 1;
nodes = (
(512,0,l),
(540,129,l),
(362,129,ls),
(257,129,o),
(203,182,o),
(203,286,cs),
(203,392,o),
(246,583,o),
(397,583,cs),
(467,583,o),
(506,549,o),
(506,488,cs),
(506,453,o),
(492,384,o),
(442,384,cs),
(417,384,o),
(405,400,o),
(405,433,cs),
(405,459,o),
(412,487,o),
(419,511,c),
(314,511,l),
(301,480,o),
(293,442,o),
(293,410,cs),
(293,325,o),
(346,270,o),
(434,270,cs),
(571,270,o),
(627,406,o),
(627,507,cs),
(627,626,o),
(542,703,o),
(404,703,cs),
(163,703,o),
(59,446,o),
(59,272,cs),
(59,96,o),
(158,0,o),
(338,0,cs)
);
}
);
width = 615;
}
);
metricLeft = "=|theCarrier-canadian";
metricRight = "=|yeCarrier-canadian";
note = uni1613;
unicode = 5651;
},
{
color = 9;
glyphname = "juCarrier-canadian";
lastChange = "2023-01-13 15:56:53 +0000";
layers = (
{
layerId = "ABE41ABD-D787-4F86-A3B4-502CADE9F2A5";
shapes = (
{
closed = 1;
nodes = (
(487,-14,o),
(581,118,o),
(581,257,cs),
(581,354,o),
(525,419,o),
(433,419,cs),
(321,419,o),
(269,327,o),
(261,231,cs),
(259,211,o),
(258,191,o),
(260,179,c),
(366,179,l),
(366,193,o),
(366,213,o),
(371,238,cs),
(379,277,o),
(396,306,o),
(424,306,cs),
(449,306,o),
(462,287,o),
(462,253,cs),
(462,188,o),
(428,106,o),
(327,106,cs),
(241,106,o),
(195,154,o),
(195,240,cs),
(195,407,o),
(315,560,o),
(543,560,cs),
(640,560,l),
(668,690,l),
(136,690,l),
(109,565,l),
(334,565,l),
(445,615,l),
(208,603,o),
(56,454,o),
(56,238,cs),
(56,86,o),
(155,-14,o),
(311,-14,cs)
);
}
);
width = 622;
}
);
metricRight = "=|yeCarrier-canadian";
note = uni1614;
unicode = 5652;
},
{
color = 9;
glyphname = "juSayisi-canadian";
lastChange = "2023-01-13 15:56:53 +0000";
layers = (
{
anchors = (
{
name = top_center_can;
pos = (412,690);
}
);
layerId = "ABE41ABD-D787-4F86-A3B4-502CADE9F2A5";
shapes = (
{
closed = 1;
nodes = (
(442,-14,o),
(556,133,o),
(580,308,cs),
(605,490,o),
(513,607,o),
(322,620,c),
(418,565,l),
(646,565,l),
(672,690,l),
(140,690,l),
(113,560,l),
(213,560,ls),
(395,560,o),
(464,482,o),
(441,324,cs),
(428,217,o),
(384,106,o),
(263,106,cs),
(183,106,o),
(142,148,o),
(151,221,cs),
(155,260,o),
(173,306,o),
(209,306,cs),
(238,306,o),
(247,283,o),
(243,240,cs),
(242,219,o),
(238,199,o),
(230,179,c),
(335,179,l),
(346,204,o),
(353,228,o),
(355,256,cs),
(367,355,o),
(316,419,o),
(218,419,cs),
(113,419,o),
(48,334,o),
(34,228,cs),
(13,87,o),
(102,-14,o),
(258,-14,cs)
);
}
);
width = 619;
}
);
metricLeft = "yeCarrier-canadian";
metricRight = "=|juCarrier-canadian";
note = uni1615;
unicode = 5653;
},
{
color = 9;
glyphname = "joCarrier-canadian";
lastChange = "2023-01-13 15:56:50 +0000";
layers = (
{
layerId = "ABE41ABD-D787-4F86-A3B4-502CADE9F2A5";
shapes = (
{
closed = 1;
nodes = (
(527,0,l),
(554,125,l),
(329,125,l),
(218,74,l),
(456,87,o),
(608,236,o),
(608,452,cs),
(608,604,o),
(509,703,o),
(353,703,cs),
(177,703,o),
(84,572,o),
(84,433,cs),
(84,336,o),
(139,270,o),
(231,270,cs),
(343,270,o),
(395,363,o),
(403,459,cs),
(405,479,o),
(405,498,o),
(404,511,c),
(298,511,l),
(298,497,o),
(298,476,o),
(293,452,cs),
(285,412,o),
(268,384,o),
(240,384,cs),
(214,384,o),
(202,403,o),
(202,437,cs),
(202,501,o),
(236,583,o),
(337,583,cs),
(423,583,o),
(468,536,o),
(468,450,cs),
(468,283,o),
(349,129,o),
(121,129,cs),
(23,129,l),
(-5,0,l)
);
}
);
width = 620;
}
);
metricLeft = "yeCarrier-canadian";
metricRight = "=|juCarrier-canadian";
note = uni1616;
unicode = 5654;
},
{
color = 9;
glyphname = "jeCarrier-canadian";
lastChange = "2023-01-13 15:56:50 +0000";
layers = (
{
layerId = "ABE41ABD-D787-4F86-A3B4-502CADE9F2A5";
shapes = (
{
closed = 1;
nodes = (
(586,-14,o),
(643,282,o),
(643,433,cs),
(643,598,o),
(574,703,o),
(449,703,cs),
(342,703,o),
(260,625,o),
(216,478,c),
(242,476,l),
(287,690,l),
(146,690,l),
(-1,0,l),
(141,0,l),
(208,312,ls),
(242,479,o),
(314,573,o),
(408,573,cs),
(476,573,o),
(509,525,o),
(509,428,cs),
(509,354,o),
(475,99,o),
(401,99,cs),
(377,99,o),
(363,117,o),
(363,150,cs),
(363,192,o),
(384,284,o),
(441,284,cs),
(447,284,o),
(454,283,o),
(458,282,c),
(478,391,l),
(466,395,o),
(451,397,o),
(435,397,cs),
(298,397,o),
(244,243,o),
(244,143,cs),
(244,46,o),
(298,-14,o),
(391,-14,cs)
);
}
);
width = 668;
}
);
metricLeft = "nunavuth-canadian";
metricRight = "te-canadian";
note = uni1617;
unicode = 5655;
},
{
color = 9;
glyphname = "jeeCarrier-canadian";
lastChange = "2023-01-13 15:56:50 +0000";
layers = (
{
layerId = "ABE41ABD-D787-4F86-A3B4-502CADE9F2A5";
shapes = (
{
closed = 1;
nodes = (
(586,-14,o),
(643,286,o),
(643,431,cs),
(643,598,o),
(574,703,o),
(449,703,cs),
(341,703,o),
(260,624,o),
(216,477,c),
(242,476,l),
(287,690,l),
(146,690,l),
(-1,0,l),
(141,0,l),
(205,299,ls),
(244,482,o),
(311,573,o),
(406,573,cs),
(476,573,o),
(509,525,o),
(509,426,cs),
(509,308,o),
(471,99,o),
(378,99,cs),
(335,99,o),
(313,127,o),
(313,174,cs),
(313,213,o),
(328,279,o),
(372,301,c),
(356,230,l),
(424,230,l),
(469,449,l),
(403,449,l),
(387,375,l),
(283,348,o),
(243,221,o),
(243,140,cs),
(243,46,o),
(298,-14,o),
(391,-14,cs)
);
}
);
width = 668;
}
);
metricLeft = "nunavuth-canadian";
metricRight = "jeCarrier-canadian";
note = uni1618;
unicode = 5656;
},
{
color = 9;
glyphname = "jiCarrier-canadian";
lastChange = "2023-01-13 15:56:50 +0000";
layers = (
{
layerId = "ABE41ABD-D787-4F86-A3B4-502CADE9F2A5";
shapes = (
{
closed = 1;
nodes = (
(586,-14,o),
(643,286,o),
(643,431,cs),
(643,598,o),
(574,703,o),
(449,703,cs),
(341,703,o),
(260,624,o),
(216,477,c),
(242,476,l),
(287,690,l),
(146,690,l),
(-1,0,l),
(141,0,l),
(205,299,ls),
(244,482,o),
(311,573,o),
(406,573,cs),
(476,573,o),
(509,525,o),
(509,426,cs),
(509,308,o),
(471,99,o),
(378,99,cs),
(335,99,o),
(313,127,o),
(313,174,cs),
(313,203,o),
(322,247,o),
(347,271,c),
(357,262,o),
(373,255,o),
(390,255,cs),
(437,255,o),
(469,293,o),
(469,340,cs),
(469,388,o),
(436,424,o),
(390,424,cs),
(338,424,o),
(303,376,o),
(313,324,c),
(263,277,o),
(243,197,o),
(243,140,cs),
(243,46,o),
(298,-14,o),
(391,-14,cs)
);
}
);
width = 668;
}
);
metricLeft = "nunavuth-canadian";
metricRight = "jeCarrier-canadian";
note = uni1619;
unicode = 5657;
},
{
color = 9;
glyphname = "jiSayisi-canadian";
lastChange = "2023-01-13 15:56:50 +0000";
layers = (
{
layerId = "ABE41ABD-D787-4F86-A3B4-502CADE9F2A5";
shapes = (
{
closed = 1;
nodes = (
(561,-14,o),
(662,325,o),
(662,503,cs),
(662,634,o),
(609,703,o),
(507,703,cs),
(359,703,o),
(308,544,o),
(308,442,cs),
(308,350,o),
(355,293,o),
(425,293,cs),
(441,293,o),
(451,295,o),
(459,298,c),
(484,408,l),
(479,407,o),
(474,406,o),
(468,406,cs),
(442,407,o),
(428,423,o),
(428,459,cs),
(428,492,o),
(445,590,o),
(496,590,cs),
(522,590,o),
(533,568,o),
(533,520,cs),
(533,439,o),
(483,117,o),
(323,117,cs),
(195,117,o),
(199,271,o),
(224,388,cs),
(288,690,l),
(146,690,l),
(-1,0,l),
(140,0,l),
(193,250,l),
(165,253,l),
(141,117,o),
(191,-14,o),
(333,-14,cs)
);
}
);
width = 669;
}
);
metricLeft = "nunavuth-canadian";
metricRight = "jeCarrier-canadian";
note = uni161A;
unicode = 5658;
},
{
color = 9;
glyphname = "jaCarrier-canadian";
lastChange = "2023-01-13 15:56:53 +0000";
layers = (
{
anchors = (
{
name = top_center_can;
pos = (421,690);
}
);
layerId = "ABE41ABD-D787-4F86-A3B4-502CADE9F2A5";
shapes = (
{
closed = 1;
nodes = (
(369,-14,o),
(451,66,o),
(495,213,c),
(469,214,l),
(424,1,l),
(565,1,l),
(712,691,l),
(570,691,l),
(503,379,ls),
(468,212,o),
(397,117,o),
(303,117,cs),
(235,117,o),
(202,166,o),
(202,263,cs),
(202,336,o),
(236,591,o),
(310,591,cs),
(334,591,o),
(348,573,o),
(348,541,cs),
(348,498,o),
(326,407,o),
(269,407,cs),
(263,407,o),
(257,408,o),
(253,409,c),
(233,299,l),
(245,296,o),
(260,294,o),
(276,294,cs),
(413,294,o),
(467,446,o),
(467,548,cs),
(467,644,o),
(412,704,o),
(320,704,cs),
(125,704,o),
(68,409,o),
(68,257,cs),
(68,93,o),
(137,-14,o),
(262,-14,cs)
);
}
);
width = 668;
}
);
metricLeft = "=|jeCarrier-canadian";
metricRight = "nunavuth-canadian";
note = uni161B;
unicode = 5659;
},
{
color = 9;
glyphname = "jjuCarrier-canadian";
lastChange = "2023-01-13 15:56:53 +0000";
layers = (
{
layerId = "ABE41ABD-D787-4F86-A3B4-502CADE9F2A5";
shapes = (
{
closed = 1;
nodes = (
(474,-14,o),
(578,116,o),
(578,262,cs),
(578,356,o),
(522,419,o),
(432,419,cs),
(342,419,o),
(283,357,o),
(260,253,cs),
(254,227,o),
(251,199,o),
(251,179,c),
(357,179,l),
(358,188,o),
(361,212,o),
(366,234,cs),
(377,280,o),
(395,306,o),
(423,306,cs),
(447,306,o),
(459,287,o),
(459,256,cs),
(459,192,o),
(423,103,o),
(322,103,cs),
(240,103,o),
(196,153,o),
(196,242,cs),
(196,421,o),
(303,560,o),
(505,560,cs),
(635,560,l),
(663,690,l),
(527,690,ls),
(426,690,o),
(335,665,o),
(263,621,c),
(200,703,l),
(86,616,l),
(154,529,l),
(89,453,o),
(58,350,o),
(58,248,cs),
(58,92,o),
(154,-14,o),
(307,-14,cs)
);
}
);
width = 618;
}
);
metricRight = "=|yeCarrier-canadian";
note = uni161C;
unicode = 5660;
},
{
color = 9;
glyphname = "jjoCarrier-canadian";
lastChange = "2023-01-13 15:56:53 +0000";
layers = (
{
layerId = "ABE41ABD-D787-4F86-A3B4-502CADE9F2A5";
shapes = (
{
closed = 1;
nodes = (
(575,73,l),
(507,160,l),
(572,237,o),
(603,340,o),
(603,441,cs),
(603,598,o),
(507,703,o),
(353,703,cs),
(186,703,o),
(83,574,o),
(83,428,cs),
(83,333,o),
(139,270,o),
(228,270,cs),
(318,270,o),
(378,332,o),
(401,437,cs),
(407,463,o),
(410,491,o),
(410,511,c),
(303,511,l),
(302,501,o),
(299,478,o),
(295,456,cs),
(284,410,o),
(266,384,o),
(238,384,cs),
(214,384,o),
(202,403,o),
(202,434,cs),
(202,497,o),
(237,586,o),
(339,586,cs),
(421,586,o),
(465,537,o),
(465,447,cs),
(465,269,o),
(357,129,o),
(155,129,cs),
(25,129,l),
(-2,0,l),
(133,0,ls),
(235,0,o),
(325,25,o),
(398,69,c),
(461,-14,l)
);
}
);
width = 618;
}
);
metricLeft = "yeCarrier-canadian";
metricRight = "=|jjuCarrier-canadian";
note = uni161D;
unicode = 5661;
},
{
color = 9;
glyphname = "jjeCarrier-canadian";
lastChange = "2023-01-13 15:56:50 +0000";
layers = (
{
layerId = "ABE41ABD-D787-4F86-A3B4-502CADE9F2A5";
shapes = (
{
closed = 1;
nodes = (
(596,-14,o),
(652,283,o),
(652,431,cs),
(652,607,o),
(568,703,o),
(416,703,cs),
(351,703,o),
(289,684,o),
(237,642,c),
(183,703,l),
(77,606,l),
(144,531,l),
(120,489,o),
(101,439,o),
(88,379,cs),
(8,0,l),
(150,0,l),
(230,376,ls),
(258,506,o),
(317,573,o),
(407,573,cs),
(482,573,o),
(518,526,o),
(518,428,cs),
(518,356,o),
(484,99,o),
(410,99,cs),
(384,99,o),
(372,117,o),
(372,151,cs),
(372,192,o),
(393,284,o),
(448,284,cs),
(456,284,o),
(462,283,o),
(467,282,c),
(487,391,l),
(476,395,o),
(460,397,o),
(444,397,cs),
(306,397,o),
(253,244,o),
(253,144,cs),
(253,46,o),
(306,-14,o),
(400,-14,cs)
);
}
);
width = 677;
}
);
metricRight = "jeCarrier-canadian";
note = uni161E;
unicode = 5662;
},
{
color = 9;
glyphname = "jjeeCarrier-canadian";
lastChange = "2023-01-13 15:56:50 +0000";
layers = (
{
layerId = "ABE41ABD-D787-4F86-A3B4-502CADE9F2A5";
shapes = (
{
closed = 1;
nodes = (
(596,-14,o),
(652,283,o),
(652,431,cs),
(652,607,o),
(568,703,o),
(416,703,cs),
(351,703,o),
(289,684,o),
(237,642,c),
(183,703,l),
(77,606,l),
(144,531,l),
(120,489,o),
(101,439,o),
(88,379,cs),
(8,0,l),
(150,0,l),
(230,376,ls),
(258,506,o),
(317,573,o),
(407,573,cs),
(482,573,o),
(518,526,o),
(518,428,cs),
(518,340,o),
(489,99,o),
(390,99,cs),
(350,99,o),
(322,124,o),
(322,175,cs),
(322,228,o),
(341,286,o),
(381,303,c),
(365,230,l),
(432,230,l),
(478,448,l),
(412,448,l),
(396,374,l),
(295,348,o),
(253,231,o),
(253,144,cs),
(253,46,o),
(306,-14,o),
(400,-14,cs)
);
}
);
width = 677;
}
);
metricLeft = "jjeCarrier-canadian";
metricRight = "jeCarrier-canadian";
note = uni161F;
unicode = 5663;
},
{
color = 9;
glyphname = "jjiCarrier-canadian";
lastChange = "2023-01-13 15:56:53 +0000";
layers = (
{
layerId = "ABE41ABD-D787-4F86-A3B4-502CADE9F2A5";
shapes = (
{
closed = 1;
nodes = (
(520,-14,o),
(596,91,o),
(636,279,cs),
(691,544,o),
(608,703,o),
(416,703,cs),
(348,703,o),
(287,683,o),
(237,643,c),
(183,703,l),
(77,606,l),
(144,532,l),
(120,490,o),
(100,438,o),
(88,379,cs),
(8,0,l),
(150,0,l),
(230,376,ls),
(258,506,o),
(317,573,o),
(407,573,cs),
(510,573,o),
(543,481,o),
(502,288,cs),
(475,158,o),
(445,99,o),
(386,99,cs),
(333,99,o),
(312,144,o),
(327,215,cs),
(331,242,o),
(340,262,o),
(355,272,c),
(366,262,o),
(383,255,o),
(401,255,cs),
(447,255,o),
(480,293,o),
(480,340,cs),
(480,387,o),
(446,424,o),
(401,424,cs),
(341,424,o),
(316,366,o),
(324,324,c),
(292,297,o),
(270,253,o),
(259,199,cs),
(232,71,o),
(290,-14,o),
(399,-14,cs)
);
}
);
width = 677;
}
);
metricLeft = "jjeCarrier-canadian";
metricRight = "jeCarrier-canadian";
note = uni1620;
unicode = 5664;
},
{
color = 9;
glyphname = "jjaCarrier-canadian";
lastChange = "2023-01-13 15:56:53 +0000";
layers = (
{
layerId = "ABE41ABD-D787-4F86-A3B4-502CADE9F2A5";
shapes = (
{
closed = 1;
nodes = (
(369,-14,o),
(431,6,o),
(483,47,c),
(537,-14,l),
(642,84,l),
(576,158,l),
(600,201,o),
(618,251,o),
(632,311,cs),
(712,690,l),
(570,690,l),
(490,314,ls),
(462,184,o),
(403,117,o),
(313,117,cs),
(238,117,o),
(202,163,o),
(202,262,cs),
(202,333,o),
(236,590,o),
(310,590,cs),
(335,590,o),
(348,573,o),
(348,539,cs),
(348,497,o),
(326,406,o),
(271,406,cs),
(264,406,o),
(258,407,o),
(253,408,c),
(233,298,l),
(243,295,o),
(260,293,o),
(275,293,cs),
(413,293,o),
(467,445,o),
(467,546,cs),
(467,643,o),
(412,703,o),
(320,703,cs),
(124,703,o),
(68,407,o),
(68,259,cs),
(68,83,o),
(152,-14,o),
(303,-14,cs)
);
}
);
width = 676;
}
);
metricLeft = "=|jeCarrier-canadian";
metricRight = "=|jjeCarrier-canadian";
note = uni1621;
unicode = 5665;
},
{
color = 9;
glyphname = "luCarrier-canadian";
lastChange = "2023-01-13 15:56:50 +0000";
layers = (
{
layerId = "ABE41ABD-D787-4F86-A3B4-502CADE9F2A5";
shapes = (
{
closed = 1;
nodes = (
(442,-14,o),
(534,69,o),
(571,239,cs),
(667,690,l),
(525,690,l),
(432,254,ls),
(412,159,o),
(370,117,o),
(300,117,cs),
(234,117,o),
(199,158,o),
(199,238,cs),
(199,344,o),
(254,549,o),
(399,577,c),
(424,690,l),
(138,690,l),
(113,573,l),
(265,573,l),
(373,616,l),
(163,608,o),
(55,404,o),
(55,227,cs),
(55,81,o),
(142,-14,o),
(297,-14,cs)
);
}
);
width = 620;
}
);
metricRight = "te-canadian";
note = uni1622;
unicode = 5666;
},
{
color = 9;
glyphname = "loCarrier-canadian";
lastChange = "2023-01-13 15:56:50 +0000";
layers = (
{
layerId = "ABE41ABD-D787-4F86-A3B4-502CADE9F2A5";
shapes = (
{
closed = 1;
nodes = (
(139,0,l),
(232,436,ls),
(252,530,o),
(294,573,o),
(362,573,cs),
(430,573,o),
(464,531,o),
(464,452,cs),
(464,346,o),
(409,141,o),
(264,113,c),
(240,0,l),
(526,0,l),
(551,117,l),
(399,117,l),
(291,73,l),
(500,82,o),
(609,286,o),
(609,463,cs),
(609,609,o),
(521,703,o),
(367,703,cs),
(220,703,o),
(128,621,o),
(93,451,cs),
(-4,0,l)
);
}
);
width = 621;
}
);
metricLeft = "te-canadian";
metricRight = "=|luCarrier-canadian";
note = uni1623;
unicode = 5667;
},
{
color = 9;
glyphname = "leCarrier-canadian";
lastChange = "2023-01-13 15:56:53 +0000";
layers = (
{
anchors = (
{
name = middle_center_can;
pos = (319,346);
}
);
layerId = "ABE41ABD-D787-4F86-A3B4-502CADE9F2A5";
shapes = (
{
closed = 1;
nodes = (
(212,0,ls),
(531,0,o),
(600,266,o),
(600,440,cs),
(600,597,o),
(528,703,o),
(414,703,cs),
(334,703,o),
(267,650,o),
(227,555,c),
(242,554,l),
(270,690,l),
(143,690,l),
(76,376,l),
(196,376,l),
(225,498,o),
(286,573,o),
(359,573,cs),
(422,573,o),
(457,518,o),
(457,425,cs),
(457,307,o),
(412,129,o),
(214,129,cs),
(23,129,l),
(-4,0,l)
);
}
);
width = 615;
}
);
metricRight = "theCarrier-canadian";
note = uni1624;
unicode = 5668;
},
{
color = 9;
glyphname = "laCarrier-canadian";
lastChange = "2023-01-13 15:56:53 +0000";
layers = (
{
layerId = "ABE41ABD-D787-4F86-A3B4-502CADE9F2A5";
shapes = (
{
closed = 1;
nodes = (
(516,0,l),
(544,129,l),
(368,129,ls),
(257,129,o),
(202,182,o),
(202,281,cs),
(202,374,o),
(247,573,o),
(377,573,cs),
(457,573,o),
(495,497,o),
(475,376,c),
(596,376,l),
(663,690,l),
(535,690,l),
(502,540,l),
(515,533,l),
(514,639,o),
(456,703,o),
(367,703,cs),
(155,703,o),
(59,436,o),
(59,270,cs),
(59,101,o),
(159,0,o),
(344,0,cs)
);
}
);
width = 617;
}
);
metricLeft = "=|theCarrier-canadian";
metricRight = "=|leCarrier-canadian";
note = uni1627;
unicode = 5671;
},
{
color = 1;
glyphname = "dluCarrier-canadian";
lastChange = "2023-01-13 15:56:50 +0000";
layers = (
{
layerId = "ABE41ABD-D787-4F86-A3B4-502CADE9F2A5";
shapes = (
{
closed = 1;
nodes = (
(519,-14,o),
(588,245,o),
(588,385,cs),
(588,512,o),
(526,589,o),
(406,617,c),
(439,582,l),
(628,582,l),
(611,504,l),
(714,504,l),
(769,767,l),
(667,767,l),
(650,690,l),
(386,690,l),
(361,576,l),
(425,557,o),
(455,506,o),
(455,421,cs),
(455,337,o),
(419,117,o),
(284,117,cs),
(208,117,o),
(177,176,o),
(199,282,cs),
(286,690,l),
(143,690,l),
(59,293,ls),
(17,100,o),
(100,-14,o),
(272,-14,cs)
);
}
);
width = 684;
}
);
metricLeft = "te-canadian";
note = uni1628;
unicode = 5672;
},
{
color = 9;
glyphname = "dloCarrier-canadian";
lastChange = "2023-01-13 15:56:50 +0000";
layers = (
{
layerId = "ABE41ABD-D787-4F86-A3B4-502CADE9F2A5";
shapes = (
{
closed = 1;
nodes = (
(590,-77,l),
(646,185,l),
(544,185,l),
(526,107,l),
(386,107,l),
(316,84,l),
(477,97,o),
(609,250,o),
(609,463,cs),
(609,609,o),
(521,703,o),
(367,703,cs),
(220,703,o),
(128,621,o),
(93,451,cs),
(-4,0,l),
(139,0,l),
(232,436,ls),
(252,530,o),
(294,573,o),
(362,573,cs),
(430,573,o),
(464,531,o),
(464,452,cs),
(464,346,o),
(409,141,o),
(264,113,c),
(240,0,l),
(504,0,l),
(488,-77,l)
);
}
);
width = 684;
}
);
metricLeft = "te-canadian";
metricRight = "dluCarrier-canadian";
note = uni1629;
unicode = 5673;
},
{
color = 9;
glyphname = "dleCarrier-canadian";
lastChange = "2023-01-13 15:56:50 +0000";
layers = (
{
anchors = (
{
name = middle_center_can;
pos = (335,346);
}
);
layerId = "ABE41ABD-D787-4F86-A3B4-502CADE9F2A5";
shapes = (
{
closed = 1;
nodes = (
(227,0,ls),
(547,0,o),
(616,266,o),
(616,440,cs),
(616,597,o),
(545,703,o),
(431,703,cs),
(346,703,o),
(257,640,o),
(215,528,c),
(225,528,l),
(260,696,l),
(327,696,l),
(349,796,l),
(116,796,l),
(95,696,l),
(160,696,l),
(92,376,l),
(213,376,l),
(241,498,o),
(302,573,o),
(375,573,cs),
(439,573,o),
(473,518,o),
(473,425,cs),
(473,307,o),
(427,129,o),
(230,129,cs),
(39,129,l),
(12,0,l)
);
}
);
width = 631;
}
);
metricRight = "theCarrier-canadian";
note = uni162A;
unicode = 5674;
},
{
color = 9;
glyphname = "dlaCarrier-canadian";
lastChange = "2023-01-13 15:56:50 +0000";
layers = (
{
layerId = "ABE41ABD-D787-4F86-A3B4-502CADE9F2A5";
shapes = (
{
closed = 1;
nodes = (
(516,0,l),
(544,129,l),
(368,129,ls),
(257,129,o),
(202,182,o),
(202,281,cs),
(202,374,o),
(247,573,o),
(377,573,cs),
(457,573,o),
(495,497,o),
(475,376,c),
(596,376,l),
(664,696,l),
(728,696,l),
(750,796,l),
(517,796,l),
(497,696,l),
(561,696,l),
(526,527,l),
(539,521,l),
(539,639,o),
(456,703,o),
(367,703,cs),
(155,703,o),
(59,436,o),
(59,270,cs),
(59,101,o),
(159,0,o),
(344,0,cs)
);
}
);
width = 632;
}
);
metricLeft = "=|theCarrier-canadian";
metricRight = "=|dleCarrier-canadian";
note = uni162D;
unicode = 5677;
},
{
color = 9;
glyphname = "lhuCarrier-canadian";
lastChange = "2023-01-13 15:56:53 +0000";
layers = (
{
layerId = "ABE41ABD-D787-4F86-A3B4-502CADE9F2A5";
shapes = (
{
closed = 1;
nodes = (
(514,-14,o),
(599,208,o),
(599,375,cs),
(599,497,o),
(547,589,o),
(458,617,c),
(507,572,l),
(658,572,l),
(683,690,l),
(456,690,l),
(431,577,l),
(457,554,o),
(470,510,o),
(470,455,cs),
(470,354,o),
(432,117,o),
(300,117,cs),
(237,117,o),
(203,159,o),
(203,241,cs),
(203,327,o),
(245,516,o),
(341,577,c),
(365,690,l),
(138,690,l),
(113,572,l),
(266,572,l),
(333,621,l),
(153,586,o),
(59,382,o),
(59,225,cs),
(59,80,o),
(144,-14,o),
(296,-14,cs)
);
}
);
width = 631;
}
);
metricLeft = "luCarrier-canadian";
metricRight = "=|";
note = uni162E;
unicode = 5678;
},
{
color = 9;
glyphname = "lhoCarrier-canadian";
lastChange = "2023-01-13 15:56:53 +0000";
layers = (
{
layerId = "ABE41ABD-D787-4F86-A3B4-502CADE9F2A5";
shapes = (
{
closed = 1;
nodes = (
(218,0,l),
(242,113,l),
(217,136,o),
(204,180,o),
(204,235,cs),
(204,336,o),
(242,573,o),
(373,573,cs),
(437,573,o),
(470,530,o),
(470,449,cs),
(470,363,o),
(429,174,o),
(333,113,c),
(309,0,l),
(536,0,l),
(561,118,l),
(409,118,l),
(340,69,l),
(522,103,o),
(615,308,o),
(615,465,cs),
(615,610,o),
(530,703,o),
(379,703,cs),
(159,703,o),
(75,482,o),
(75,315,cs),
(75,192,o),
(127,100,o),
(216,72,c),
(167,118,l),
(16,118,l),
(-9,0,l)
);
}
);
width = 631;
}
);
metricLeft = "luCarrier-canadian";
metricRight = "=|";
note = uni162F;
unicode = 5679;
},
{
color = 9;
glyphname = "lheCarrier-canadian";
lastChange = "2023-01-13 15:56:50 +0000";
layers = (
{
anchors = (
{
name = middle_center_can;
pos = (331,345);
}
);
layerId = "ABE41ABD-D787-4F86-A3B4-502CADE9F2A5";
shapes = (
{
closed = 1;
nodes = (
(524,-14,o),
(619,263,o),
(619,445,cs),
(619,603,o),
(548,703,o),
(428,703,cs),
(346,703,o),
(280,656,o),
(242,568,c),
(248,566,l),
(274,690,l),
(147,690,l),
(87,410,l),
(207,410,l),
(245,524,o),
(302,573,o),
(372,573,cs),
(441,573,o),
(479,524,o),
(479,436,cs),
(479,331,o),
(425,117,o),
(290,117,cs),
(215,117,o),
(176,177,o),
(180,280,c),
(59,280,l),
(0,0,l),
(128,0,l),
(158,152,l),
(148,152,l),
(151,50,o),
(214,-14,o),
(319,-14,cs)
);
}
);
width = 632;
}
);
metricLeft = "nunavuth-canadian";
metricRight = "theCarrier-canadian";
note = uni1630;
unicode = 5680;
},
{
color = 9;
glyphname = "lhaCarrier-canadian";
lastChange = "2023-01-13 15:56:53 +0000";
layers = (
{
layerId = "ABE41ABD-D787-4F86-A3B4-502CADE9F2A5";
shapes = (
{
closed = 1;
nodes = (
(327,-14,o),
(394,34,o),
(432,122,c),
(426,124,l),
(400,0,l),
(527,0,l),
(587,280,l),
(468,280,l),
(429,166,o),
(372,117,o),
(302,117,cs),
(233,117,o),
(195,166,o),
(195,254,cs),
(195,358,o),
(249,573,o),
(384,573,cs),
(458,573,o),
(498,513,o),
(495,410,c),
(614,410,l),
(674,690,l),
(547,690,l),
(515,538,l),
(526,538,l),
(524,639,o),
(460,703,o),
(362,703,cs),
(151,703,o),
(55,427,o),
(55,244,cs),
(55,87,o),
(127,-14,o),
(246,-14,cs)
);
}
);
width = 630;
}
);
metricLeft = "=|theCarrier-canadian";
metricRight = "nunavuth-canadian";
note = uni1633;
unicode = 5683;
},
{
color = 9;
glyphname = "tlhuCarrier-canadian";
lastChange = "2023-01-13 15:56:50 +0000";
layers = (
{
layerId = "ABE41ABD-D787-4F86-A3B4-502CADE9F2A5";
shapes = (
{
closed = 1;
nodes = (
(514,-14,o),
(599,208,o),
(599,375,cs),
(599,486,o),
(571,579,o),
(480,617,c),
(472,582,l),
(639,582,l),
(621,504,l),
(724,504,l),
(780,767,l),
(677,767,l),
(660,690,l),
(456,690,l),
(431,577,l),
(457,554,o),
(470,510,o),
(470,455,cs),
(470,354,o),
(432,117,o),
(300,117,cs),
(237,117,o),
(203,159,o),
(203,241,cs),
(203,327,o),
(245,516,o),
(341,577,c),
(365,690,l),
(138,690,l),
(113,572,l),
(287,572,l),
(280,602,l),
(128,543,o),
(59,358,o),
(59,225,cs),
(59,80,o),
(144,-14,o),
(296,-14,cs)
);
}
);
width = 690;
}
);
metricLeft = "lhuCarrier-canadian";
note = uni1634;
unicode = 5684;
},
{
color = 9;
glyphname = "tlhoCarrier-canadian";
lastChange = "2023-01-13 15:56:53 +0000";
layers = (
{
layerId = "ABE41ABD-D787-4F86-A3B4-502CADE9F2A5";
shapes = (
{
closed = 1;
nodes = (
(55,-77,l),
(72,0,l),
(277,0,l),
(301,113,l),
(275,136,o),
(263,180,o),
(263,235,cs),
(263,336,o),
(300,573,o),
(432,573,cs),
(496,573,o),
(529,530,o),
(529,449,cs),
(529,363,o),
(488,174,o),
(392,113,c),
(367,0,l),
(595,0,l),
(620,118,l),
(445,118,l),
(453,88,l),
(606,147,o),
(674,331,o),
(674,465,cs),
(674,610,o),
(588,703,o),
(437,703,cs),
(218,703,o),
(134,482,o),
(134,315,cs),
(134,204,o),
(161,111,o),
(252,72,c),
(261,107,l),
(95,107,l),
(111,185,l),
(9,185,l),
(-47,-77,l)
);
}
);
width = 690;
}
);
metricLeft = "=|tlhuCarrier-canadian";
metricRight = "lhuCarrier-canadian";
note = uni1635;
unicode = 5685;
},
{
color = 9;
glyphname = "tlheCarrier-canadian";
lastChange = "2023-01-13 15:56:53 +0000";
layers = (
{
anchors = (
{
name = middle_center_can;
pos = (342,345);
}
);
layerId = "ABE41ABD-D787-4F86-A3B4-502CADE9F2A5";
shapes = (
{
closed = 1;
nodes = (
(536,-14,o),
(633,263,o),
(633,445,cs),
(633,603,o),
(559,703,o),
(440,703,cs),
(327,703,o),
(249,628,o),
(207,507,c),
(234,559,l),
(263,696,l),
(327,696,l),
(348,796,l),
(116,796,l),
(95,696,l),
(160,696,l),
(99,410,l),
(219,410,l),
(257,524,o),
(314,573,o),
(384,573,cs),
(453,573,o),
(493,524,o),
(493,436,cs),
(493,331,o),
(438,117,o),
(302,117,cs),
(228,117,o),
(187,177,o),
(191,280,c),
(71,280,l),
(12,0,l),
(139,0,l),
(171,152,l),
(159,152,l),
(162,50,o),
(227,-14,o),
(330,-14,cs)
);
}
);
width = 646;
}
);
metricLeft = "dleCarrier-canadian";
metricRight = "theCarrier-canadian";
note = uni1636;
unicode = 5686;
},
{
color = 9;
glyphname = "tlhaCarrier-canadian";
lastChange = "2023-01-13 15:56:50 +0000";
layers = (
{
layerId = "ABE41ABD-D787-4F86-A3B4-502CADE9F2A5";
shapes = (
{
closed = 1;
nodes = (
(327,-14,o),
(395,34,o),
(434,122,c),
(427,124,l),
(402,0,l),
(529,0,l),
(589,280,l),
(469,280,l),
(430,166,o),
(373,117,o),
(302,117,cs),
(233,117,o),
(195,166,o),
(195,254,cs),
(195,358,o),
(249,573,o),
(384,573,cs),
(460,573,o),
(500,513,o),
(496,410,c),
(616,410,l),
(677,696,l),
(742,696,l),
(764,796,l),
(530,796,l),
(509,696,l),
(575,696,l),
(538,526,l),
(547,525,l),
(541,645,o),
(462,703,o),
(362,703,cs),
(151,703,o),
(55,427,o),
(55,244,cs),
(55,87,o),
(127,-14,o),
(246,-14,cs)
);
}
);
width = 646;
}
);
metricLeft = "=|theCarrier-canadian";
metricRight = "=|dleCarrier-canadian";
note = uni1639;
unicode = 5689;
},
{
color = 9;
glyphname = "tluCarrier-canadian";
lastChange = "2023-01-13 15:56:50 +0000";
layers = (
{
layerId = "ABE41ABD-D787-4F86-A3B4-502CADE9F2A5";
shapes = (
{
closed = 1;
nodes = (
(272,-14,o),
(326,23,o),
(368,103,c),
(323,104,l),
(338,27,o),
(386,-14,o),
(464,-14,cs),
(649,-14,o),
(705,255,o),
(705,393,cs),
(705,500,o),
(668,571,o),
(601,603,c),
(568,582,l),
(745,582,l),
(728,504,l),
(831,504,l),
(886,767,l),
(783,767,l),
(767,690,l),
(509,690,l),
(485,576,l),
(544,568,o),
(573,525,o),
(573,439,cs),
(573,367,o),
(539,115,o),
(461,115,cs),
(428,115,o),
(415,141,o),
(426,191,cs),
(450,308,l),
(316,308,l),
(292,191,ls),
(280,140,o),
(261,115,o),
(231,115,cs),
(202,115,o),
(188,133,o),
(188,179,cs),
(188,252,o),
(245,575,o),
(394,576,c),
(418,690,l),
(139,690,l),
(114,572,l),
(290,572,l),
(267,596,l),
(100,524,o),
(49,301,o),
(49,171,cs),
(49,51,o),
(104,-14,o),
(200,-14,cs)
);
}
);
width = 797;
}
);
metricRight = "tlhuCarrier-canadian";
note = uni163A;
unicode = 5690;
},
{
color = 1;
glyphname = "tloCarrier-canadian";
lastChange = "2023-01-13 15:56:50 +0000";
layers = (
{
layerId = "ABE41ABD-D787-4F86-A3B4-502CADE9F2A5";
shapes = (
{
closed = 1;
nodes = (
(707,-77,l),
(763,185,l),
(661,185,l),
(643,107,l),
(477,107,l),
(497,86,l),
(677,154,o),
(732,383,o),
(732,519,cs),
(732,639,o),
(677,703,o),
(582,703,cs),
(509,703,o),
(455,667,o),
(413,586,c),
(459,585,l),
(443,663,o),
(395,703,o),
(318,703,cs),
(132,703,o),
(76,435,o),
(76,297,cs),
(76,197,o),
(109,129,o),
(167,95,c),
(204,118,l),
(17,118,l),
(-8,0,l),
(272,0,l),
(297,114,l),
(238,122,o),
(209,165,o),
(209,251,cs),
(209,323,o),
(242,575,o),
(321,575,cs),
(354,575,o),
(366,549,o),
(355,498,cs),
(331,382,l),
(466,382,l),
(490,498,ls),
(501,550,o),
(521,575,o),
(551,575,cs),
(580,575,o),
(593,556,o),
(593,511,cs),
(593,438,o),
(537,115,o),
(387,114,c),
(363,0,l),
(621,0,l),
(605,-77,l)
);
}
);
width = 797;
}
);
metricLeft = "tluCarrier-canadian";
metricRight = "tlhuCarrier-canadian";
note = uni163B;
unicode = 5691;
},
{
color = 9;
glyphname = "tleCarrier-canadian";
lastChange = "2023-01-13 15:56:53 +0000";
layers = (
{
anchors = (
{
name = middle_center_can;
pos = (292,345);
}
);
layerId = "ABE41ABD-D787-4F86-A3B4-502CADE9F2A5";
shapes = (
{
closed = 1;
nodes = (
(471,-14,o),
(575,80,o),
(575,218,cs),
(575,293,o),
(537,352,o),
(476,359,c),
(470,330,l),
(573,341,o),
(642,437,o),
(642,535,cs),
(642,633,o),
(571,703,o),
(458,703,cs),
(358,703,o),
(271,649,o),
(223,551,c),
(232,550,l),
(263,696,l),
(327,696,l),
(349,796,l),
(116,796,l),
(95,696,l),
(159,696,l),
(99,410,l),
(216,410,l),
(244,519,o),
(309,577,o),
(399,577,cs),
(461,577,o),
(497,546,o),
(497,498,cs),
(497,446,o),
(463,403,o),
(403,403,cs),
(380,403,l),
(355,288,l),
(378,288,ls),
(413,288,o),
(439,266,o),
(439,226,cs),
(439,161,o),
(397,113,o),
(319,113,cs),
(221,113,o),
(174,172,o),
(188,280,c),
(71,280,l),
(13,0,l),
(140,0,l),
(171,146,l),
(149,145,l),
(151,47,o),
(228,-14,o),
(339,-14,cs)
);
}
);
width = 634;
}
);
metricLeft = "dleCarrier-canadian";
metricRight = "geCarrier-canadian";
note = uni163C;
unicode = 5692;
},
{
color = 9;
glyphname = "tlaCarrier-canadian";
lastChange = "2023-01-13 15:56:53 +0000";
layers = (
{
layerId = "ABE41ABD-D787-4F86-A3B4-502CADE9F2A5";
shapes = (
{
closed = 1;
nodes = (
(307,-14,o),
(386,29,o),
(437,107,c),
(420,135,l),
(392,0,l),
(519,0,l),
(579,280,l),
(462,280,l),
(434,171,o),
(369,113,o),
(278,113,cs),
(216,113,o),
(181,144,o),
(181,191,cs),
(181,243,o),
(214,287,o),
(273,287,cs),
(297,287,l),
(322,402,l),
(298,402,ls),
(263,402,o),
(238,424,o),
(238,464,cs),
(238,528,o),
(280,577,o),
(359,577,cs),
(456,577,o),
(503,518,o),
(489,410,c),
(607,410,l),
(668,696,l),
(732,696,l),
(753,796,l),
(521,796,l),
(498,696,l),
(564,696,l),
(524,500,l),
(537,519,l),
(547,632,o),
(467,703,o),
(337,703,cs),
(205,703,o),
(102,610,o),
(102,471,cs),
(102,400,o),
(137,344,o),
(191,330,c),
(200,358,l),
(101,346,o),
(34,251,o),
(34,155,cs),
(34,57,o),
(106,-14,o),
(219,-14,cs)
);
}
);
width = 635;
}
);
metricLeft = "=|geCarrier-canadian";
metricRight = "=|dleCarrier-canadian";
note = uni163F;
unicode = 5695;
},
{
color = 9;
glyphname = "zuCarrier-canadian";
lastChange = "2023-01-13 15:56:53 +0000";
layers = (
{
layerId = "ABE41ABD-D787-4F86-A3B4-502CADE9F2A5";
shapes = (
{
closed = 1;
nodes = (
(485,-14,o),
(582,115,o),
(582,302,cs),
(582,357,o),
(573,420,o),
(573,489,cs),
(573,539,o),
(590,568,o),
(639,568,cs),
(659,568,l),
(684,690,l),
(626,690,ls),
(497,690,o),
(440,623,o),
(440,483,cs),
(440,426,o),
(447,374,o),
(447,298,cs),
(447,193,o),
(396,117,o),
(298,117,cs),
(230,117,o),
(190,153,o),
(190,211,cs),
(190,308,o),
(319,464,o),
(319,575,cs),
(319,646,o),
(269,690,o),
(185,690,cs),
(137,690,l),
(111,568,l),
(140,568,ls),
(168,568,o),
(180,556,o),
(180,535,cs),
(180,474,o),
(45,332,o),
(45,185,cs),
(45,67,o),
(139,-14,o),
(286,-14,cs)
);
}
);
width = 632;
}
);
metricRight = "=|";
note = uni1640;
unicode = 5696;
},
